<?xml version="1.0" encoding="UTF-8"?><svg xmlns:saxon="http://saxon.sf.net/" xmlns:sqf="http://www.schematron-quickfix.com/validator/process" xmlns:svg="http://www.w3.org/2000/svg" xmlns:d2t="java:com.d2t.saxon.d2tSaxonExtensions" xmlns:xlink="http://www.w3.org/1999/xlink" xmlns="http://www.w3.org/2000/svg" xmlns:xsi="http://www.w3.org/2001/XMLSchema-instance" width="202.5" height="100" sqf:cY="62.5" sqf:displayW="332" sqf:displayH="75" class="element_group" sqf:multiValue="one"><g transform="translate(78, 5)" id="modeld9e217_group_d9e217"><rect width="119.5" height="90" rx="7" ry="7" fill="white" stroke="#007" stroke-width="1"/><rect width="119.5" height="90" rx="7" ry="7" fill="white" stroke="#007" stroke-width="1"/><path fill="#007" opacity="0.1" d="M 0 25 L 0 7 Q 0 0 7 0 L 112.5 0 Q 119.5 0 119.5 7 L 119.5 25 Z"/><svg xmlns:java="java:java.lang.Math" width="109" height="25"><g transform="translate(3,3)"><rect width="5" height="5" x="6" y="3" fill="#007" opacity="0.5"/><rect width="5" height="5" x="6" y="11" fill="#007" opacity="0.5"/><rect width="5" height="5" x="14" y="11" fill="#007" opacity="0.5"/><rect width="5" height="5" x="6" y="3" fill="none" stroke="#007" stroke-width="0.75" opacity="1"/><rect width="5" height="5" x="6" y="11" fill="none" stroke="#007" stroke-width="0.75" opacity="1"/><rect width="5" height="5" x="14" y="11" fill="none" stroke="#007" stroke-width="0.75" opacity="1"/><text x="26" y="13" fill="black" font-family="arial, helvetica, sans-serif" font-size="11">sqf:fixElements</text></g></svg><path d="M 2.5 25 L 117 25" fill="none" stroke="#007" stroke-width="0.25"/><g transform="translate(118, 0)" sqf:z-index="0"><svg width="332" height="75" class="annotation"><g visibility="hidden" style="z-index:1000"><set attributeName="visibility" to="visible" begin="modeld9e217_group_d9e217.mouseover" end="modeld9e217_group_d9e217.mouseout" sqf:dokuViewer="modeld9e217_group_d9e217"/><set attributeName="visibility" to="hidden" begin="modeld9e217_elementRef_d9e229.mouseover" end="modeld9e217_elementRef_d9e229.mouseout"/><set attributeName="visibility" to="hidden" begin="modeld9e217_elementRef_d9e227.mouseover" end="modeld9e217_elementRef_d9e227.mouseout"/><g transform="translate(1,1)"><path d="M 20 0 Q 10 0 10 10 L 10 10 L 0 15 L 10 20 L 10 58 Q 10 68 20 68 L 320 68 Q 330 68 330 58 L 330 10 Q 330 0 320 0 Z" fill="white" opacity="1" stroke="#007" stroke-width="1"/><path d="M 20 0 Q 10 0 10 10 L 10 10 L 0 15 L 10 20 L 10 58 Q 10 68 20 68 L 320 68 Q 330 68 330 58 L 330 10 Q 330 0 320 0 Z" fill="#007" opacity="0.1" stroke="#007" stroke-width="1"/><path d="M 20 0 Q 10 0 10 10 L 10 10 L 0 15 L 10 20 L 10 58 Q 10 68 20 68 L 320 68 Q 330 68 330 58 L 330 10 Q 330 0 320 0 Z" fill="none" opacity="1" stroke="#007" stroke-width="1"/><g transform="translate(20,5)"><svg xmlns:java="java:java.lang.Math" width="300" height="18" class="text_box"><text fill="black" font-family="arial, helvetica, sans-serif" font-size="11" font-weight="bold"><tspan sqf:length="83" y="16" x="0">Documentation</tspan></text></svg></g><g transform="translate(20,23)"><svg xmlns:java="java:java.lang.Math" width="300" height="40" class="text_box"><text fill="black" font-family="arial, helvetica, sans-serif" font-size="11"><tspan sqf:length="46" y="16" x="0">Elements </tspan><tspan sqf:length="12" y="16">to </tspan><tspan sqf:length="33" y="16">define </tspan><tspan sqf:length="56" y="16">QuickFixes </tspan><tspan sqf:length="13" y="16">or </tspan><tspan sqf:length="44" y="16">QuickFix </tspan><tspan sqf:length="37" y="16">groups </tspan><tspan sqf:length="31" y="16">inside </tspan><tspan sqf:length="13" y="16">of </tspan><tspan sqf:length="9" y="16">a </tspan><tspan sqf:length="61" y="32" x="0">Schematron </tspan><tspan sqf:length="41" y="32">schema.</tspan></text></svg></g></g></g></svg></g><g transform="translate(0, 27.5)"><svg xmlns:java="java:java.lang.Math" width="117" height="60" sqf:cY="30" class="objectPaths" sqf:multiValue="one"><path stroke="#007" stroke-width="1" fill="none" d="M 0 30 L 25 30"/><g transform="translate(25,                                         0)"><svg width="92" height="60" class="choice" sqf:cY="30" sqf:multiValue="one"><g transform="translate(0,20)"><svg width="20" height="20" sqf:cYTop="0" sqf:cXTop="10" sqf:cYRight="10" sqf:cXRight="20" sqf:cYBottom="20" sqf:cXBottom="10"><g><circle r="9.5" stroke="#007" stroke-width="1" cx="10" cy="10" fill="white"/><g><path d="M 0 10                          L 3 10                          L 3 6                          L 6 6                         M 3 10                         L 3 14                         L 6 14" stroke="#007" fill="none" stroke-width="0.75"/><g transform="translate(6, 4)"><rect width="8" height="4" fill="#88f" stroke-width="1" stroke="#007"/></g><g transform="translate(6, 12)"><rect width="8" height="4" fill="#88f" stroke-width="1" stroke="#007"/></g><path d="M 10 0                                  L 10 4" stroke="#007" fill="none" stroke-width="0.75"/><path d="M 10 16                                  L 10 20" stroke="#007" fill="none" stroke-width="0.75"/></g></g></svg></g><g transform="translate(20,30)"><svg width="72" height="30" sqf:cY="15" class="objectPaths" sqf:multiValue="one"><path stroke="#007" stroke-width="1" fill="none" d="M 0 15 L 15 15"/><g transform="translate(15,                                         0)"><svg width="57" height="30" class="element_ref" sqf:cY="15" sqf:displayW="332" sqf:displayH="61" sqf:multiValue="one" sqf:minOccurs="1" sqf:maxOccurs="1"><desc/><g alignment-baseline="baseline" class="svg-element-ref" transform="translate(0, 2.5)"><g id="modeld9e217_elementRef_d9e229"><rect height="25" width="57" rx="10" ry="10" stroke="#007" stoke-width="1" fill="white"><set attributeName="fill" to="#88f" begin="modeld9e217_elementRef_d9e229.mouseover" end="modeld9e217_elementRef_d9e229.mouseout"/></rect><a xlink:href="#sqf_group" target="_top"><text x="5" y="16" fill="black" font-family="arial, helvetica, sans-serif" font-size="11"><set attributeName="fill" to="#fff" begin="modeld9e217_elementRef_d9e229.mouseover" end="modeld9e217_elementRef_d9e229.mouseout"/>sqf:group</text></a></g></g><g transform="translate(57, 0)" sqf:z-index="0"><svg width="332" height="91" class="annotation"><g visibility="hidden" style="z-index:1000"><set attributeName="visibility" to="visible" begin="modeld9e217_elementRef_d9e229.mouseover" end="modeld9e217_elementRef_d9e229.mouseout" sqf:dokuViewer="modeld9e217_elementRef_d9e229"/><g transform="translate(1,1)"><path d="M 20 0 Q 10 0 10 10 L 10 10 L 0 15 L 10 20 L 10 74 Q 10 84 20 84 L 320 84 Q 330 84 330 74 L 330 10 Q 330 0 320 0 Z" fill="white" opacity="1" stroke="#007" stroke-width="1"/><path d="M 20 0 Q 10 0 10 10 L 10 10 L 0 15 L 10 20 L 10 74 Q 10 84 20 84 L 320 84 Q 330 84 330 74 L 330 10 Q 330 0 320 0 Z" fill="#007" opacity="0.1" stroke="#007" stroke-width="1"/><path d="M 20 0 Q 10 0 10 10 L 10 10 L 0 15 L 10 20 L 10 74 Q 10 84 20 84 L 320 84 Q 330 84 330 74 L 330 10 Q 330 0 320 0 Z" fill="none" opacity="1" stroke="#007" stroke-width="1"/><g transform="translate(20,5)"><svg width="300" height="18" class="text_box"><text fill="black" font-family="arial, helvetica, sans-serif" font-size="11" font-weight="bold"><tspan sqf:length="83" y="16" x="0">Documentation</tspan></text></svg></g><g transform="translate(20,23)"><svg width="300" height="56" class="text_box"><text fill="black" font-family="arial, helvetica, sans-serif" font-size="11"><tspan sqf:length="40" y="16" x="0">Defines </tspan><tspan sqf:length="9" y="16">a </tspan><tspan sqf:length="61" y="16">Schematron </tspan><tspan sqf:length="44" y="16">QuickFix </tspan><tspan sqf:length="34" y="16">group. </tspan><tspan sqf:length="9" y="16">If </tspan><tspan sqf:length="18" y="16">the </tspan><tspan sqf:length="31" y="16">group </tspan><tspan sqf:length="11" y="16">is </tspan><tspan sqf:length="30" y="16">linked </tspan><tspan sqf:length="15" y="32" x="0">by </tspan><tspan sqf:length="15" y="32">an </tspan><tspan sqf:length="34" y="32">assert </tspan><tspan sqf:length="13" y="32">or </tspan><tspan sqf:length="35" y="32">report, </tspan><tspan sqf:length="13" y="32">all </tspan><tspan sqf:length="56" y="32">QuickFixes </tspan><tspan sqf:length="13" y="32">of </tspan><tspan sqf:length="20" y="32">this </tspan><tspan sqf:length="31" y="32">group </tspan><tspan sqf:length="19" y="32">will </tspan><tspan sqf:length="15" y="32">be </tspan><tspan sqf:length="56" y="48" x="0">accosieted </tspan><tspan sqf:length="24" y="48">with </tspan><tspan sqf:length="18" y="48">the </tspan><tspan sqf:length="66" y="48">assert/report.</tspan></text></svg></g></g></g></svg></g></svg></g></svg></g><g transform="translate(20,0)"><svg width="56" height="30" sqf:cY="15" class="objectPaths" sqf:multiValue="one"><path stroke="#007" stroke-width="1" fill="none" d="M 0 15 L 15 15"/><g transform="translate(15,                                         0)"><svg width="41" height="30" class="element_ref" sqf:cY="15" sqf:displayW="332" sqf:displayH="61" sqf:multiValue="one" sqf:minOccurs="1" sqf:maxOccurs="1"><desc/><g alignment-baseline="baseline" class="svg-element-ref" transform="translate(0, 2.5)"><g id="modeld9e217_elementRef_d9e227"><rect height="25" width="41" rx="10" ry="10" stroke="#007" stoke-width="1" fill="white"><set attributeName="fill" to="#88f" begin="modeld9e217_elementRef_d9e227.mouseover" end="modeld9e217_elementRef_d9e227.mouseout"/></rect><a xlink:href="#sqf_fix" target="_top"><text x="5" y="16" fill="black" font-family="arial, helvetica, sans-serif" font-size="11"><set attributeName="fill" to="#fff" begin="modeld9e217_elementRef_d9e227.mouseover" end="modeld9e217_elementRef_d9e227.mouseout"/>sqf:fix</text></a></g></g><g transform="translate(41, 0)" sqf:z-index="0"><svg width="332" height="91" class="annotation"><g visibility="hidden" style="z-index:1000"><set attributeName="visibility" to="visible" begin="modeld9e217_elementRef_d9e227.mouseover" end="modeld9e217_elementRef_d9e227.mouseout" sqf:dokuViewer="modeld9e217_elementRef_d9e227"/><g transform="translate(1,1)"><path d="M 20 0 Q 10 0 10 10 L 10 10 L 0 15 L 10 20 L 10 74 Q 10 84 20 84 L 320 84 Q 330 84 330 74 L 330 10 Q 330 0 320 0 Z" fill="white" opacity="1" stroke="#007" stroke-width="1"/><path d="M 20 0 Q 10 0 10 10 L 10 10 L 0 15 L 10 20 L 10 74 Q 10 84 20 84 L 320 84 Q 330 84 330 74 L 330 10 Q 330 0 320 0 Z" fill="#007" opacity="0.1" stroke="#007" stroke-width="1"/><path d="M 20 0 Q 10 0 10 10 L 10 10 L 0 15 L 10 20 L 10 74 Q 10 84 20 84 L 320 84 Q 330 84 330 74 L 330 10 Q 330 0 320 0 Z" fill="none" opacity="1" stroke="#007" stroke-width="1"/><g transform="translate(20,5)"><svg width="300" height="18" class="text_box"><text fill="black" font-family="arial, helvetica, sans-serif" font-size="11" font-weight="bold"><tspan sqf:length="83" y="16" x="0">Documentation</tspan></text></svg></g><g transform="translate(20,23)"><svg width="300" height="56" class="text_box"><text fill="black" font-family="arial, helvetica, sans-serif" font-size="11"><tspan sqf:length="40" y="16" x="0">Defines </tspan><tspan sqf:length="9" y="16">a </tspan><tspan sqf:length="61" y="16">Schematron </tspan><tspan sqf:length="44" y="16">QuickFix </tspan><tspan sqf:length="24" y="16">with </tspan><tspan sqf:length="14" y="16">its </tspan><tspan sqf:length="42" y="16">content. </tspan><tspan sqf:length="15" y="16">All </tspan><tspan sqf:length="55" y="32" x="0">commands </tspan><tspan sqf:length="19" y="32">will </tspan><tspan sqf:length="15" y="32">be </tspan><tspan sqf:length="55" y="32">processed </tspan><tspan sqf:length="9" y="32">if </tspan><tspan sqf:length="18" y="32">the </tspan><tspan sqf:length="44" y="32">QuickFix </tspan><tspan sqf:length="11" y="32">is </tspan><tspan sqf:length="47" y="32">activated </tspan><tspan sqf:length="15" y="32">by </tspan><tspan sqf:length="18" y="48" x="0">the </tspan><tspan sqf:length="25" y="48">user.</tspan></text></svg></g></g></g></svg></g></svg></g></svg></g><path fill="none" stroke-width="1" stroke="#007" d="M 10 20 L 10 22 Q 10 15 17 15 L 20 15"/><path fill="none" stroke-width="1" stroke="#007" d="M 10 40 L 10 38 Q 10 45 17 45 L 20 45"/></svg></g></svg></g></g><g transform="translate(0, 47.5)"><svg xmlns:java="java:java.lang.Math" width="78" height="30" sqf:cY="15" class="objectPaths" sqf:multiValue="one"><path stroke="#007" stroke-width="1" fill="none" d="M 78 15 L 53 15"/><g transform="translate(0,                                         0)"><svg width="53" height="30" sqf:cY="15"><g alignment-baseline="baseline" id="modeld9e217_d9e233_parentOf_" transform="translate( 0, 2.5)"><a xlink:href="#sqf_fixes" target="_top"><g><rect width="53" height="25" rx="10" ry="10" stroke="#007" stoke-width="1" fill="white"/></g><text x="5" y="16" fill="black" font-family="arial, helvetica, sans-serif" font-size="11">sqf:fixes</text></a></g><g transform="translate(53, 2.5)"><svg width="332" height="75" class="annotation"><g visibility="hidden" style="z-index:1000"><set attributeName="visibility" to="visible" begin="modeld9e217_d9e233_parentOf_.mouseover" end="modeld9e217_d9e233_parentOf_.mouseout" sqf:dokuViewer="modeld9e217_d9e233_parentOf_"/><g transform="translate(1,1)"><path d="M 17.5 0 Q 10 0 10 7.5 L 10 7.5 L 0 12.5 L 10 17.5 L 10 60.5 Q 10 68 17.5 68 L 322.5 68 Q 330 68 330 60.5 L 330 7.5 Q 330 0 322.5 0 Z" fill="white" opacity="1" stroke="#007" stroke-width="1"/><path d="M 17.5 0 Q 10 0 10 7.5 L 10 7.5 L 0 12.5 L 10 17.5 L 10 60.5 Q 10 68 17.5 68 L 322.5 68 Q 330 68 330 60.5 L 330 7.5 Q 330 0 322.5 0 Z" fill="#007" opacity="0.1" stroke="#007" stroke-width="1"/><path d="M 17.5 0 Q 10 0 10 7.5 L 10 7.5 L 0 12.5 L 10 17.5 L 10 60.5 Q 10 68 17.5 68 L 322.5 68 Q 330 68 330 60.5 L 330 7.5 Q 330 0 322.5 0 Z" fill="none" opacity="1" stroke="#007" stroke-width="1"/><g transform="translate(20,5)"><svg width="300" height="18" class="text_box"><text fill="black" font-family="arial, helvetica, sans-serif" font-size="11" font-weight="bold"><tspan sqf:length="83" y="16" x="0">Documentation</tspan></text></svg></g><g transform="translate(20,23)"><svg width="300" height="40" class="text_box"><text fill="black" font-family="arial, helvetica, sans-serif" font-size="11"><tspan sqf:length="45" y="16" x="0">Contains </tspan><tspan sqf:length="39" y="16">globally </tspan><tspan sqf:length="41" y="16">useable </tspan><tspan sqf:length="61" y="16">Schematron </tspan><tspan sqf:length="56" y="16">QuickFixes </tspan><tspan sqf:length="21" y="16">and </tspan><tspan sqf:length="44" y="32" x="0">QuickFix </tspan><tspan sqf:length="37" y="32">groups.</tspan></text></svg></g></g></g></svg></g></svg></g></svg></g></svg>