<?xml version="1.0" encoding="UTF-8"?><svg xmlns:saxon="http://saxon.sf.net/" xmlns:sqf="http://www.schematron-quickfix.com/validator/process" xmlns:svg="http://www.w3.org/2000/svg" xmlns:d2t="java:com.d2t.saxon.d2tSaxonExtensions" xmlns:xlink="http://www.w3.org/1999/xlink" xmlns="http://www.w3.org/2000/svg" xmlns:xsi="http://www.w3.org/2001/XMLSchema-instance" width="409" height="143.5" sqf:cY="95" sqf:displayW="0" sqf:displayH="0" class="element_group" sqf:multiValue="one"><g transform="translate(66, 5)" id="modeld9e1220_group_d9e1220"><rect width="338" height="133.5" rx="7" ry="7" fill="white" stroke="#007" stroke-width="1"/><rect width="338" height="133.5" rx="7" ry="7" fill="white" stroke="#007" stroke-width="1"/><path fill="#007" opacity="0.1" d="M 0 25 L 0 7 Q 0 0 7 0 L 331 0 Q 338 0 338 7 L 338 25 Z"/><svg xmlns:java="java:java.lang.Math" width="88" height="25"><g transform="translate(3,3)"><rect width="5" height="5" x="6" y="3" fill="#007" opacity="0.5"/><rect width="5" height="5" x="6" y="11" fill="#007" opacity="0.5"/><rect width="5" height="5" x="14" y="11" fill="#007" opacity="0.5"/><rect width="5" height="5" x="6" y="3" fill="none" stroke="#007" stroke-width="0.75" opacity="1"/><rect width="5" height="5" x="6" y="11" fill="none" stroke="#007" stroke-width="0.75" opacity="1"/><rect width="5" height="5" x="14" y="11" fill="none" stroke="#007" stroke-width="0.75" opacity="1"/><text x="26" y="13" fill="black" font-family="arial, helvetica, sans-serif" font-size="11">sqf:foreign</text></g></svg><path d="M 2.5 25 L 335.5 25" fill="none" stroke="#007" stroke-width="0.25"/><g transform="translate(336.5, 0)" sqf:z-index="0"/><g transform="translate(0, 27.5)"><svg xmlns:java="java:java.lang.Math" width="335.5" height="103.5" sqf:cY="62.5" class="objectPaths" sqf:multiValue="one"><path stroke="#007" stroke-width="1" fill="none" d="M 0 62.5 L 25 62.5"/><g transform="translate(25,                                         0)"><svg width="310.5" height="103.5" class="sequence" sqf:cY="62.5" sqf:multiValue="one" sqf:minOccurs="1" sqf:maxOccurs="1"><g transform="translate(0,52.5)"><svg width="20" height="20" sqf:cY="10"><g><circle r="9.5" stroke="#007" stroke-width="1" cx="10" cy="10" fill="white"/><g><path d="M 0 10                          L 3 10                         M 8.5 10                         L 11.5 10                         M 17 10                         L 20 10" stroke="#007" fill="none" stroke-width="0.75"/><g transform="translate(3, 8)"><rect width="5.5" height="4" fill="#88f" stroke-width="1" stroke="#007"/></g><g transform="translate(11.5, 8)"><rect width="5.5" height="4" fill="#88f" stroke-width="1" stroke="#007"/></g></g></g></svg></g><g transform="translate(20,0)"><svg width="290.5" height="103.5" sqf:cY="62.5" class="objectPaths" sqf:multiValue="zeroOrMore"><path stroke="#007" stroke-width="1" fill="none" d="M 0 61 L 15 61" stroke-dasharray="3,3"/><path stroke="#007" stroke-width="1" fill="none" d="M 0 64 L 15 64" stroke-dasharray="3,3"/><g transform="translate(15,                                         0)"><svg width="275.5" height="103.5" sqf:cY="62.5" sqf:displayW="0" sqf:displayH="0" class="element_group" sqf:multiValue="zeroOrMore"><g transform="translate(0, 5)" id="modeld9e1220_group_d9e1224"><rect width="270.5" height="90" rx="7" ry="7" fill="white" stroke="#007" stroke-width="0.33" stroke-dashoffset="2" stroke-dasharray="2" y="3.5"/><rect width="270.5" height="90" rx="7" ry="7" fill="white" stroke="#007" stroke-width="0.66" stroke-dashoffset="2" stroke-dasharray="2" y="2"/><rect width="270.5" height="90" rx="7" ry="7" fill="white" stroke="#007" stroke-width="1" stroke-dashoffset="2" stroke-dasharray="2"/><rect width="270.5" height="90" rx="7" ry="7" fill="white" stroke="#007" stroke-width="1"/><a xlink:href="#sqf_foreign-element" target="_top"><svg width="129" height="25"><g transform="translate(3,3)"><rect width="5" height="5" x="6" y="3" fill="#007" opacity="0.5"/><rect width="5" height="5" x="6" y="11" fill="#007" opacity="0.5"/><rect width="5" height="5" x="14" y="11" fill="#007" opacity="0.5"/><rect width="5" height="5" x="6" y="3" fill="none" stroke="#007" stroke-width="0.75" opacity="1"/><rect width="5" height="5" x="6" y="11" fill="none" stroke="#007" stroke-width="0.75" opacity="1"/><rect width="5" height="5" x="14" y="11" fill="none" stroke="#007" stroke-width="0.75" opacity="1"/><text x="26" y="13" fill="black" font-family="arial, helvetica, sans-serif" font-size="11">sqf:foreign-element</text></g></svg><path d="M 2.5 25 L 268 25" fill="none" stroke="#007" stroke-width="0.25"/></a><g transform="translate(269, 0)" sqf:z-index="0"/><g transform="translate(0, 27.5)"><svg width="268" height="60" sqf:cY="30" class="objectPaths" sqf:multiValue="one"><path stroke="#007" stroke-width="1" fill="none" d="M 0 30 L 25 30"/><g transform="translate(25,                                         0)"><svg width="243" height="60" class="choice" sqf:cY="30" sqf:multiValue="one"><g transform="translate(0,20)"><svg width="20" height="20" sqf:cYTop="0" sqf:cXTop="10" sqf:cYRight="10" sqf:cXRight="20" sqf:cYBottom="20" sqf:cXBottom="10"><g><circle r="9.5" stroke="#007" stroke-width="1" cx="10" cy="10" fill="white"/><g><path d="M 0 10                          L 3 10                          L 3 6                          L 6 6                         M 3 10                         L 3 14                         L 6 14" stroke="#007" fill="none" stroke-width="0.75"/><g transform="translate(6, 4)"><rect width="8" height="4" fill="#88f" stroke-width="1" stroke="#007"/></g><g transform="translate(6, 12)"><rect width="8" height="4" fill="#88f" stroke-width="1" stroke="#007"/></g><path d="M 10 0                                  L 10 4" stroke="#007" fill="none" stroke-width="0.75"/><path d="M 10 16                                  L 10 20" stroke="#007" fill="none" stroke-width="0.75"/></g></g></svg></g><g transform="translate(20,30)"><svg width="59" height="30" sqf:cY="15" class="objectPaths" sqf:multiValue="one"><path stroke="#007" stroke-width="1" fill="none" d="M 0 15 L 15 15"/><g transform="translate(15,                                         0)"><svg width="44" height="30" class="element_ref" sqf:cY="15" sqf:displayW="0" sqf:displayH="0" sqf:multiValue="one" sqf:minOccurs="1" sqf:maxOccurs="1"><desc/><g alignment-baseline="baseline" class="svg-element-ref" transform="translate(0, 2.5)"><g id="modeld9e1220_elementRef_d9e1234"><rect height="25" width="44" rx="10" ry="10" stroke="#007" stoke-width="1" fill="white"/><text x="5" y="16" fill="black" font-family="arial, helvetica, sans-serif" font-size="11">##local</text></g></g><g transform="translate(44, 0)" sqf:z-index="0"/></svg></g></svg></g><g transform="translate(20,0)"><svg width="223" height="30" sqf:cY="15" class="objectPaths" sqf:multiValue="one"><path stroke="#007" stroke-width="1" fill="none" d="M 0 15 L 15 15"/><g transform="translate(15,                                         0)"><svg width="208" height="30" class="element_ref" sqf:cY="15" sqf:displayW="0" sqf:displayH="0" sqf:multiValue="one" sqf:minOccurs="1" sqf:maxOccurs="1"><desc/><g alignment-baseline="baseline" class="svg-element-ref" transform="translate(0, 2.5)"><g id="modeld9e1220_elementRef_d9e1232"><rect height="25" width="208" rx="10" ry="10" stroke="#007" stoke-width="1" fill="white"/><text x="5" y="16" fill="black" font-family="arial, helvetica, sans-serif" font-size="11">http://www.w3.org/1999/XSL/Transform</text></g></g><g transform="translate(208, 0)" sqf:z-index="0"/></svg></g></svg></g><path fill="none" stroke-width="1" stroke="#007" d="M 10 20 L 10 22 Q 10 15 17 15 L 20 15"/><path fill="none" stroke-width="1" stroke="#007" d="M 10 40 L 10 38 Q 10 45 17 45 L 20 45"/></svg></g></svg></g></g><g transform="translate(0, 62.5)"/></svg></g></svg></g></svg></g></svg></g></g><g transform="translate(0, 80)"><svg xmlns:java="java:java.lang.Math" width="66" height="30" sqf:cY="15" class="objectPaths" sqf:multiValue="one"><path stroke="#007" stroke-width="1" fill="none" d="M 66 15 L 41 15"/><g transform="translate(0,                                         0)"><svg width="41" height="30" sqf:cY="15"><g alignment-baseline="baseline" id="modeld9e1220_d9e302_parentOf_" transform="translate( 0, 2.5)"><a xlink:href="#sqf_fix" target="_top"><g><rect width="41" height="25" rx="10" ry="10" stroke="#007" stoke-width="1" fill="white"/></g><text x="5" y="16" fill="black" font-family="arial, helvetica, sans-serif" font-size="11">sqf:fix</text></a></g><g transform="translate(41, 2.5)"><svg width="332" height="91" class="annotation"><g visibility="hidden" style="z-index:1000"><set attributeName="visibility" to="visible" begin="modeld9e1220_d9e302_parentOf_.mouseover" end="modeld9e1220_d9e302_parentOf_.mouseout" sqf:dokuViewer="modeld9e1220_d9e302_parentOf_"/><g transform="translate(1,1)"><path d="M 17.5 0 Q 10 0 10 7.5 L 10 7.5 L 0 12.5 L 10 17.5 L 10 76.5 Q 10 84 17.5 84 L 322.5 84 Q 330 84 330 76.5 L 330 7.5 Q 330 0 322.5 0 Z" fill="white" opacity="1" stroke="#007" stroke-width="1"/><path d="M 17.5 0 Q 10 0 10 7.5 L 10 7.5 L 0 12.5 L 10 17.5 L 10 76.5 Q 10 84 17.5 84 L 322.5 84 Q 330 84 330 76.5 L 330 7.5 Q 330 0 322.5 0 Z" fill="#007" opacity="0.1" stroke="#007" stroke-width="1"/><path d="M 17.5 0 Q 10 0 10 7.5 L 10 7.5 L 0 12.5 L 10 17.5 L 10 76.5 Q 10 84 17.5 84 L 322.5 84 Q 330 84 330 76.5 L 330 7.5 Q 330 0 322.5 0 Z" fill="none" opacity="1" stroke="#007" stroke-width="1"/><g transform="translate(20,5)"><svg width="300" height="18" class="text_box"><text fill="black" font-family="arial, helvetica, sans-serif" font-size="11" font-weight="bold"><tspan sqf:length="83" y="16" x="0">Documentation</tspan></text></svg></g><g transform="translate(20,23)"><svg width="300" height="56" class="text_box"><text fill="black" font-family="arial, helvetica, sans-serif" font-size="11"><tspan sqf:length="40" y="16" x="0">Defines </tspan><tspan sqf:length="9" y="16">a </tspan><tspan sqf:length="61" y="16">Schematron </tspan><tspan sqf:length="44" y="16">QuickFix </tspan><tspan sqf:length="24" y="16">with </tspan><tspan sqf:length="14" y="16">its </tspan><tspan sqf:length="42" y="16">content. </tspan><tspan sqf:length="15" y="16">All </tspan><tspan sqf:length="55" y="32" x="0">commands </tspan><tspan sqf:length="19" y="32">will </tspan><tspan sqf:length="15" y="32">be </tspan><tspan sqf:length="55" y="32">processed </tspan><tspan sqf:length="9" y="32">if </tspan><tspan sqf:length="18" y="32">the </tspan><tspan sqf:length="44" y="32">QuickFix </tspan><tspan sqf:length="11" y="32">is </tspan><tspan sqf:length="47" y="32">activated </tspan><tspan sqf:length="15" y="32">by </tspan><tspan sqf:length="18" y="48" x="0">the </tspan><tspan sqf:length="25" y="48">user.</tspan></text></svg></g></g></g></svg></g></svg></g></svg></g></svg>