<?xml version="1.0" encoding="UTF-8"?><svg xmlns:saxon="http://saxon.sf.net/" xmlns:sqf="http://www.schematron-quickfix.com/validator/process" xmlns:svg="http://www.w3.org/2000/svg" xmlns:d2t="java:com.d2t.saxon.d2tSaxonExtensions" xmlns:xlink="http://www.w3.org/1999/xlink" xmlns="http://www.w3.org/2000/svg" xmlns:xsi="http://www.w3.org/2001/XMLSchema-instance" width="452.5" height="243.5" sqf:cY="117.5" sqf:displayW="0" sqf:displayH="0" class="element_group" sqf:multiValue="one"><g transform="translate(189, 5)" id="modeld9e949_group_d9e949"><rect width="258.5" height="233.5" rx="7" ry="7" fill="white" stroke="#F5844C" stroke-width="1"/><rect width="258.5" height="233.5" rx="7" ry="7" fill="white" stroke="#F5844C" stroke-width="1"/><path fill="#F5844C" opacity="0.1" d="M 0 25 L 0 7 Q 0 0 7 0 L 251.5 0 Q 258.5 0 258.5 7 L 258.5 25 Z"/><svg xmlns:java="java:java.lang.Math" width="113" height="25"><g transform="translate(3,3)"><rect width="5" height="5" x="6" y="3" fill="#F5844C" opacity="0.5"/><rect width="5" height="5" x="6" y="11" fill="#F5844C" opacity="0.5"/><rect width="5" height="5" x="14" y="11" fill="#F5844C" opacity="0.5"/><rect width="5" height="5" x="6" y="3" fill="none" stroke="#F5844C" stroke-width="0.75" opacity="1"/><rect width="5" height="5" x="6" y="11" fill="none" stroke="#F5844C" stroke-width="0.75" opacity="1"/><rect width="5" height="5" x="14" y="11" fill="none" stroke="#F5844C" stroke-width="0.75" opacity="1"/><text x="26" y="13" fill="black" font-family="arial, helvetica, sans-serif" font-size="11">sqf:activityBase</text></g></svg><path d="M 2.5 25 L 256 25" fill="none" stroke="#F5844C" stroke-width="0.25"/><g transform="translate(257, 0)" sqf:z-index="0"/><g transform="translate(0, 27.5)"><svg xmlns:java="java:java.lang.Math" width="256" height="203.5" sqf:cY="85" class="objectPaths" sqf:multiValue="one"><path stroke="#F5844C" stroke-width="1" fill="none" d="M 0 85 L 25 85"/><path stroke="#F5844C" stroke-width="1" fill="none" d="M 50 155 L 32 155 Q 25 155 25 148 L 25 85"/><g transform="translate(50,                                         60)"><svg width="206" height="143.5" sqf:cY="95" sqf:displayW="0" sqf:displayH="0" class="element_group" sqf:multiValue="one"><g transform="translate(0, 5)" id="modeld9e949_group_d9e994"><rect width="201" height="133.5" rx="7" ry="7" fill="white" stroke="#007" stroke-width="1"/><rect width="201" height="133.5" rx="7" ry="7" fill="white" stroke="#007" stroke-width="1"/><a xlink:href="#sch_foreign" target="_top"><svg width="90" height="25"><g transform="translate(3,3)"><rect width="5" height="5" x="6" y="3" fill="#007" opacity="0.5"/><rect width="5" height="5" x="6" y="11" fill="#007" opacity="0.5"/><rect width="5" height="5" x="14" y="11" fill="#007" opacity="0.5"/><rect width="5" height="5" x="6" y="3" fill="none" stroke="#007" stroke-width="0.75" opacity="1"/><rect width="5" height="5" x="6" y="11" fill="none" stroke="#007" stroke-width="0.75" opacity="1"/><rect width="5" height="5" x="14" y="11" fill="none" stroke="#007" stroke-width="0.75" opacity="1"/><text x="26" y="13" fill="black" font-family="arial, helvetica, sans-serif" font-size="11">sch:foreign</text></g></svg><path d="M 2.5 25 L 198.5 25" fill="none" stroke="#007" stroke-width="0.25"/></a><g transform="translate(199.5, 0)" sqf:z-index="0"/><g transform="translate(0, 27.5)"><svg width="198.5" height="103.5" sqf:cY="62.5" class="objectPaths" sqf:multiValue="one"><path stroke="#007" stroke-width="1" fill="none" d="M 0 62.5 L 25 62.5"/><g transform="translate(25,                                         0)"><svg width="173.5" height="103.5" class="sequence" sqf:cY="62.5" sqf:multiValue="one" sqf:minOccurs="1" sqf:maxOccurs="1"><g transform="translate(0,52.5)"><svg width="20" height="20" sqf:cY="10"><g><circle r="9.5" stroke="#007" stroke-width="1" cx="10" cy="10" fill="white"/><g><path d="M 0 10                          L 3 10                         M 8.5 10                         L 11.5 10                         M 17 10                         L 20 10" stroke="#007" fill="none" stroke-width="0.75"/><g transform="translate(3, 8)"><rect width="5.5" height="4" fill="#88f" stroke-width="1" stroke="#007"/></g><g transform="translate(11.5, 8)"><rect width="5.5" height="4" fill="#88f" stroke-width="1" stroke="#007"/></g></g></g></svg></g><g transform="translate(20,0)"><svg width="153.5" height="103.5" sqf:cY="62.5" class="objectPaths" sqf:multiValue="zeroOrMore"><path stroke="#007" stroke-width="1" fill="none" d="M 0 61 L 15 61" stroke-dasharray="3,3"/><path stroke="#007" stroke-width="1" fill="none" d="M 0 64 L 15 64" stroke-dasharray="3,3"/><g transform="translate(15,                                         0)"><svg width="138.5" height="103.5" sqf:cY="62.5" sqf:displayW="0" sqf:displayH="0" class="element_group" sqf:multiValue="zeroOrMore"><g transform="translate(0, 5)" id="modeld9e949_group_d5e538"><rect width="133.5" height="90" rx="7" ry="7" fill="white" stroke="#007" stroke-width="0.33" stroke-dashoffset="2" stroke-dasharray="2" y="3.5"/><rect width="133.5" height="90" rx="7" ry="7" fill="white" stroke="#007" stroke-width="0.66" stroke-dashoffset="2" stroke-dasharray="2" y="2"/><rect width="133.5" height="90" rx="7" ry="7" fill="white" stroke="#007" stroke-width="1" stroke-dashoffset="2" stroke-dasharray="2"/><rect width="133.5" height="90" rx="7" ry="7" fill="white" stroke="#007" stroke-width="1"/><a xlink:href="#sch_foreign-element" target="_top"><svg width="131" height="25"><g transform="translate(3,3)"><rect width="5" height="5" x="6" y="3" fill="#007" opacity="0.5"/><rect width="5" height="5" x="6" y="11" fill="#007" opacity="0.5"/><rect width="5" height="5" x="14" y="11" fill="#007" opacity="0.5"/><rect width="5" height="5" x="6" y="3" fill="none" stroke="#007" stroke-width="0.75" opacity="1"/><rect width="5" height="5" x="6" y="11" fill="none" stroke="#007" stroke-width="0.75" opacity="1"/><rect width="5" height="5" x="14" y="11" fill="none" stroke="#007" stroke-width="0.75" opacity="1"/><text x="26" y="13" fill="black" font-family="arial, helvetica, sans-serif" font-size="11">sch:foreign-element</text></g></svg><path d="M 2.5 25 L 131 25" fill="none" stroke="#007" stroke-width="0.25"/></a><g transform="translate(132, 0)" sqf:z-index="0"/><g transform="translate(0, 27.5)"><svg width="107" height="60" sqf:cY="30" class="objectPaths" sqf:multiValue="one"><path stroke="#007" stroke-width="1" fill="none" d="M 0 30 L 25 30"/><g transform="translate(25,                                         0)"><svg width="82" height="60" class="choice" sqf:cY="30" sqf:multiValue="one"><g transform="translate(0,20)"><svg width="20" height="20" sqf:cYTop="0" sqf:cXTop="10" sqf:cYRight="10" sqf:cXRight="20" sqf:cYBottom="20" sqf:cXBottom="10"><g><circle r="9.5" stroke="#007" stroke-width="1" cx="10" cy="10" fill="white"/><g><path d="M 0 10                          L 3 10                          L 3 6                          L 6 6                         M 3 10                         L 3 14                         L 6 14" stroke="#007" fill="none" stroke-width="0.75"/><g transform="translate(6, 4)"><rect width="8" height="4" fill="#88f" stroke-width="1" stroke="#007"/></g><g transform="translate(6, 12)"><rect width="8" height="4" fill="#88f" stroke-width="1" stroke="#007"/></g><path d="M 10 0                                  L 10 4" stroke="#007" fill="none" stroke-width="0.75"/><path d="M 10 16                                  L 10 20" stroke="#007" fill="none" stroke-width="0.75"/></g></g></svg></g><g transform="translate(20,30)"><svg width="59" height="30" sqf:cY="15" class="objectPaths" sqf:multiValue="one"><path stroke="#007" stroke-width="1" fill="none" d="M 0 15 L 15 15"/><g transform="translate(15,                                         0)"><svg width="44" height="30" class="element_ref" sqf:cY="15" sqf:displayW="0" sqf:displayH="0" sqf:multiValue="one" sqf:minOccurs="1" sqf:maxOccurs="1"><desc/><g alignment-baseline="baseline" class="svg-element-ref" transform="translate(0, 2.5)"><g id="modeld9e949_elementRef_d5e567"><rect height="25" width="44" rx="10" ry="10" stroke="#007" stoke-width="1" fill="white"/><text x="5" y="16" fill="black" font-family="arial, helvetica, sans-serif" font-size="11">##local</text></g></g><g transform="translate(44, 0)" sqf:z-index="0"/></svg></g></svg></g><g transform="translate(20,0)"><svg width="62" height="30" sqf:cY="15" class="objectPaths" sqf:multiValue="one"><path stroke="#007" stroke-width="1" fill="none" d="M 0 15 L 15 15"/><g transform="translate(15,                                         0)"><svg width="47" height="30" class="element_ref" sqf:cY="15" sqf:displayW="0" sqf:displayH="0" sqf:multiValue="one" sqf:minOccurs="1" sqf:maxOccurs="1"><desc/><g alignment-baseline="baseline" class="svg-element-ref" transform="translate(0, 2.5)"><g id="modeld9e949_elementRef_d5e563"><rect height="25" width="47" rx="10" ry="10" stroke="#007" stoke-width="1" fill="white"/><text x="5" y="16" fill="black" font-family="arial, helvetica, sans-serif" font-size="11">##other</text></g></g><g transform="translate(47, 0)" sqf:z-index="0"/></svg></g></svg></g><path fill="none" stroke-width="1" stroke="#007" d="M 10 20 L 10 22 Q 10 15 17 15 L 20 15"/><path fill="none" stroke-width="1" stroke="#007" d="M 10 40 L 10 38 Q 10 45 17 45 L 20 45"/></svg></g></svg></g></g><g transform="translate(0, 62.5)"/></svg></g></svg></g></svg></g></svg></g></g><g transform="translate(0, 95)"/></svg></g><path stroke="#F5844C" stroke-width="1" fill="none" d="M 25 45 L 50 45" stroke-dasharray="5,5"/><path stroke="#F5844C" stroke-width="1" fill="none" d="M 25 45 L 25 85" stroke-dasharray="5,5"/><g transform="translate(50,                                         30)"><svg width="79" height="30" sqf:cY="15" class="attribute" id="modeld9e949_attribute_sqf_use-when" sqf:displayW="332" sqf:displayH="87" sqf:multiValue="zeroOrOne"><desc/><g alignment-baseline="baseline" transform="translate(0, 2.5)" id="modeld9e949_attributName_d9e982"><g><rect height="25" width="79" rx="10" ry="10" stroke="#F5844C" stoke-width="1" fill="white" stroke-dasharray="5,5"/></g><text x="5" y="16" fill="black" font-family="arial, helvetica, sans-serif" font-size="11">sqf:use-when</text></g><g transform="translate(79, 0)" sqf:z-index="0"><svg width="332" height="117" class="annotation"><g visibility="hidden" style="z-index:1000"><set attributeName="visibility" to="visible" begin="modeld9e949_attributName_d9e982.mouseover" end="modeld9e949_attributName_d9e982.mouseout" sqf:dokuViewer="modeld9e949_attributName_d9e982"/><g transform="translate(1,1)"><path d="M 20 0 Q 10 0 10 10 L 10 10 L 0 15 L 10 20 L 10 100 Q 10 110 20 110 L 320 110 Q 330 110 330 100 L 330 10 Q 330 0 320 0 Z" fill="white" opacity="1" stroke="#F5844C" stroke-width="1"/><path d="M 20 0 Q 10 0 10 10 L 10 10 L 0 15 L 10 20 L 10 100 Q 10 110 20 110 L 320 110 Q 330 110 330 100 L 330 10 Q 330 0 320 0 Z" fill="#F5844C" opacity="0.1" stroke="#F5844C" stroke-width="1"/><path d="M 20 0 Q 10 0 10 10 L 10 10 L 0 15 L 10 20 L 10 100 Q 10 110 20 110 L 320 110 Q 330 110 330 100 L 330 10 Q 330 0 320 0 Z" fill="none" opacity="1" stroke="#F5844C" stroke-width="1"/><g transform="translate(20,5)"><svg width="300" height="18" class="text_box"><text fill="black" font-family="arial, helvetica, sans-serif" font-size="11" font-weight="bold"><tspan sqf:length="83" y="16" x="0">Documentation</tspan></text></svg></g><g transform="translate(20,23)"><svg width="300" height="40" class="text_box"><text fill="black" font-family="arial, helvetica, sans-serif" font-size="11"><tspan sqf:length="11" y="16" x="0">A </tspan><tspan sqf:length="46" y="16">condition </tspan><tspan sqf:length="17" y="16">for </tspan><tspan sqf:length="18" y="16">the </tspan><tspan sqf:length="32" y="16">action </tspan><tspan sqf:length="13" y="16">of </tspan><tspan sqf:length="18" y="16">the </tspan><tspan sqf:length="37" y="16">activity </tspan><tspan sqf:length="43" y="16">Element. </tspan><tspan sqf:length="21" y="16">The </tspan><tspan sqf:length="32" y="16">action </tspan><tspan sqf:length="19" y="32" x="0">will </tspan><tspan sqf:length="20" y="32">just </tspan><tspan sqf:length="15" y="32">be </tspan><tspan sqf:length="51" y="32">executed, </tspan><tspan sqf:length="9" y="32">if </tspan><tspan sqf:length="18" y="32">the </tspan><tspan sqf:length="46" y="32">condition </tspan><tspan sqf:length="38" y="32">returns </tspan><tspan sqf:length="22" y="32">true.</tspan></text></svg></g><g transform="translate(20,63)"><svg width="300" height="18" class="text_box"><text fill="black" font-family="arial, helvetica, sans-serif" font-size="11" font-weight="bold"><tspan sqf:length="29" y="16" x="0">value</tspan></text></svg></g><g transform="translate(20,81)"><svg width="300" height="24" class="text_box"><text fill="black" font-family="arial, helvetica, sans-serif" font-size="11"><tspan sqf:length="31" y="16" x="0">XPath </tspan><tspan sqf:length="60" y="16">expression. </tspan><tspan sqf:length="14" y="16">Its </tspan><tspan sqf:length="36" y="16">expect </tspan><tspan sqf:length="15" y="16">as </tspan><tspan sqf:length="32" y="16">return </tspan><tspan sqf:length="29" y="16">value </tspan><tspan sqf:length="15" y="16">an </tspan><tspan sqf:length="56" y="16">xs:boolean.</tspan></text></svg></g></g></g></svg></g></svg></g><path stroke="#F5844C" stroke-width="1" fill="none" d="M 50 15 L 32 15 Q 25 15 25 22 L 25 45" stroke-dasharray="5,5"/><g transform="translate(50,                                         0)"><svg width="58" height="30" sqf:cY="15" class="attribute" id="modeld9e949_attribute_sqf_match" sqf:displayW="532" sqf:displayH="177" sqf:multiValue="zeroOrOne"><desc/><g alignment-baseline="baseline" transform="translate(0, 2.5)" id="modeld9e949_attributName_d9e951"><g><rect height="25" width="58" rx="10" ry="10" stroke="#F5844C" stoke-width="1" fill="white" stroke-dasharray="5,5"/></g><text x="5" y="16" fill="black" font-family="arial, helvetica, sans-serif" font-size="11">sqf:match</text></g><g transform="translate(58, 0)" sqf:z-index="0"><svg width="532" height="207" class="annotation"><g visibility="hidden" style="z-index:1000"><set attributeName="visibility" to="visible" begin="modeld9e949_attributName_d9e951.mouseover" end="modeld9e949_attributName_d9e951.mouseout" sqf:dokuViewer="modeld9e949_attributName_d9e951"/><g transform="translate(1,1)"><path d="M 20 0 Q 10 0 10 10 L 10 10 L 0 15 L 10 20 L 10 190 Q 10 200 20 200 L 520 200 Q 530 200 530 190 L 530 10 Q 530 0 520 0 Z" fill="white" opacity="1" stroke="#F5844C" stroke-width="1"/><path d="M 20 0 Q 10 0 10 10 L 10 10 L 0 15 L 10 20 L 10 190 Q 10 200 20 200 L 520 200 Q 530 200 530 190 L 530 10 Q 530 0 520 0 Z" fill="#F5844C" opacity="0.1" stroke="#F5844C" stroke-width="1"/><path d="M 20 0 Q 10 0 10 10 L 10 10 L 0 15 L 10 20 L 10 190 Q 10 200 20 200 L 520 200 Q 530 200 530 190 L 530 10 Q 530 0 520 0 Z" fill="none" opacity="1" stroke="#F5844C" stroke-width="1"/><g transform="translate(20,5)"><svg width="500" height="18" class="text_box"><text fill="black" font-family="arial, helvetica, sans-serif" font-size="11" font-weight="bold"><tspan sqf:length="83" y="16" x="0">Documentation</tspan></text></svg></g><g transform="translate(20,23)"><svg width="500" height="24" class="text_box"><text fill="black" font-family="arial, helvetica, sans-serif" font-size="11"><tspan sqf:length="21" y="16" x="0">The </tspan><tspan sqf:length="32" y="16">match </tspan><tspan sqf:length="42" y="16">attribute </tspan><tspan sqf:length="39" y="16">defines </tspan><tspan sqf:length="37" y="16">anchor </tspan><tspan sqf:length="33" y="16">nodes </tspan><tspan sqf:length="17" y="16">for </tspan><tspan sqf:length="15" y="16">an </tspan><tspan sqf:length="37" y="16">activity </tspan><tspan sqf:length="40" y="16">element.</tspan></text></svg></g><g transform="translate(20,47)"><svg width="500" height="40" class="text_box"><text fill="black" font-family="arial, helvetica, sans-serif" font-size="11"><tspan sqf:length="19" y="16" x="0">For </tspan><tspan sqf:length="27" y="16">each </tspan><tspan sqf:length="44" y="16">selected </tspan><tspan sqf:length="37" y="16">anchor </tspan><tspan sqf:length="30" y="16">node, </tspan><tspan sqf:length="18" y="16">the </tspan><tspan sqf:length="49" y="16">command </tspan><tspan sqf:length="13" y="16">of </tspan><tspan sqf:length="18" y="16">the </tspan><tspan sqf:length="37" y="16">activity </tspan><tspan sqf:length="40" y="16">element </tspan><tspan sqf:length="19" y="16">will </tspan><tspan sqf:length="15" y="16">be </tspan><tspan sqf:length="51" y="16">executed. </tspan><tspan sqf:length="19" y="16">For </tspan><tspan sqf:length="27" y="16">each </tspan><tspan sqf:length="53" y="32" x="0">execution, </tspan><tspan sqf:length="18" y="32">the </tspan><tspan sqf:length="39" y="32">context </tspan><tspan sqf:length="19" y="32">will </tspan><tspan sqf:length="15" y="32">be </tspan><tspan sqf:length="18" y="32">set </tspan><tspan sqf:length="12" y="32">to </tspan><tspan sqf:length="18" y="32">the </tspan><tspan sqf:length="37" y="32">anchor </tspan><tspan sqf:length="27" y="32">node.</tspan></text></svg></g><g transform="translate(20,87)"><svg width="500" height="24" class="text_box"><text fill="black" font-family="arial, helvetica, sans-serif" font-size="11"><tspan sqf:length="53" y="16" x="0">Exception: </tspan><tspan sqf:length="21" y="16">The </tspan><tspan sqf:length="32" y="16">match </tspan><tspan sqf:length="42" y="16">attribute </tspan><tspan sqf:length="13" y="16">of </tspan><tspan sqf:length="18" y="16">the </tspan><tspan sqf:length="88" y="16">sqf:stringReplace </tspan><tspan sqf:length="40" y="16">element </tspan><tspan sqf:length="35" y="16">should </tspan><tspan sqf:length="23" y="16">only </tspan><tspan sqf:length="32" y="16">select </tspan><tspan sqf:length="21" y="16">text </tspan><tspan sqf:length="33" y="16">nodes.</tspan></text></svg></g><g transform="translate(20,111)"><svg width="500" height="18" class="text_box"><text fill="black" font-family="arial, helvetica, sans-serif" font-size="11" font-weight="bold"><tspan sqf:length="31" y="16" x="0">Value</tspan></text></svg></g><g transform="translate(20,129)"><svg width="500" height="24" class="text_box"><text fill="black" font-family="arial, helvetica, sans-serif" font-size="11"><tspan sqf:length="31" y="16" x="0">XPath </tspan><tspan sqf:length="60" y="16">expression. </tspan><tspan sqf:length="21" y="16">The </tspan><tspan sqf:length="39" y="16">context </tspan><tspan sqf:length="13" y="16">of </tspan><tspan sqf:length="38" y="16">relative </tspan><tspan sqf:length="63" y="16">expressions </tspan><tspan sqf:length="11" y="16">is </tspan><tspan sqf:length="18" y="16">the </tspan><tspan sqf:length="39" y="16">context </tspan><tspan sqf:length="13" y="16">of </tspan><tspan sqf:length="18" y="16">the </tspan><tspan sqf:length="36" y="16">related </tspan><tspan sqf:length="61" y="16">Schematron </tspan><tspan sqf:length="21" y="16">rule.</tspan></text></svg></g><g transform="translate(20,153)"><svg width="500" height="18" class="text_box"><text fill="black" font-family="arial, helvetica, sans-serif" font-size="11" font-weight="bold"><tspan sqf:length="38" y="16" x="0">Default</tspan></text></svg></g><g transform="translate(20,171)"><svg width="500" height="24" class="text_box"><text fill="black" font-family="arial, helvetica, sans-serif" font-size="11"><tspan sqf:length="16" y="16" x="0">By </tspan><tspan sqf:length="36" y="16">default </tspan><tspan sqf:length="18" y="16">the </tspan><tspan sqf:length="37" y="16">anchor </tspan><tspan sqf:length="27" y="16">node </tspan><tspan sqf:length="11" y="16">is </tspan><tspan sqf:length="18" y="16">the </tspan><tspan sqf:length="39" y="16">context </tspan><tspan sqf:length="27" y="16">node </tspan><tspan sqf:length="13" y="16">of </tspan><tspan sqf:length="18" y="16">the </tspan><tspan sqf:length="36" y="16">related </tspan><tspan sqf:length="61" y="16">Schematron </tspan><tspan sqf:length="21" y="16">rule.</tspan></text></svg></g></g></g></svg></g></svg></g></svg></g></g><g transform="translate(0, 72.5)"><svg xmlns:java="java:java.lang.Math" width="189" height="90" sqf:cY="45" class="objectPaths" sqf:multiValue="one"><path stroke="#007" stroke-width="1" fill="none" d="M 189 45 L 164 45"/><path stroke="#F5844C" stroke-width="1" fill="none" d="M 139 75 L 157 75 Q 164 75 164 68 L 164 45"/><g transform="translate(0,                                         60)"><svg width="139" height="30" sqf:cY="15" sqf:stroke="#F5844C"><g transform="translate(1,1)" id="modeld9e949_d9e997_parentOf_"><a xlink:href="#sqf_activityManipulate" target="_top"><path stroke="#F5844C" stoke-width="1" fill="white" d="M 0 28 L 0 10 Q 0 0 10 0 L 127 0 Q 137 0 137 10 L 137 28"/><path d="M 2.5 27 L 134.5 27" fill="none" stroke="#F5844C" stroke-width="0.25"/><g transform="translate(0, 2.5)"><svg width="139" height="25"><g transform="translate(3,3)"><rect width="5" height="5" x="6" y="3" fill="#F5844C" opacity="0.5"/><rect width="5" height="5" x="6" y="11" fill="#F5844C" opacity="0.5"/><rect width="5" height="5" x="14" y="11" fill="#F5844C" opacity="0.5"/><rect width="5" height="5" x="6" y="3" fill="none" stroke="#F5844C" stroke-width="0.75" opacity="1"/><rect width="5" height="5" x="6" y="11" fill="none" stroke="#F5844C" stroke-width="0.75" opacity="1"/><rect width="5" height="5" x="14" y="11" fill="none" stroke="#F5844C" stroke-width="0.75" opacity="1"/><text x="26" y="13" fill="black" font-family="arial, helvetica, sans-serif" font-size="11">sqf:activityManipulate</text></g></svg></g></a></g><g transform="translate(139, 2.5)"/></svg></g><path stroke="#007" stroke-width="1" fill="none" d="M 164 45 L 139 45"/><path stroke="#007" stroke-width="1" fill="none" d="M 164 45 L 164 45"/><g transform="translate(44,                                         30)"><svg width="95" height="30" sqf:cY="15"><g alignment-baseline="baseline" id="modeld9e949_d9e853_parentOf_" transform="translate( 0, 2.5)"><a xlink:href="#sqf_stringReplace" target="_top"><g><rect width="95" height="25" rx="10" ry="10" stroke="#007" stoke-width="1" fill="white"/></g><text x="5" y="16" fill="black" font-family="arial, helvetica, sans-serif" font-size="11">sqf:stringReplace</text></a></g><g transform="translate(95, 2.5)"><svg width="332" height="179" class="annotation"><g visibility="hidden" style="z-index:1000"><set attributeName="visibility" to="visible" begin="modeld9e949_d9e853_parentOf_.mouseover" end="modeld9e949_d9e853_parentOf_.mouseout" sqf:dokuViewer="modeld9e949_d9e853_parentOf_"/><g transform="translate(1,1)"><path d="M 17.5 0 Q 10 0 10 7.5 L 10 7.5 L 0 12.5 L 10 17.5 L 10 164.5 Q 10 172 17.5 172 L 322.5 172 Q 330 172 330 164.5 L 330 7.5 Q 330 0 322.5 0 Z" fill="white" opacity="1" stroke="#007" stroke-width="1"/><path d="M 17.5 0 Q 10 0 10 7.5 L 10 7.5 L 0 12.5 L 10 17.5 L 10 164.5 Q 10 172 17.5 172 L 322.5 172 Q 330 172 330 164.5 L 330 7.5 Q 330 0 322.5 0 Z" fill="#007" opacity="0.1" stroke="#007" stroke-width="1"/><path d="M 17.5 0 Q 10 0 10 7.5 L 10 7.5 L 0 12.5 L 10 17.5 L 10 164.5 Q 10 172 17.5 172 L 322.5 172 Q 330 172 330 164.5 L 330 7.5 Q 330 0 322.5 0 Z" fill="none" opacity="1" stroke="#007" stroke-width="1"/><g transform="translate(20,5)"><svg width="300" height="18" class="text_box"><text fill="black" font-family="arial, helvetica, sans-serif" font-size="11" font-weight="bold"><tspan sqf:length="83" y="16" x="0">Documentation</tspan></text></svg></g><g transform="translate(20,23)"><svg width="300" height="72" class="text_box"><text fill="black" font-family="arial, helvetica, sans-serif" font-size="11"><tspan sqf:length="23" y="16" x="0">This </tspan><tspan sqf:length="37" y="16">activity </tspan><tspan sqf:length="40" y="16">element </tspan><tspan sqf:length="45" y="16">replaces </tspan><tspan sqf:length="54" y="16">substrings </tspan><tspan sqf:length="13" y="16">of </tspan><tspan sqf:length="21" y="16">text </tspan><tspan sqf:length="33" y="16">nodes </tspan><tspan sqf:length="15" y="16">by </tspan><tspan sqf:length="28" y="32" x="0">other </tspan><tspan sqf:length="36" y="32">nodes. </tspan><tspan sqf:length="21" y="32">The </tspan><tspan sqf:length="21" y="32">text </tspan><tspan sqf:length="33" y="32">nodes </tspan><tspan sqf:length="19" y="32">are </tspan><tspan sqf:length="39" y="32">defined </tspan><tspan sqf:length="15" y="32">by </tspan><tspan sqf:length="18" y="32">the </tspan><tspan sqf:length="32" y="32">match </tspan><tspan sqf:length="45" y="48" x="0">attribute. </tspan><tspan sqf:length="21" y="48">The </tspan><tspan sqf:length="31" y="48">regex </tspan><tspan sqf:length="42" y="48">attribute </tspan><tspan sqf:length="39" y="48">defines </tspan><tspan sqf:length="18" y="48">the </tspan><tspan sqf:length="54" y="48">substrings </tspan><tspan sqf:length="13" y="48">of </tspan><tspan sqf:length="18" y="48">the </tspan><tspan sqf:length="21" y="64" x="0">text </tspan><tspan sqf:length="33" y="64">nodes.</tspan></text></svg></g><g transform="translate(20,95)"><svg width="300" height="72" class="text_box"><text fill="black" font-family="arial, helvetica, sans-serif" font-size="11"><tspan sqf:length="21" y="16" x="0">The </tspan><tspan sqf:length="33" y="16">nodes </tspan><tspan sqf:length="12" y="16">to </tspan><tspan sqf:length="15" y="16">be </tspan><tspan sqf:length="42" y="16">inserted </tspan><tspan sqf:length="19" y="16">are </tspan><tspan sqf:length="39" y="16">defined </tspan><tspan sqf:length="15" y="16">by </tspan><tspan sqf:length="18" y="16">the </tspan><tspan sqf:length="39" y="16">content </tspan><tspan sqf:length="13" y="16">of </tspan><tspan sqf:length="18" y="16">the </tspan><tspan sqf:length="88" y="32" x="0">sqf:stringReplace </tspan><tspan sqf:length="40" y="32">element </tspan><tspan sqf:length="13" y="32">or </tspan><tspan sqf:length="18" y="32">the </tspan><tspan sqf:length="32" y="32">select </tspan><tspan sqf:length="45" y="32">attribute. </tspan><tspan sqf:length="28" y="32">Note: </tspan><tspan sqf:length="21" y="32">The </tspan><tspan sqf:length="39" y="48" x="0">context </tspan><tspan sqf:length="32" y="48">within </tspan><tspan sqf:length="18" y="48">the </tspan><tspan sqf:length="88" y="48">sqf:stringReplace </tspan><tspan sqf:length="40" y="48">element </tspan><tspan sqf:length="11" y="48">is </tspan><tspan sqf:length="18" y="48">set </tspan><tspan sqf:length="12" y="48">to </tspan><tspan sqf:length="18" y="48">the </tspan><tspan sqf:length="57" y="64" x="0">substrings. </tspan><tspan sqf:length="19" y="64">So, </tspan><tspan sqf:length="8" y="64">it </tspan><tspan sqf:length="11" y="64">is </tspan><tspan sqf:length="15" y="64">an </tspan><tspan sqf:length="34" y="64">atomic </tspan><tspan sqf:length="29" y="64">value.</tspan></text></svg></g></g></g></svg></g></svg></g><path stroke="#007" stroke-width="1" fill="none" d="M 139 15 L 157 15 Q 164 15 164 22 L 164 45"/><g transform="translate(81,                                         0)"><svg width="58" height="30" sqf:cY="15"><g alignment-baseline="baseline" id="modeld9e949_d9e756_parentOf_" transform="translate( 0, 2.5)"><a xlink:href="#sqf_delete" target="_top"><g><rect width="58" height="25" rx="10" ry="10" stroke="#007" stoke-width="1" fill="white"/></g><text x="5" y="16" fill="black" font-family="arial, helvetica, sans-serif" font-size="11">sqf:delete</text></a></g><g transform="translate(58, 2.5)"><svg width="332" height="99" class="annotation"><g visibility="hidden" style="z-index:1000"><set attributeName="visibility" to="visible" begin="modeld9e949_d9e756_parentOf_.mouseover" end="modeld9e949_d9e756_parentOf_.mouseout" sqf:dokuViewer="modeld9e949_d9e756_parentOf_"/><g transform="translate(1,1)"><path d="M 17.5 0 Q 10 0 10 7.5 L 10 7.5 L 0 12.5 L 10 17.5 L 10 84.5 Q 10 92 17.5 92 L 322.5 92 Q 330 92 330 84.5 L 330 7.5 Q 330 0 322.5 0 Z" fill="white" opacity="1" stroke="#007" stroke-width="1"/><path d="M 17.5 0 Q 10 0 10 7.5 L 10 7.5 L 0 12.5 L 10 17.5 L 10 84.5 Q 10 92 17.5 92 L 322.5 92 Q 330 92 330 84.5 L 330 7.5 Q 330 0 322.5 0 Z" fill="#007" opacity="0.1" stroke="#007" stroke-width="1"/><path d="M 17.5 0 Q 10 0 10 7.5 L 10 7.5 L 0 12.5 L 10 17.5 L 10 84.5 Q 10 92 17.5 92 L 322.5 92 Q 330 92 330 84.5 L 330 7.5 Q 330 0 322.5 0 Z" fill="none" opacity="1" stroke="#007" stroke-width="1"/><g transform="translate(20,5)"><svg width="300" height="18" class="text_box"><text fill="black" font-family="arial, helvetica, sans-serif" font-size="11" font-weight="bold"><tspan sqf:length="83" y="16" x="0">Documentation</tspan></text></svg></g><g transform="translate(20,23)"><svg width="300" height="40" class="text_box"><text fill="black" font-family="arial, helvetica, sans-serif" font-size="11"><tspan sqf:length="23" y="16" x="0">This </tspan><tspan sqf:length="37" y="16">activity </tspan><tspan sqf:length="40" y="16">element </tspan><tspan sqf:length="38" y="16">deletes </tspan><tspan sqf:length="21" y="16">one </tspan><tspan sqf:length="13" y="16">or </tspan><tspan sqf:length="27" y="16">more </tspan><tspan sqf:length="33" y="16">nodes </tspan><tspan sqf:length="13" y="16">of </tspan><tspan sqf:length="18" y="16">the </tspan><tspan sqf:length="24" y="16">XML </tspan><tspan sqf:length="44" y="32" x="0">instance.</tspan></text></svg></g><g transform="translate(20,63)"><svg width="300" height="24" class="text_box"><text fill="black" font-family="arial, helvetica, sans-serif" font-size="11"><tspan sqf:length="21" y="16" x="0">The </tspan><tspan sqf:length="32" y="16">match </tspan><tspan sqf:length="42" y="16">attribute </tspan><tspan sqf:length="39" y="16">defines </tspan><tspan sqf:length="18" y="16">the </tspan><tspan sqf:length="33" y="16">nodes </tspan><tspan sqf:length="12" y="16">to </tspan><tspan sqf:length="15" y="16">be </tspan><tspan sqf:length="38" y="16">deleted.</tspan></text></svg></g></g></g></svg></g></svg></g></svg></g></svg>