<?xml version="1.0" encoding="UTF-8"?><svg xmlns:saxon="http://saxon.sf.net/" xmlns:sqf="http://www.schematron-quickfix.com/validator/process" xmlns:svg="http://www.w3.org/2000/svg" xmlns:d2t="java:com.d2t.saxon.d2tSaxonExtensions" xmlns:xlink="http://www.w3.org/1999/xlink" xmlns="http://www.w3.org/2000/svg" xmlns:xsi="http://www.w3.org/2001/XMLSchema-instance" width="10" height="243.5" id="modeld9e497_sqf_with-param" sqf:cY="159.25" sqf:displayW="332" sqf:displayH="117"><desc/><g alignment-baseline="baseline" transform="translate(86, 146.75)" id="modeld9e497_elementRef_d9e497"><g><rect width="84" height="25" rx="10" ry="10" stroke="#007" stoke-width="1" fill="#88f"/></g><text x="5" y="16" fill="white" font-family="arial, helvetica, sans-serif" font-size="11">sqf:with-param</text></g><g transform="translate(170, 0)"><svg xmlns:java="java:java.lang.Math" width="308.5" height="243.5" sqf:cY="159.25" class="objectPaths" sqf:multiValue="one"><path stroke="#007" stroke-width="1" fill="none" d="M 0 159.25 L 25 159.25"/><path stroke="#007" stroke-width="1" fill="none" d="M 50 227 L 32 227 Q 26.5 227 26.5 221.5 L 26.5 159.25" stroke-dasharray="5,5"/><path stroke="#007" stroke-width="1" fill="none" d="M 50 230 L 32 230 Q 23.5 230 23.5 221.5 L 23.5 159.25" stroke-dasharray="5,5"/><g transform="translate(50,                                         213.5)"><svg width="75" height="30" class="choice" sqf:cY="15" sqf:multiValue="zeroOrMore"><g transform="translate(0,5)"><svg width="20" height="23.5" sqf:cYTop="0" sqf:cXTop="10" sqf:cYRight="10" sqf:cXRight="20" sqf:cYBottom="20" sqf:cXBottom="10" sqf:cY="10"><g><circle r="9.5" stroke="#007" stroke-width="0.33" cx="10" cy="13.5" fill="white" stroke-dashoffset="2" stroke-dasharray="2"/><circle r="9.5" stroke="#007" stroke-width="0.66" cx="10" cy="12" fill="white" stroke-dashoffset="2" stroke-dasharray="2"/><circle r="9.5" stroke="#007" stroke-width="1" cx="10" cy="10" fill="white" stroke-dashoffset="2" stroke-dasharray="2"/><g><path d="M 0 10                          L 3 10                          L 3 6                          L 6 6                         M 3 10                         L 3 14                         L 6 14" stroke="#007" fill="none" stroke-width="0.75"/><g transform="translate(6, 4)"><rect width="8" height="4" fill="#88f" stroke-width="1" stroke="#007"/></g><g transform="translate(6, 12)"><rect width="8" height="4" fill="#88f" stroke-width="1" stroke="#007"/></g><path d="M 20 10                                  L 17 10                                  L 17 6                                  L 14 6                                 M 17 10                                 L 17 14                                 L 14 14" stroke="#007" fill="none" stroke-width="0.75"/></g></g></svg></g><g transform="translate(20,0)"><svg width="55" height="30" sqf:cY="15" class="objectPaths" sqf:multiValue="one"><path stroke="#007" stroke-width="1" fill="none" d="M 0 15 L 15 15"/><g transform="translate(15,                                         0)"><svg width="40" height="30" class="element_ref" sqf:cY="15" sqf:displayW="0" sqf:displayH="0" sqf:multiValue="one" sqf:minOccurs="1" sqf:maxOccurs="1"><desc/><g alignment-baseline="baseline" class="svg-element-ref" transform="translate(0, 2.5)"><g id="modeld9e497_elementRef_d9e524"><rect height="25" width="40" rx="10" ry="10" stroke="#007" stoke-width="1" fill="white"/><text x="5" y="16" fill="black" font-family="arial, helvetica, sans-serif" font-size="11">##any</text></g></g><g transform="translate(40, 0)" sqf:z-index="0"/></svg></g></svg></g></svg></g><path stroke="#F5844C" stroke-width="1" fill="none" d="M 50 90 L 32 90 Q 25 90 25 97 L 25 159.25"/><g transform="translate(50,                                         0)"><svg width="258.5" height="213.5" class="attribute_box" sqf:cY="90" sqf:multiValue="one" sqf:stroke="#F5844C"><g transform="translate(0, 2.5)"><rect height="208.5" width="258.5" rx="10" ry="10" stroke="#F5844C" stoke-width="1" fill="white"/><g transform="translate(0, 2.5)"><svg width="256" height="203.5" sqf:cY="85" class="objectPaths" sqf:multiValue="one"><path stroke="#F5844C" stroke-width="1" fill="none" d="M 0 85 L 25 85"/><path stroke="#F5844C" stroke-width="1" fill="none" d="M 50 155 L 32 155 Q 25 155 25 148 L 25 85"/><g transform="translate(50,                                         60)"><svg width="206" height="143.5" sqf:cY="95" sqf:displayW="0" sqf:displayH="0" class="element_group" sqf:multiValue="one"><g transform="translate(0, 5)" id="modeld9e497_group_d9e551"><rect width="201" height="133.5" rx="7" ry="7" fill="white" stroke="#007" stroke-width="1"/><rect width="201" height="133.5" rx="7" ry="7" fill="white" stroke="#007" stroke-width="1"/><a xlink:href="#sch_foreign" target="_top"><svg width="90" height="25"><g transform="translate(3,3)"><rect width="5" height="5" x="6" y="3" fill="#007" opacity="0.5"/><rect width="5" height="5" x="6" y="11" fill="#007" opacity="0.5"/><rect width="5" height="5" x="14" y="11" fill="#007" opacity="0.5"/><rect width="5" height="5" x="6" y="3" fill="none" stroke="#007" stroke-width="0.75" opacity="1"/><rect width="5" height="5" x="6" y="11" fill="none" stroke="#007" stroke-width="0.75" opacity="1"/><rect width="5" height="5" x="14" y="11" fill="none" stroke="#007" stroke-width="0.75" opacity="1"/><text x="26" y="13" fill="black" font-family="arial, helvetica, sans-serif" font-size="11">sch:foreign</text></g></svg><path d="M 2.5 25 L 198.5 25" fill="none" stroke="#007" stroke-width="0.25"/></a><g transform="translate(199.5, 0)" sqf:z-index="0"/><g transform="translate(0, 27.5)"><svg width="198.5" height="103.5" sqf:cY="62.5" class="objectPaths" sqf:multiValue="one"><path stroke="#007" stroke-width="1" fill="none" d="M 0 62.5 L 25 62.5"/><g transform="translate(25,                                         0)"><svg width="173.5" height="103.5" class="sequence" sqf:cY="62.5" sqf:multiValue="one" sqf:minOccurs="1" sqf:maxOccurs="1"><g transform="translate(0,52.5)"><svg width="20" height="20" sqf:cY="10"><g><circle r="9.5" stroke="#007" stroke-width="1" cx="10" cy="10" fill="white"/><g><path d="M 0 10                          L 3 10                         M 8.5 10                         L 11.5 10                         M 17 10                         L 20 10" stroke="#007" fill="none" stroke-width="0.75"/><g transform="translate(3, 8)"><rect width="5.5" height="4" fill="#88f" stroke-width="1" stroke="#007"/></g><g transform="translate(11.5, 8)"><rect width="5.5" height="4" fill="#88f" stroke-width="1" stroke="#007"/></g></g></g></svg></g><g transform="translate(20,0)"><svg width="153.5" height="103.5" sqf:cY="62.5" class="objectPaths" sqf:multiValue="zeroOrMore"><path stroke="#007" stroke-width="1" fill="none" d="M 0 61 L 15 61" stroke-dasharray="3,3"/><path stroke="#007" stroke-width="1" fill="none" d="M 0 64 L 15 64" stroke-dasharray="3,3"/><g transform="translate(15,                                         0)"><svg width="138.5" height="103.5" sqf:cY="62.5" sqf:displayW="0" sqf:displayH="0" class="element_group" sqf:multiValue="zeroOrMore"><g transform="translate(0, 5)" id="modeld9e497_group_d5e538"><rect width="133.5" height="90" rx="7" ry="7" fill="white" stroke="#007" stroke-width="0.33" stroke-dashoffset="2" stroke-dasharray="2" y="3.5"/><rect width="133.5" height="90" rx="7" ry="7" fill="white" stroke="#007" stroke-width="0.66" stroke-dashoffset="2" stroke-dasharray="2" y="2"/><rect width="133.5" height="90" rx="7" ry="7" fill="white" stroke="#007" stroke-width="1" stroke-dashoffset="2" stroke-dasharray="2"/><rect width="133.5" height="90" rx="7" ry="7" fill="white" stroke="#007" stroke-width="1"/><a xlink:href="#sch_foreign-element" target="_top"><svg width="131" height="25"><g transform="translate(3,3)"><rect width="5" height="5" x="6" y="3" fill="#007" opacity="0.5"/><rect width="5" height="5" x="6" y="11" fill="#007" opacity="0.5"/><rect width="5" height="5" x="14" y="11" fill="#007" opacity="0.5"/><rect width="5" height="5" x="6" y="3" fill="none" stroke="#007" stroke-width="0.75" opacity="1"/><rect width="5" height="5" x="6" y="11" fill="none" stroke="#007" stroke-width="0.75" opacity="1"/><rect width="5" height="5" x="14" y="11" fill="none" stroke="#007" stroke-width="0.75" opacity="1"/><text x="26" y="13" fill="black" font-family="arial, helvetica, sans-serif" font-size="11">sch:foreign-element</text></g></svg><path d="M 2.5 25 L 131 25" fill="none" stroke="#007" stroke-width="0.25"/></a><g transform="translate(132, 0)" sqf:z-index="0"/><g transform="translate(0, 27.5)"><svg width="107" height="60" sqf:cY="30" class="objectPaths" sqf:multiValue="one"><path stroke="#007" stroke-width="1" fill="none" d="M 0 30 L 25 30"/><g transform="translate(25,                                         0)"><svg width="82" height="60" class="choice" sqf:cY="30" sqf:multiValue="one"><g transform="translate(0,20)"><svg width="20" height="20" sqf:cYTop="0" sqf:cXTop="10" sqf:cYRight="10" sqf:cXRight="20" sqf:cYBottom="20" sqf:cXBottom="10"><g><circle r="9.5" stroke="#007" stroke-width="1" cx="10" cy="10" fill="white"/><g><path d="M 0 10                          L 3 10                          L 3 6                          L 6 6                         M 3 10                         L 3 14                         L 6 14" stroke="#007" fill="none" stroke-width="0.75"/><g transform="translate(6, 4)"><rect width="8" height="4" fill="#88f" stroke-width="1" stroke="#007"/></g><g transform="translate(6, 12)"><rect width="8" height="4" fill="#88f" stroke-width="1" stroke="#007"/></g><path d="M 10 0                                  L 10 4" stroke="#007" fill="none" stroke-width="0.75"/><path d="M 10 16                                  L 10 20" stroke="#007" fill="none" stroke-width="0.75"/></g></g></svg></g><g transform="translate(20,30)"><svg width="59" height="30" sqf:cY="15" class="objectPaths" sqf:multiValue="one"><path stroke="#007" stroke-width="1" fill="none" d="M 0 15 L 15 15"/><g transform="translate(15,                                         0)"><svg width="44" height="30" class="element_ref" sqf:cY="15" sqf:displayW="0" sqf:displayH="0" sqf:multiValue="one" sqf:minOccurs="1" sqf:maxOccurs="1"><desc/><g alignment-baseline="baseline" class="svg-element-ref" transform="translate(0, 2.5)"><g id="modeld9e497_elementRef_d5e567"><rect height="25" width="44" rx="10" ry="10" stroke="#007" stoke-width="1" fill="white"/><text x="5" y="16" fill="black" font-family="arial, helvetica, sans-serif" font-size="11">##local</text></g></g><g transform="translate(44, 0)" sqf:z-index="0"/></svg></g></svg></g><g transform="translate(20,0)"><svg width="62" height="30" sqf:cY="15" class="objectPaths" sqf:multiValue="one"><path stroke="#007" stroke-width="1" fill="none" d="M 0 15 L 15 15"/><g transform="translate(15,                                         0)"><svg width="47" height="30" class="element_ref" sqf:cY="15" sqf:displayW="0" sqf:displayH="0" sqf:multiValue="one" sqf:minOccurs="1" sqf:maxOccurs="1"><desc/><g alignment-baseline="baseline" class="svg-element-ref" transform="translate(0, 2.5)"><g id="modeld9e497_elementRef_d5e563"><rect height="25" width="47" rx="10" ry="10" stroke="#007" stoke-width="1" fill="white"/><text x="5" y="16" fill="black" font-family="arial, helvetica, sans-serif" font-size="11">##other</text></g></g><g transform="translate(47, 0)" sqf:z-index="0"/></svg></g></svg></g><path fill="none" stroke-width="1" stroke="#007" d="M 10 20 L 10 22 Q 10 15 17 15 L 20 15"/><path fill="none" stroke-width="1" stroke="#007" d="M 10 40 L 10 38 Q 10 45 17 45 L 20 45"/></svg></g></svg></g></g><g transform="translate(0, 62.5)"/></svg></g></svg></g></svg></g></svg></g></g><g transform="translate(0, 95)"/></svg></g><path stroke="#F5844C" stroke-width="1" fill="none" d="M 25 45 L 50 45" stroke-dasharray="5,5"/><path stroke="#F5844C" stroke-width="1" fill="none" d="M 25 45 L 25 85"/><g transform="translate(50,                                         30)"><svg width="58" height="30" sqf:cY="15" class="attribute" id="modeld9e497_attribute_sqf_select" sqf:displayW="332" sqf:displayH="103" sqf:multiValue="zeroOrOne"><desc/><g alignment-baseline="baseline" transform="translate(0, 2.5)" id="modeld9e497_attributName_d9e536"><g><rect height="25" width="58" rx="10" ry="10" stroke="#F5844C" stoke-width="1" fill="white" stroke-dasharray="5,5"/></g><text x="5" y="16" fill="black" font-family="arial, helvetica, sans-serif" font-size="11">sqf:select</text></g><g transform="translate(58, 0)" sqf:z-index="0"><svg width="332" height="133" class="annotation"><g visibility="hidden" style="z-index:1000"><set attributeName="visibility" to="visible" begin="modeld9e497_attributName_d9e536.mouseover" end="modeld9e497_attributName_d9e536.mouseout" sqf:dokuViewer="modeld9e497_attributName_d9e536"/><g transform="translate(1,1)"><path d="M 20 0 Q 10 0 10 10 L 10 10 L 0 15 L 10 20 L 10 116 Q 10 126 20 126 L 320 126 Q 330 126 330 116 L 330 10 Q 330 0 320 0 Z" fill="white" opacity="1" stroke="#F5844C" stroke-width="1"/><path d="M 20 0 Q 10 0 10 10 L 10 10 L 0 15 L 10 20 L 10 116 Q 10 126 20 126 L 320 126 Q 330 126 330 116 L 330 10 Q 330 0 320 0 Z" fill="#F5844C" opacity="0.1" stroke="#F5844C" stroke-width="1"/><path d="M 20 0 Q 10 0 10 10 L 10 10 L 0 15 L 10 20 L 10 116 Q 10 126 20 126 L 320 126 Q 330 126 330 116 L 330 10 Q 330 0 320 0 Z" fill="none" opacity="1" stroke="#F5844C" stroke-width="1"/><g transform="translate(20,5)"><svg width="300" height="18" class="text_box"><text fill="black" font-family="arial, helvetica, sans-serif" font-size="11" font-weight="bold"><tspan sqf:length="83" y="16" x="0">Documentation</tspan></text></svg></g><g transform="translate(20,23)"><svg width="300" height="56" class="text_box"><text fill="black" font-family="arial, helvetica, sans-serif" font-size="11"><tspan sqf:length="23" y="16" x="0">This </tspan><tspan sqf:length="42" y="16">attribute </tspan><tspan sqf:length="39" y="16">defines </tspan><tspan sqf:length="24" y="16">with </tspan><tspan sqf:length="9" y="16">a </tspan><tspan sqf:length="31" y="16">XPath </tspan><tspan sqf:length="57" y="16">expression </tspan><tspan sqf:length="18" y="16">the </tspan><tspan sqf:length="29" y="16">value </tspan><tspan sqf:length="13" y="16">of </tspan><tspan sqf:length="18" y="32" x="0">the </tspan><tspan sqf:length="55" y="32">parameter. </tspan><tspan sqf:length="9" y="32">If </tspan><tspan sqf:length="18" y="32">the </tspan><tspan sqf:length="42" y="32">attribute </tspan><tspan sqf:length="11" y="32">is </tspan><tspan sqf:length="21" y="32">set, </tspan><tspan sqf:length="18" y="32">the </tspan><tspan sqf:length="44" y="32">sqf:with-</tspan><tspan sqf:length="33" y="32">param </tspan><tspan sqf:length="40" y="48" x="0">element </tspan><tspan sqf:length="26" y="48">must </tspan><tspan sqf:length="15" y="48">be </tspan><tspan sqf:length="32" y="48">empty.</tspan></text></svg></g><g transform="translate(20,79)"><svg width="300" height="18" class="text_box"><text fill="black" font-family="arial, helvetica, sans-serif" font-size="11" font-weight="bold"><tspan sqf:length="31" y="16" x="0">Value</tspan></text></svg></g><g transform="translate(20,97)"><svg width="300" height="24" class="text_box"><text fill="black" font-family="arial, helvetica, sans-serif" font-size="11"><tspan sqf:length="26" y="16" x="0">Must </tspan><tspan sqf:length="15" y="16">be </tspan><tspan sqf:length="9" y="16">a </tspan><tspan sqf:length="25" y="16">valid </tspan><tspan sqf:length="31" y="16">XPath </tspan><tspan sqf:length="57" y="16">expression.</tspan></text></svg></g></g></g></svg></g></svg></g><path stroke="#F5844C" stroke-width="1" fill="none" d="M 50 15 L 32 15 Q 25 15 25 22 L 25 45"/><g transform="translate(50,                                         0)"><svg width="55" height="30" sqf:cY="15" class="attribute" id="modeld9e497_attribute_sqf_name" sqf:displayW="332" sqf:displayH="29" sqf:multiValue="one"><desc/><g alignment-baseline="baseline" transform="translate(0, 2.5)" id="modeld9e497_attributName_d9e527"><g><rect height="25" width="55" rx="10" ry="10" stroke="#F5844C" stoke-width="1" fill="white"/></g><text x="5" y="16" fill="black" font-family="arial, helvetica, sans-serif" font-size="11">sqf:name</text></g><g transform="translate(55, 0)" sqf:z-index="0"><svg width="332" height="59" class="annotation"><g visibility="hidden" style="z-index:1000"><set attributeName="visibility" to="visible" begin="modeld9e497_attributName_d9e527.mouseover" end="modeld9e497_attributName_d9e527.mouseout" sqf:dokuViewer="modeld9e497_attributName_d9e527"/><g transform="translate(1,1)"><path d="M 20 0 Q 10 0 10 10 L 10 10 L 0 15 L 10 20 L 10 42 Q 10 52 20 52 L 320 52 Q 330 52 330 42 L 330 10 Q 330 0 320 0 Z" fill="white" opacity="1" stroke="#F5844C" stroke-width="1"/><path d="M 20 0 Q 10 0 10 10 L 10 10 L 0 15 L 10 20 L 10 42 Q 10 52 20 52 L 320 52 Q 330 52 330 42 L 330 10 Q 330 0 320 0 Z" fill="#F5844C" opacity="0.1" stroke="#F5844C" stroke-width="1"/><path d="M 20 0 Q 10 0 10 10 L 10 10 L 0 15 L 10 20 L 10 42 Q 10 52 20 52 L 320 52 Q 330 52 330 42 L 330 10 Q 330 0 320 0 Z" fill="none" opacity="1" stroke="#F5844C" stroke-width="1"/><g transform="translate(20,5)"><svg width="300" height="18" class="text_box"><text fill="black" font-family="arial, helvetica, sans-serif" font-size="11" font-weight="bold"><tspan sqf:length="31" y="16" x="0">Value</tspan></text></svg></g><g transform="translate(20,23)"><svg width="300" height="24" class="text_box"><text fill="black" font-family="arial, helvetica, sans-serif" font-size="11"><tspan sqf:length="21" y="16" x="0">The </tspan><tspan sqf:length="29" y="16">name </tspan><tspan sqf:length="13" y="16">of </tspan><tspan sqf:length="18" y="16">the </tspan><tspan sqf:length="43" y="16">referred </tspan><tspan sqf:length="52" y="16">parameter.</tspan></text></svg></g></g></g></svg></g></svg></g></svg></g></g></svg></g></svg></g><g transform="translate(170, 144.25)"><svg width="332" height="147" class="annotation"><g visibility="hidden" style="z-index:1000"><set attributeName="visibility" to="visible" begin="modeld9e497_elementRef_d9e497.mouseover" end="modeld9e497_elementRef_d9e497.mouseout" sqf:dokuViewer="modeld9e497_elementRef_d9e497"/><g transform="translate(1,1)"><path d="M 17.5 0 Q 10 0 10 7.5 L 10 7.5 L 0 12.5 L 10 17.5 L 10 132.5 Q 10 140 17.5 140 L 322.5 140 Q 330 140 330 132.5 L 330 7.5 Q 330 0 322.5 0 Z" fill="white" opacity="1" stroke="#007" stroke-width="1"/><path d="M 17.5 0 Q 10 0 10 7.5 L 10 7.5 L 0 12.5 L 10 17.5 L 10 132.5 Q 10 140 17.5 140 L 322.5 140 Q 330 140 330 132.5 L 330 7.5 Q 330 0 322.5 0 Z" fill="#007" opacity="0.1" stroke="#007" stroke-width="1"/><path d="M 17.5 0 Q 10 0 10 7.5 L 10 7.5 L 0 12.5 L 10 17.5 L 10 132.5 Q 10 140 17.5 140 L 322.5 140 Q 330 140 330 132.5 L 330 7.5 Q 330 0 322.5 0 Z" fill="none" opacity="1" stroke="#007" stroke-width="1"/><g transform="translate(20,5)"><svg xmlns:java="java:java.lang.Math" width="300" height="18" class="text_box"><text fill="black" font-family="arial, helvetica, sans-serif" font-size="11" font-weight="bold"><tspan sqf:length="83" y="16" x="0">Documentation</tspan></text></svg></g><g transform="translate(20,23)"><svg xmlns:java="java:java.lang.Math" width="300" height="56" class="text_box"><text fill="black" font-family="arial, helvetica, sans-serif" font-size="11"><tspan sqf:length="24" y="16" x="0">With </tspan><tspan sqf:length="18" y="16">the </tspan><tspan sqf:length="23" y="16">help </tspan><tspan sqf:length="13" y="16">of </tspan><tspan sqf:length="20" y="16">this </tspan><tspan sqf:length="43" y="16">element, </tspan><tspan sqf:length="44" y="16">QuickFix </tspan><tspan sqf:length="25" y="16">calls </tspan><tspan sqf:length="21" y="16">can </tspan><tspan sqf:length="15" y="16">be </tspan><tspan sqf:length="50" y="16">specified. </tspan><tspan sqf:length="11" y="32" x="0">A </tspan><tspan sqf:length="44" y="32">sqf:with-</tspan><tspan sqf:length="33" y="32">param </tspan><tspan sqf:length="40" y="32">element </tspan><tspan sqf:length="33" y="32">refers </tspan><tspan sqf:length="12" y="32">to </tspan><tspan sqf:length="9" y="32">a </tspan><tspan sqf:length="52" y="32">parameter </tspan><tspan sqf:length="13" y="32">of </tspan><tspan sqf:length="18" y="32">the </tspan><tspan sqf:length="31" y="32">called </tspan><tspan sqf:length="44" y="48" x="0">QuickFix.</tspan></text></svg></g><g transform="translate(20,79)"><svg xmlns:java="java:java.lang.Math" width="300" height="56" class="text_box"><text fill="black" font-family="arial, helvetica, sans-serif" font-size="11"><tspan sqf:length="21" y="16" x="0">The </tspan><tspan sqf:length="39" y="16">content </tspan><tspan sqf:length="13" y="16">or </tspan><tspan sqf:length="18" y="16">the </tspan><tspan sqf:length="32" y="16">select </tspan><tspan sqf:length="42" y="16">attribute </tspan><tspan sqf:length="33" y="16">define </tspan><tspan sqf:length="18" y="16">the </tspan><tspan sqf:length="29" y="16">value </tspan><tspan sqf:length="13" y="16">of </tspan><tspan sqf:length="18" y="16">the </tspan><tspan sqf:length="55" y="32" x="0">parameter. </tspan><tspan sqf:length="9" y="32">If </tspan><tspan sqf:length="28" y="32">there </tspan><tspan sqf:length="11" y="32">is </tspan><tspan sqf:length="42" y="32">content, </tspan><tspan sqf:length="18" y="32">the </tspan><tspan sqf:length="44" y="32">sqf:with-</tspan><tspan sqf:length="33" y="32">param </tspan><tspan sqf:length="40" y="32">element </tspan><tspan sqf:length="35" y="48" x="0">should </tspan><tspan sqf:length="18" y="48">not </tspan><tspan sqf:length="27" y="48">have </tspan><tspan sqf:length="9" y="48">a </tspan><tspan sqf:length="32" y="48">select </tspan><tspan sqf:length="42" y="48">attribute.</tspan></text></svg></g></g></g></svg></g><g transform="translate(0,144.25)"><svg xmlns:java="java:java.lang.Math" width="86" height="30" sqf:cY="15" class="objectPaths" sqf:multiValue="one"><path stroke="#007" stroke-width="1" fill="none" d="M 86 15 L 61 15"/><g transform="translate(0,                                         0)"><svg width="61" height="30" sqf:cY="15"><g alignment-baseline="baseline" id="modeld9e497_d9e459_parentOf_" transform="translate( 0, 2.5)"><a xlink:href="#sqf_call-fix" target="_top"><g><rect width="61" height="25" rx="10" ry="10" stroke="#007" stoke-width="1" fill="white"/></g><text x="5" y="16" fill="black" font-family="arial, helvetica, sans-serif" font-size="11">sqf:call-fix</text></a></g><g transform="translate(61, 2.5)"><svg width="532" height="155" class="annotation"><g visibility="hidden" style="z-index:1000"><set attributeName="visibility" to="visible" begin="modeld9e497_d9e459_parentOf_.mouseover" end="modeld9e497_d9e459_parentOf_.mouseout" sqf:dokuViewer="modeld9e497_d9e459_parentOf_"/><g transform="translate(1,1)"><path d="M 17.5 0 Q 10 0 10 7.5 L 10 7.5 L 0 12.5 L 10 17.5 L 10 140.5 Q 10 148 17.5 148 L 522.5 148 Q 530 148 530 140.5 L 530 7.5 Q 530 0 522.5 0 Z" fill="white" opacity="1" stroke="#007" stroke-width="1"/><path d="M 17.5 0 Q 10 0 10 7.5 L 10 7.5 L 0 12.5 L 10 17.5 L 10 140.5 Q 10 148 17.5 148 L 522.5 148 Q 530 148 530 140.5 L 530 7.5 Q 530 0 522.5 0 Z" fill="#007" opacity="0.1" stroke="#007" stroke-width="1"/><path d="M 17.5 0 Q 10 0 10 7.5 L 10 7.5 L 0 12.5 L 10 17.5 L 10 140.5 Q 10 148 17.5 148 L 522.5 148 Q 530 148 530 140.5 L 530 7.5 Q 530 0 522.5 0 Z" fill="none" opacity="1" stroke="#007" stroke-width="1"/><g transform="translate(20,5)"><svg width="500" height="18" class="text_box"><text fill="black" font-family="arial, helvetica, sans-serif" font-size="11" font-weight="bold"><tspan sqf:length="83" y="16" x="0">Documentation</tspan></text></svg></g><g transform="translate(20,23)"><svg width="500" height="56" class="text_box"><text fill="black" font-family="arial, helvetica, sans-serif" font-size="11"><tspan sqf:length="23" y="16" x="0">This </tspan><tspan sqf:length="40" y="16">element </tspan><tspan sqf:length="25" y="16">calls </tspan><tspan sqf:length="40" y="16">another </tspan><tspan sqf:length="44" y="16">QuickFix </tspan><tspan sqf:length="32" y="16">within </tspan><tspan sqf:length="9" y="16">a </tspan><tspan sqf:length="47" y="16">QuickFix. </tspan><tspan sqf:length="21" y="16">The </tspan><tspan sqf:length="31" y="16">called </tspan><tspan sqf:length="44" y="16">QuickFix </tspan><tspan sqf:length="26" y="16">must </tspan><tspan sqf:length="15" y="16">be </tspan><tspan sqf:length="39" y="16">defined </tspan><tspan sqf:length="39" y="16">globally </tspan><tspan sqf:length="13" y="16">or </tspan><tspan sqf:length="17" y="32" x="0">for </tspan><tspan sqf:length="18" y="32">the </tspan><tspan sqf:length="29" y="32">same </tspan><tspan sqf:length="61" y="32">Schematron </tspan><tspan sqf:length="21" y="32">rule </tspan><tspan sqf:length="15" y="32">as </tspan><tspan sqf:length="18" y="32">the </tspan><tspan sqf:length="33" y="32">calling </tspan><tspan sqf:length="47" y="32">QuickFix. </tspan><tspan sqf:length="11" y="32">A </tspan><tspan sqf:length="33" y="32">calling </tspan><tspan sqf:length="44" y="32">QuickFix </tspan><tspan sqf:length="35" y="32">should </tspan><tspan sqf:length="18" y="32">not </tspan><tspan sqf:length="27" y="32">have </tspan><tspan sqf:length="28" y="32">other </tspan><tspan sqf:length="37" y="32">activity </tspan><tspan sqf:length="46" y="48" x="0">elements.</tspan></text></svg></g><g transform="translate(20,79)"><svg width="500" height="40" class="text_box"><text fill="black" font-family="arial, helvetica, sans-serif" font-size="11"><tspan sqf:length="21" y="16" x="0">The </tspan><tspan sqf:length="33" y="16">calling </tspan><tspan sqf:length="44" y="16">QuickFix </tspan><tspan sqf:length="36" y="16">adopts </tspan><tspan sqf:length="18" y="16">the </tspan><tspan sqf:length="37" y="16">activity </tspan><tspan sqf:length="46" y="16">elements </tspan><tspan sqf:length="13" y="16">of </tspan><tspan sqf:length="18" y="16">the </tspan><tspan sqf:length="31" y="16">called </tspan><tspan sqf:length="47" y="16">QuickFix. </tspan><tspan sqf:length="24" y="16">With </tspan><tspan sqf:length="18" y="16">the </tspan><tspan sqf:length="23" y="16">help </tspan><tspan sqf:length="13" y="16">of </tspan><tspan sqf:length="61" y="16">parameters, </tspan><tspan sqf:length="30" y="32" x="0">these </tspan><tspan sqf:length="21" y="32">can </tspan><tspan sqf:length="15" y="32">be </tspan><tspan sqf:length="47" y="32">specified </tspan><tspan sqf:length="25" y="32">(see </tspan><tspan sqf:length="44" y="32">sqf:with-</tspan><tspan sqf:length="37" y="32">param).</tspan></text></svg></g><g transform="translate(20,119)"><svg width="500" height="24" class="text_box"><text fill="black" font-family="arial, helvetica, sans-serif" font-size="11"><tspan sqf:length="21" y="16" x="0">The </tspan><tspan sqf:length="56" y="16">description </tspan><tspan sqf:length="21" y="16">and </tspan><tspan sqf:length="28" y="16">other </tspan><tspan sqf:length="75" y="16">characteristics </tspan><tspan sqf:length="25" y="16">(e.g. </tspan><tspan sqf:length="33" y="16">@use-</tspan><tspan sqf:length="35" y="16">when) </tspan><tspan sqf:length="13" y="16">of </tspan><tspan sqf:length="18" y="16">the </tspan><tspan sqf:length="31" y="16">called </tspan><tspan sqf:length="44" y="16">QuickFix </tspan><tspan sqf:length="19" y="16">will </tspan><tspan sqf:length="18" y="16">not </tspan><tspan sqf:length="15" y="16">be </tspan><tspan sqf:length="42" y="16">adopted.</tspan></text></svg></g></g></g></svg></g></svg></g></svg></g></svg>