<?xml version="1.0" encoding="UTF-8"?><svg xmlns:saxon="http://saxon.sf.net/" xmlns:sqf="http://www.schematron-quickfix.com/validator/process" xmlns:svg="http://www.w3.org/2000/svg" xmlns:d2t="java:com.d2t.saxon.d2tSaxonExtensions" xmlns:xlink="http://www.w3.org/1999/xlink" xmlns="http://www.w3.org/2000/svg" xmlns:xsi="http://www.w3.org/2001/XMLSchema-instance" width="278.5" height="160" sqf:cY="92.5" sqf:displayW="332" sqf:displayH="107" class="element_group" sqf:multiValue="one"><g transform="translate(66, 5)" id="modeld9e194_group_d9e194"><rect width="207.5" height="150" rx="7" ry="7" fill="white" stroke="#007" stroke-width="1"/><rect width="207.5" height="150" rx="7" ry="7" fill="white" stroke="#007" stroke-width="1"/><path fill="#007" opacity="0.1" d="M 0 25 L 0 7 Q 0 0 7 0 L 200.5 0 Q 207.5 0 207.5 7 L 207.5 25 Z"/><svg xmlns:java="java:java.lang.Math" width="131" height="25"><g transform="translate(3,3)"><rect width="5" height="5" x="6" y="3" fill="#007" opacity="0.5"/><rect width="5" height="5" x="6" y="11" fill="#007" opacity="0.5"/><rect width="5" height="5" x="14" y="11" fill="#007" opacity="0.5"/><rect width="5" height="5" x="6" y="3" fill="none" stroke="#007" stroke-width="0.75" opacity="1"/><rect width="5" height="5" x="6" y="11" fill="none" stroke="#007" stroke-width="0.75" opacity="1"/><rect width="5" height="5" x="14" y="11" fill="none" stroke="#007" stroke-width="0.75" opacity="1"/><text x="26" y="13" fill="black" font-family="arial, helvetica, sans-serif" font-size="11">sqf:activityElements</text></g></svg><path d="M 2.5 25 L 205 25" fill="none" stroke="#007" stroke-width="0.25"/><g transform="translate(206, 0)" sqf:z-index="0"><svg width="332" height="107" class="annotation"><g visibility="hidden" style="z-index:1000"><set attributeName="visibility" to="visible" begin="modeld9e194_group_d9e194.mouseover" end="modeld9e194_group_d9e194.mouseout" sqf:dokuViewer="modeld9e194_group_d9e194"/><set attributeName="visibility" to="hidden" begin="modeld9e194_elementRef_d9e212.mouseover" end="modeld9e194_elementRef_d9e212.mouseout"/><set attributeName="visibility" to="hidden" begin="modeld9e194_elementRef_d9e210.mouseover" end="modeld9e194_elementRef_d9e210.mouseout"/><set attributeName="visibility" to="hidden" begin="modeld9e194_elementRef_d9e208.mouseover" end="modeld9e194_elementRef_d9e208.mouseout"/><set attributeName="visibility" to="hidden" begin="modeld9e194_elementRef_d9e206.mouseover" end="modeld9e194_elementRef_d9e206.mouseout"/><g transform="translate(1,1)"><path d="M 20 0 Q 10 0 10 10 L 10 10 L 0 15 L 10 20 L 10 90 Q 10 100 20 100 L 320 100 Q 330 100 330 90 L 330 10 Q 330 0 320 0 Z" fill="white" opacity="1" stroke="#007" stroke-width="1"/><path d="M 20 0 Q 10 0 10 10 L 10 10 L 0 15 L 10 20 L 10 90 Q 10 100 20 100 L 320 100 Q 330 100 330 90 L 330 10 Q 330 0 320 0 Z" fill="#007" opacity="0.1" stroke="#007" stroke-width="1"/><path d="M 20 0 Q 10 0 10 10 L 10 10 L 0 15 L 10 20 L 10 90 Q 10 100 20 100 L 320 100 Q 330 100 330 90 L 330 10 Q 330 0 320 0 Z" fill="none" opacity="1" stroke="#007" stroke-width="1"/><g transform="translate(20,5)"><svg xmlns:java="java:java.lang.Math" width="300" height="18" class="text_box"><text fill="black" font-family="arial, helvetica, sans-serif" font-size="11" font-weight="bold"><tspan sqf:length="83" y="16" x="0">Documentation</tspan></text></svg></g><g transform="translate(20,23)"><svg xmlns:java="java:java.lang.Math" width="300" height="72" class="text_box"><text fill="black" font-family="arial, helvetica, sans-serif" font-size="11"><tspan sqf:length="17" y="16" x="0">An </tspan><tspan sqf:length="37" y="16">activity </tspan><tspan sqf:length="40" y="16">element </tspan><tspan sqf:length="39" y="16">defines </tspan><tspan sqf:length="9" y="16">a </tspan><tspan sqf:length="39" y="16">change </tspan><tspan sqf:length="49" y="16">command </tspan><tspan sqf:length="17" y="16">for </tspan><tspan sqf:length="21" y="16">one </tspan><tspan sqf:length="13" y="16">or </tspan><tspan sqf:length="27" y="32" x="0">more </tspan><tspan sqf:length="33" y="32">nodes </tspan><tspan sqf:length="13" y="32">of </tspan><tspan sqf:length="18" y="32">the </tspan><tspan sqf:length="44" y="32">instance </tspan><tspan sqf:length="43" y="32">element. </tspan><tspan sqf:length="23" y="32">This </tspan><tspan sqf:length="39" y="32">change </tspan><tspan sqf:length="49" y="32">command </tspan><tspan sqf:length="11" y="48" x="0">is </tspan><tspan sqf:length="47" y="48">specified </tspan><tspan sqf:length="15" y="48">by </tspan><tspan sqf:length="18" y="48">the </tspan><tspan sqf:length="22" y="48">kind </tspan><tspan sqf:length="13" y="48">of </tspan><tspan sqf:length="37" y="48">activity </tspan><tspan sqf:length="43" y="48">element, </tspan><tspan sqf:length="18" y="48">the </tspan><tspan sqf:length="39" y="48">content </tspan><tspan sqf:length="21" y="48">and </tspan><tspan sqf:length="39" y="64" x="0">several </tspan><tspan sqf:length="48" y="64">attributes.</tspan></text></svg></g></g></g></svg></g><g transform="translate(0, 27.5)"><svg xmlns:java="java:java.lang.Math" width="205" height="120" sqf:cY="60" class="objectPaths" sqf:multiValue="one"><path stroke="#007" stroke-width="1" fill="none" d="M 0 60 L 25 60"/><g transform="translate(25,                                         0)"><svg width="180" height="120" class="sequence" sqf:cY="60" sqf:multiValue="one" sqf:minOccurs="1" sqf:maxOccurs="1"><g transform="translate(0,50)"><svg width="20" height="20" sqf:cY="10"><g><circle r="9.5" stroke="#007" stroke-width="1" cx="10" cy="10" fill="white"/><g><path d="M 0 10                          L 3 10                         M 8.5 10                         L 11.5 10                         M 17 10                         L 20 10" stroke="#007" fill="none" stroke-width="0.75"/><g transform="translate(3, 8)"><rect width="5.5" height="4" fill="#88f" stroke-width="1" stroke="#007"/></g><g transform="translate(11.5, 8)"><rect width="5.5" height="4" fill="#88f" stroke-width="1" stroke="#007"/></g></g></g></svg></g><g transform="translate(20,0)"><svg width="160" height="120" sqf:cY="60" class="objectPaths" sqf:multiValue="zeroOrMore"><path stroke="#007" stroke-width="1" fill="none" d="M 0 58.5 L 15 58.5" stroke-dasharray="3,3"/><path stroke="#007" stroke-width="1" fill="none" d="M 0 61.5 L 15 61.5" stroke-dasharray="3,3"/><g transform="translate(15,                                         0)"><svg width="145" height="120" class="choice" sqf:cY="60" sqf:multiValue="zeroOrMore"><g transform="translate(0,50)"><svg width="20" height="23.5" sqf:cYTop="0" sqf:cXTop="10" sqf:cYRight="10" sqf:cXRight="20" sqf:cYBottom="20" sqf:cXBottom="10" sqf:cY="10"><g><circle r="9.5" stroke="#007" stroke-width="0.33" cx="10" cy="13.5" fill="white" stroke-dashoffset="2" stroke-dasharray="2"/><circle r="9.5" stroke="#007" stroke-width="0.66" cx="10" cy="12" fill="white" stroke-dashoffset="2" stroke-dasharray="2"/><circle r="9.5" stroke="#007" stroke-width="1" cx="10" cy="10" fill="white" stroke-dashoffset="2" stroke-dasharray="2"/><g><path d="M 0 10                          L 3 10                          L 3 6                          L 6 6                         M 3 10                         L 3 14                         L 6 14" stroke="#007" fill="none" stroke-width="0.75"/><g transform="translate(6, 4)"><rect width="8" height="4" fill="#88f" stroke-width="1" stroke="#007"/></g><g transform="translate(6, 12)"><rect width="8" height="4" fill="#88f" stroke-width="1" stroke="#007"/></g><path d="M 20 10                                  L 17 10                                  L 17 6                                  L 14 6                                 M 17 10                                 L 17 14                                 L 14 14" stroke="#007" fill="none" stroke-width="0.75"/><path d="M 10 0                                  L 10 4" stroke="#007" fill="none" stroke-width="0.75"/><path d="M 10 16                                  L 10 20" stroke="#007" fill="none" stroke-width="0.75"/></g></g></svg></g><g transform="translate(20,90)"><svg width="125" height="30" sqf:cY="15" class="objectPaths" sqf:multiValue="one"><path stroke="#007" stroke-width="1" fill="none" d="M 0 15 L 30 15"/><g transform="translate(30,                                         0)"><svg width="95" height="30" class="element_ref" sqf:cY="15" sqf:displayW="332" sqf:displayH="149" sqf:multiValue="one" sqf:minOccurs="1" sqf:maxOccurs="1"><desc/><g alignment-baseline="baseline" class="svg-element-ref" transform="translate(0, 2.5)"><g id="modeld9e194_elementRef_d9e212"><rect height="25" width="95" rx="10" ry="10" stroke="#007" stoke-width="1" fill="white"><set attributeName="fill" to="#88f" begin="modeld9e194_elementRef_d9e212.mouseover" end="modeld9e194_elementRef_d9e212.mouseout"/></rect><a xlink:href="#sqf_stringReplace" target="_top"><text x="5" y="16" fill="black" font-family="arial, helvetica, sans-serif" font-size="11"><set attributeName="fill" to="#fff" begin="modeld9e194_elementRef_d9e212.mouseover" end="modeld9e194_elementRef_d9e212.mouseout"/>sqf:stringReplace</text></a></g></g><g transform="translate(95, 0)" sqf:z-index="0"><svg width="332" height="179" class="annotation"><g visibility="hidden" style="z-index:1000"><set attributeName="visibility" to="visible" begin="modeld9e194_elementRef_d9e212.mouseover" end="modeld9e194_elementRef_d9e212.mouseout" sqf:dokuViewer="modeld9e194_elementRef_d9e212"/><g transform="translate(1,1)"><path d="M 20 0 Q 10 0 10 10 L 10 10 L 0 15 L 10 20 L 10 162 Q 10 172 20 172 L 320 172 Q 330 172 330 162 L 330 10 Q 330 0 320 0 Z" fill="white" opacity="1" stroke="#007" stroke-width="1"/><path d="M 20 0 Q 10 0 10 10 L 10 10 L 0 15 L 10 20 L 10 162 Q 10 172 20 172 L 320 172 Q 330 172 330 162 L 330 10 Q 330 0 320 0 Z" fill="#007" opacity="0.1" stroke="#007" stroke-width="1"/><path d="M 20 0 Q 10 0 10 10 L 10 10 L 0 15 L 10 20 L 10 162 Q 10 172 20 172 L 320 172 Q 330 172 330 162 L 330 10 Q 330 0 320 0 Z" fill="none" opacity="1" stroke="#007" stroke-width="1"/><g transform="translate(20,5)"><svg width="300" height="18" class="text_box"><text fill="black" font-family="arial, helvetica, sans-serif" font-size="11" font-weight="bold"><tspan sqf:length="83" y="16" x="0">Documentation</tspan></text></svg></g><g transform="translate(20,23)"><svg width="300" height="72" class="text_box"><text fill="black" font-family="arial, helvetica, sans-serif" font-size="11"><tspan sqf:length="23" y="16" x="0">This </tspan><tspan sqf:length="37" y="16">activity </tspan><tspan sqf:length="40" y="16">element </tspan><tspan sqf:length="45" y="16">replaces </tspan><tspan sqf:length="54" y="16">substrings </tspan><tspan sqf:length="13" y="16">of </tspan><tspan sqf:length="21" y="16">text </tspan><tspan sqf:length="33" y="16">nodes </tspan><tspan sqf:length="15" y="16">by </tspan><tspan sqf:length="28" y="32" x="0">other </tspan><tspan sqf:length="36" y="32">nodes. </tspan><tspan sqf:length="21" y="32">The </tspan><tspan sqf:length="21" y="32">text </tspan><tspan sqf:length="33" y="32">nodes </tspan><tspan sqf:length="19" y="32">are </tspan><tspan sqf:length="39" y="32">defined </tspan><tspan sqf:length="15" y="32">by </tspan><tspan sqf:length="18" y="32">the </tspan><tspan sqf:length="32" y="32">match </tspan><tspan sqf:length="45" y="48" x="0">attribute. </tspan><tspan sqf:length="21" y="48">The </tspan><tspan sqf:length="31" y="48">regex </tspan><tspan sqf:length="42" y="48">attribute </tspan><tspan sqf:length="39" y="48">defines </tspan><tspan sqf:length="18" y="48">the </tspan><tspan sqf:length="54" y="48">substrings </tspan><tspan sqf:length="13" y="48">of </tspan><tspan sqf:length="18" y="48">the </tspan><tspan sqf:length="21" y="64" x="0">text </tspan><tspan sqf:length="33" y="64">nodes.</tspan></text></svg></g><g transform="translate(20,95)"><svg width="300" height="72" class="text_box"><text fill="black" font-family="arial, helvetica, sans-serif" font-size="11"><tspan sqf:length="21" y="16" x="0">The </tspan><tspan sqf:length="33" y="16">nodes </tspan><tspan sqf:length="12" y="16">to </tspan><tspan sqf:length="15" y="16">be </tspan><tspan sqf:length="42" y="16">inserted </tspan><tspan sqf:length="19" y="16">are </tspan><tspan sqf:length="39" y="16">defined </tspan><tspan sqf:length="15" y="16">by </tspan><tspan sqf:length="18" y="16">the </tspan><tspan sqf:length="39" y="16">content </tspan><tspan sqf:length="13" y="16">of </tspan><tspan sqf:length="18" y="16">the </tspan><tspan sqf:length="88" y="32" x="0">sqf:stringReplace </tspan><tspan sqf:length="40" y="32">element </tspan><tspan sqf:length="13" y="32">or </tspan><tspan sqf:length="18" y="32">the </tspan><tspan sqf:length="32" y="32">select </tspan><tspan sqf:length="45" y="32">attribute. </tspan><tspan sqf:length="28" y="32">Note: </tspan><tspan sqf:length="21" y="32">The </tspan><tspan sqf:length="39" y="48" x="0">context </tspan><tspan sqf:length="32" y="48">within </tspan><tspan sqf:length="18" y="48">the </tspan><tspan sqf:length="88" y="48">sqf:stringReplace </tspan><tspan sqf:length="40" y="48">element </tspan><tspan sqf:length="11" y="48">is </tspan><tspan sqf:length="18" y="48">set </tspan><tspan sqf:length="12" y="48">to </tspan><tspan sqf:length="18" y="48">the </tspan><tspan sqf:length="57" y="64" x="0">substrings. </tspan><tspan sqf:length="19" y="64">So, </tspan><tspan sqf:length="8" y="64">it </tspan><tspan sqf:length="11" y="64">is </tspan><tspan sqf:length="15" y="64">an </tspan><tspan sqf:length="34" y="64">atomic </tspan><tspan sqf:length="29" y="64">value.</tspan></text></svg></g></g></g></svg></g></svg></g></svg></g><g transform="translate(20,30)"><svg width="95" height="60" sqf:cY="30" class="objectPaths" sqf:multiValue="one"><path stroke="#007" stroke-width="1" fill="none" d="M 0 30 L 0 30"/><path stroke="#007" stroke-width="1" fill="none" d="M 30 45 L 7 45 Q 0 45 0 38 L 0 30"/><g transform="translate(30,                                         30)"><svg width="65" height="30" class="element_ref" sqf:cY="15" sqf:displayW="332" sqf:displayH="157" sqf:multiValue="one" sqf:minOccurs="1" sqf:maxOccurs="1"><desc/><g alignment-baseline="baseline" class="svg-element-ref" transform="translate(0, 2.5)"><g id="modeld9e194_elementRef_d9e210"><rect height="25" width="65" rx="10" ry="10" stroke="#007" stoke-width="1" fill="white"><set attributeName="fill" to="#88f" begin="modeld9e194_elementRef_d9e210.mouseover" end="modeld9e194_elementRef_d9e210.mouseout"/></rect><a xlink:href="#sqf_replace" target="_top"><text x="5" y="16" fill="black" font-family="arial, helvetica, sans-serif" font-size="11"><set attributeName="fill" to="#fff" begin="modeld9e194_elementRef_d9e210.mouseover" end="modeld9e194_elementRef_d9e210.mouseout"/>sqf:replace</text></a></g></g><g transform="translate(65, 0)" sqf:z-index="0"><svg width="332" height="187" class="annotation"><g visibility="hidden" style="z-index:1000"><set attributeName="visibility" to="visible" begin="modeld9e194_elementRef_d9e210.mouseover" end="modeld9e194_elementRef_d9e210.mouseout" sqf:dokuViewer="modeld9e194_elementRef_d9e210"/><g transform="translate(1,1)"><path d="M 20 0 Q 10 0 10 10 L 10 10 L 0 15 L 10 20 L 10 170 Q 10 180 20 180 L 320 180 Q 330 180 330 170 L 330 10 Q 330 0 320 0 Z" fill="white" opacity="1" stroke="#007" stroke-width="1"/><path d="M 20 0 Q 10 0 10 10 L 10 10 L 0 15 L 10 20 L 10 170 Q 10 180 20 180 L 320 180 Q 330 180 330 170 L 330 10 Q 330 0 320 0 Z" fill="#007" opacity="0.1" stroke="#007" stroke-width="1"/><path d="M 20 0 Q 10 0 10 10 L 10 10 L 0 15 L 10 20 L 10 170 Q 10 180 20 180 L 320 180 Q 330 180 330 170 L 330 10 Q 330 0 320 0 Z" fill="none" opacity="1" stroke="#007" stroke-width="1"/><g transform="translate(20,5)"><svg width="300" height="18" class="text_box"><text fill="black" font-family="arial, helvetica, sans-serif" font-size="11" font-weight="bold"><tspan sqf:length="83" y="16" x="0">Documentation</tspan></text></svg></g><g transform="translate(20,23)"><svg width="300" height="56" class="text_box"><text fill="black" font-family="arial, helvetica, sans-serif" font-size="11"><tspan sqf:length="23" y="16" x="0">This </tspan><tspan sqf:length="37" y="16">activity </tspan><tspan sqf:length="40" y="16">element </tspan><tspan sqf:length="45" y="16">replaces </tspan><tspan sqf:length="21" y="16">one </tspan><tspan sqf:length="13" y="16">or </tspan><tspan sqf:length="27" y="16">more </tspan><tspan sqf:length="33" y="16">nodes </tspan><tspan sqf:length="13" y="16">of </tspan><tspan sqf:length="18" y="16">the </tspan><tspan sqf:length="24" y="16">XML </tspan><tspan sqf:length="44" y="32" x="0">instance </tspan><tspan sqf:length="15" y="32">by </tspan><tspan sqf:length="9" y="32">a </tspan><tspan sqf:length="30" y="32">node. </tspan><tspan sqf:length="21" y="32">The </tspan><tspan sqf:length="37" y="32">activity </tspan><tspan sqf:length="49" y="32">command </tspan><tspan sqf:length="49" y="32">combines </tspan><tspan sqf:length="18" y="32">the </tspan><tspan sqf:length="32" y="48" x="0">delete </tspan><tspan sqf:length="21" y="48">and </tspan><tspan sqf:length="18" y="48">the </tspan><tspan sqf:length="21" y="48">add </tspan><tspan sqf:length="49" y="48">command.</tspan></text></svg></g><g transform="translate(20,79)"><svg width="300" height="56" class="text_box"><text fill="black" font-family="arial, helvetica, sans-serif" font-size="11"><tspan sqf:length="21" y="16" x="0">The </tspan><tspan sqf:length="33" y="16">nodes </tspan><tspan sqf:length="12" y="16">to </tspan><tspan sqf:length="15" y="16">be </tspan><tspan sqf:length="38" y="16">deleted </tspan><tspan sqf:length="19" y="16">are </tspan><tspan sqf:length="39" y="16">defined </tspan><tspan sqf:length="15" y="16">by </tspan><tspan sqf:length="18" y="16">the </tspan><tspan sqf:length="32" y="16">match </tspan><tspan sqf:length="45" y="16">attribute. </tspan><tspan sqf:length="21" y="32" x="0">The </tspan><tspan sqf:length="33" y="32">nodes </tspan><tspan sqf:length="12" y="32">to </tspan><tspan sqf:length="15" y="32">be </tspan><tspan sqf:length="33" y="32">added </tspan><tspan sqf:length="19" y="32">are </tspan><tspan sqf:length="39" y="32">defined </tspan><tspan sqf:length="15" y="32">by </tspan><tspan sqf:length="18" y="32">the </tspan><tspan sqf:length="18" y="32">the </tspan><tspan sqf:length="48" y="32">attributes </tspan><tspan sqf:length="28" y="32">node-</tspan><tspan sqf:length="24" y="48" x="0">type </tspan><tspan sqf:length="21" y="48">and </tspan><tspan sqf:length="32" y="48">select </tspan><tspan sqf:length="21" y="48">and </tspan><tspan sqf:length="18" y="48">the </tspan><tspan sqf:length="39" y="48">content </tspan><tspan sqf:length="13" y="48">of </tspan><tspan sqf:length="18" y="48">the </tspan><tspan sqf:length="58" y="48">sqf:replace </tspan><tspan sqf:length="40" y="48">element.</tspan></text></svg></g><g transform="translate(20,135)"><svg width="300" height="40" class="text_box"><text fill="black" font-family="arial, helvetica, sans-serif" font-size="11"><tspan sqf:length="21" y="16" x="0">The </tspan><tspan sqf:length="40" y="16">position </tspan><tspan sqf:length="13" y="16">of </tspan><tspan sqf:length="18" y="16">the </tspan><tspan sqf:length="33" y="16">nodes </tspan><tspan sqf:length="12" y="16">to </tspan><tspan sqf:length="15" y="16">be </tspan><tspan sqf:length="33" y="16">added </tspan><tspan sqf:length="11" y="16">is </tspan><tspan sqf:length="18" y="16">the </tspan><tspan sqf:length="40" y="16">position </tspan><tspan sqf:length="13" y="16">of </tspan><tspan sqf:length="18" y="16">the </tspan><tspan sqf:length="33" y="32" x="0">nodes </tspan><tspan sqf:length="12" y="32">to </tspan><tspan sqf:length="15" y="32">be </tspan><tspan sqf:length="38" y="32">deleted.</tspan></text></svg></g></g></g></svg></g></svg></g><path stroke="#007" stroke-width="1" fill="none" d="M 30 15 L 7 15 Q 0 15 0 22 L 0 30"/><g transform="translate(30,                                         0)"><svg width="58" height="30" class="element_ref" sqf:cY="15" sqf:displayW="332" sqf:displayH="69" sqf:multiValue="one" sqf:minOccurs="1" sqf:maxOccurs="1"><desc/><g alignment-baseline="baseline" class="svg-element-ref" transform="translate(0, 2.5)"><g id="modeld9e194_elementRef_d9e208"><rect height="25" width="58" rx="10" ry="10" stroke="#007" stoke-width="1" fill="white"><set attributeName="fill" to="#88f" begin="modeld9e194_elementRef_d9e208.mouseover" end="modeld9e194_elementRef_d9e208.mouseout"/></rect><a xlink:href="#sqf_delete" target="_top"><text x="5" y="16" fill="black" font-family="arial, helvetica, sans-serif" font-size="11"><set attributeName="fill" to="#fff" begin="modeld9e194_elementRef_d9e208.mouseover" end="modeld9e194_elementRef_d9e208.mouseout"/>sqf:delete</text></a></g></g><g transform="translate(58, 0)" sqf:z-index="0"><svg width="332" height="99" class="annotation"><g visibility="hidden" style="z-index:1000"><set attributeName="visibility" to="visible" begin="modeld9e194_elementRef_d9e208.mouseover" end="modeld9e194_elementRef_d9e208.mouseout" sqf:dokuViewer="modeld9e194_elementRef_d9e208"/><g transform="translate(1,1)"><path d="M 20 0 Q 10 0 10 10 L 10 10 L 0 15 L 10 20 L 10 82 Q 10 92 20 92 L 320 92 Q 330 92 330 82 L 330 10 Q 330 0 320 0 Z" fill="white" opacity="1" stroke="#007" stroke-width="1"/><path d="M 20 0 Q 10 0 10 10 L 10 10 L 0 15 L 10 20 L 10 82 Q 10 92 20 92 L 320 92 Q 330 92 330 82 L 330 10 Q 330 0 320 0 Z" fill="#007" opacity="0.1" stroke="#007" stroke-width="1"/><path d="M 20 0 Q 10 0 10 10 L 10 10 L 0 15 L 10 20 L 10 82 Q 10 92 20 92 L 320 92 Q 330 92 330 82 L 330 10 Q 330 0 320 0 Z" fill="none" opacity="1" stroke="#007" stroke-width="1"/><g transform="translate(20,5)"><svg width="300" height="18" class="text_box"><text fill="black" font-family="arial, helvetica, sans-serif" font-size="11" font-weight="bold"><tspan sqf:length="83" y="16" x="0">Documentation</tspan></text></svg></g><g transform="translate(20,23)"><svg width="300" height="40" class="text_box"><text fill="black" font-family="arial, helvetica, sans-serif" font-size="11"><tspan sqf:length="23" y="16" x="0">This </tspan><tspan sqf:length="37" y="16">activity </tspan><tspan sqf:length="40" y="16">element </tspan><tspan sqf:length="38" y="16">deletes </tspan><tspan sqf:length="21" y="16">one </tspan><tspan sqf:length="13" y="16">or </tspan><tspan sqf:length="27" y="16">more </tspan><tspan sqf:length="33" y="16">nodes </tspan><tspan sqf:length="13" y="16">of </tspan><tspan sqf:length="18" y="16">the </tspan><tspan sqf:length="24" y="16">XML </tspan><tspan sqf:length="44" y="32" x="0">instance.</tspan></text></svg></g><g transform="translate(20,63)"><svg width="300" height="24" class="text_box"><text fill="black" font-family="arial, helvetica, sans-serif" font-size="11"><tspan sqf:length="21" y="16" x="0">The </tspan><tspan sqf:length="32" y="16">match </tspan><tspan sqf:length="42" y="16">attribute </tspan><tspan sqf:length="39" y="16">defines </tspan><tspan sqf:length="18" y="16">the </tspan><tspan sqf:length="33" y="16">nodes </tspan><tspan sqf:length="12" y="16">to </tspan><tspan sqf:length="15" y="16">be </tspan><tspan sqf:length="38" y="16">deleted.</tspan></text></svg></g></g></g></svg></g></svg></g></svg></g><g transform="translate(20,0)"><svg width="77" height="30" sqf:cY="15" class="objectPaths" sqf:multiValue="one"><path stroke="#007" stroke-width="1" fill="none" d="M 0 15 L 30 15"/><g transform="translate(30,                                         0)"><svg width="47" height="30" class="element_ref" sqf:cY="15" sqf:displayW="332" sqf:displayH="157" sqf:multiValue="one" sqf:minOccurs="1" sqf:maxOccurs="1"><desc/><g alignment-baseline="baseline" class="svg-element-ref" transform="translate(0, 2.5)"><g id="modeld9e194_elementRef_d9e206"><rect height="25" width="47" rx="10" ry="10" stroke="#007" stoke-width="1" fill="white"><set attributeName="fill" to="#88f" begin="modeld9e194_elementRef_d9e206.mouseover" end="modeld9e194_elementRef_d9e206.mouseout"/></rect><a xlink:href="#sqf_add" target="_top"><text x="5" y="16" fill="black" font-family="arial, helvetica, sans-serif" font-size="11"><set attributeName="fill" to="#fff" begin="modeld9e194_elementRef_d9e206.mouseover" end="modeld9e194_elementRef_d9e206.mouseout"/>sqf:add</text></a></g></g><g transform="translate(47, 0)" sqf:z-index="0"><svg width="332" height="187" class="annotation"><g visibility="hidden" style="z-index:1000"><set attributeName="visibility" to="visible" begin="modeld9e194_elementRef_d9e206.mouseover" end="modeld9e194_elementRef_d9e206.mouseout" sqf:dokuViewer="modeld9e194_elementRef_d9e206"/><g transform="translate(1,1)"><path d="M 20 0 Q 10 0 10 10 L 10 10 L 0 15 L 10 20 L 10 170 Q 10 180 20 180 L 320 180 Q 330 180 330 170 L 330 10 Q 330 0 320 0 Z" fill="white" opacity="1" stroke="#007" stroke-width="1"/><path d="M 20 0 Q 10 0 10 10 L 10 10 L 0 15 L 10 20 L 10 170 Q 10 180 20 180 L 320 180 Q 330 180 330 170 L 330 10 Q 330 0 320 0 Z" fill="#007" opacity="0.1" stroke="#007" stroke-width="1"/><path d="M 20 0 Q 10 0 10 10 L 10 10 L 0 15 L 10 20 L 10 170 Q 10 180 20 180 L 320 180 Q 330 180 330 170 L 330 10 Q 330 0 320 0 Z" fill="none" opacity="1" stroke="#007" stroke-width="1"/><g transform="translate(20,5)"><svg width="300" height="18" class="text_box"><text fill="black" font-family="arial, helvetica, sans-serif" font-size="11" font-weight="bold"><tspan sqf:length="83" y="16" x="0">Documentation</tspan></text></svg></g><g transform="translate(20,23)"><svg width="300" height="40" class="text_box"><text fill="black" font-family="arial, helvetica, sans-serif" font-size="11"><tspan sqf:length="23" y="16" x="0">This </tspan><tspan sqf:length="37" y="16">activity </tspan><tspan sqf:length="40" y="16">element </tspan><tspan sqf:length="27" y="16">adds </tspan><tspan sqf:length="9" y="16">a </tspan><tspan sqf:length="27" y="16">node </tspan><tspan sqf:length="12" y="16">to </tspan><tspan sqf:length="21" y="16">one </tspan><tspan sqf:length="13" y="16">or </tspan><tspan sqf:length="27" y="16">more </tspan><tspan sqf:length="33" y="16">nodes </tspan><tspan sqf:length="13" y="16">of </tspan><tspan sqf:length="18" y="32" x="0">the </tspan><tspan sqf:length="24" y="32">XML </tspan><tspan sqf:length="44" y="32">instance.</tspan></text></svg></g><g transform="translate(20,63)"><svg width="300" height="72" class="text_box"><text fill="black" font-family="arial, helvetica, sans-serif" font-size="11"><tspan sqf:length="21" y="16" x="0">The </tspan><tspan sqf:length="48" y="16">attributes </tspan><tspan sqf:length="32" y="16">match </tspan><tspan sqf:length="21" y="16">and </tspan><tspan sqf:length="40" y="16">position </tspan><tspan sqf:length="33" y="16">define </tspan><tspan sqf:length="18" y="16">the </tspan><tspan sqf:length="40" y="16">position </tspan><tspan sqf:length="35" y="16">where </tspan><tspan sqf:length="18" y="32" x="0">the </tspan><tspan sqf:length="33" y="32">nodes </tspan><tspan sqf:length="19" y="32">will </tspan><tspan sqf:length="15" y="32">be </tspan><tspan sqf:length="36" y="32">added. </tspan><tspan sqf:length="21" y="32">The </tspan><tspan sqf:length="40" y="32">position </tspan><tspan sqf:length="11" y="32">is </tspan><tspan sqf:length="56" y="32">determined </tspan><tspan sqf:length="15" y="32">by </tspan><tspan sqf:length="18" y="32">the </tspan><tspan sqf:length="37" y="48" x="0">anchor </tspan><tspan sqf:length="41" y="48">node(s) </tspan><tspan sqf:length="51" y="48">(@match) </tspan><tspan sqf:length="21" y="48">and </tspan><tspan sqf:length="18" y="48">the </tspan><tspan sqf:length="44" y="48">insertion </tspan><tspan sqf:length="44" y="48">direction </tspan><tspan sqf:length="59" y="64" x="0">(@position).</tspan></text></svg></g><g transform="translate(20,135)"><svg width="300" height="40" class="text_box"><text fill="black" font-family="arial, helvetica, sans-serif" font-size="11"><tspan sqf:length="21" y="16" x="0">The </tspan><tspan sqf:length="48" y="16">attributes </tspan><tspan sqf:length="28" y="16">node-</tspan><tspan sqf:length="27" y="16">type, </tspan><tspan sqf:length="32" y="16">select </tspan><tspan sqf:length="21" y="16">and </tspan><tspan sqf:length="31" y="16">target </tspan><tspan sqf:length="21" y="16">and </tspan><tspan sqf:length="18" y="16">the </tspan><tspan sqf:length="39" y="16">content </tspan><tspan sqf:length="13" y="16">of </tspan><tspan sqf:length="18" y="32" x="0">the </tspan><tspan sqf:length="40" y="32">element </tspan><tspan sqf:length="33" y="32">define </tspan><tspan sqf:length="18" y="32">the </tspan><tspan sqf:length="33" y="32">nodes </tspan><tspan sqf:length="12" y="32">to </tspan><tspan sqf:length="15" y="32">be </tspan><tspan sqf:length="33" y="32">added.</tspan></text></svg></g></g></g></svg></g></svg></g></svg></g><path fill="none" stroke-width="1" stroke="#007" d="M 10 50 L 10 22 Q 10 15 17 15 L 20 15"/><path fill="none" stroke-width="1" stroke="#007" d="M 10 70 L 10 98 Q 10 105 17 105 L 20 105"/></svg></g></svg></g></svg></g></svg></g></g><g transform="translate(0, 77.5)"><svg xmlns:java="java:java.lang.Math" width="66" height="30" sqf:cY="15" class="objectPaths" sqf:multiValue="one"><path stroke="#007" stroke-width="1" fill="none" d="M 66 15 L 41 15"/><g transform="translate(0,                                         0)"><svg width="41" height="30" sqf:cY="15"><g alignment-baseline="baseline" id="modeld9e194_d9e302_parentOf_" transform="translate( 0, 2.5)"><a xlink:href="#sqf_fix" target="_top"><g><rect width="41" height="25" rx="10" ry="10" stroke="#007" stoke-width="1" fill="white"/></g><text x="5" y="16" fill="black" font-family="arial, helvetica, sans-serif" font-size="11">sqf:fix</text></a></g><g transform="translate(41, 2.5)"><svg width="332" height="91" class="annotation"><g visibility="hidden" style="z-index:1000"><set attributeName="visibility" to="visible" begin="modeld9e194_d9e302_parentOf_.mouseover" end="modeld9e194_d9e302_parentOf_.mouseout" sqf:dokuViewer="modeld9e194_d9e302_parentOf_"/><g transform="translate(1,1)"><path d="M 17.5 0 Q 10 0 10 7.5 L 10 7.5 L 0 12.5 L 10 17.5 L 10 76.5 Q 10 84 17.5 84 L 322.5 84 Q 330 84 330 76.5 L 330 7.5 Q 330 0 322.5 0 Z" fill="white" opacity="1" stroke="#007" stroke-width="1"/><path d="M 17.5 0 Q 10 0 10 7.5 L 10 7.5 L 0 12.5 L 10 17.5 L 10 76.5 Q 10 84 17.5 84 L 322.5 84 Q 330 84 330 76.5 L 330 7.5 Q 330 0 322.5 0 Z" fill="#007" opacity="0.1" stroke="#007" stroke-width="1"/><path d="M 17.5 0 Q 10 0 10 7.5 L 10 7.5 L 0 12.5 L 10 17.5 L 10 76.5 Q 10 84 17.5 84 L 322.5 84 Q 330 84 330 76.5 L 330 7.5 Q 330 0 322.5 0 Z" fill="none" opacity="1" stroke="#007" stroke-width="1"/><g transform="translate(20,5)"><svg width="300" height="18" class="text_box"><text fill="black" font-family="arial, helvetica, sans-serif" font-size="11" font-weight="bold"><tspan sqf:length="83" y="16" x="0">Documentation</tspan></text></svg></g><g transform="translate(20,23)"><svg width="300" height="56" class="text_box"><text fill="black" font-family="arial, helvetica, sans-serif" font-size="11"><tspan sqf:length="40" y="16" x="0">Defines </tspan><tspan sqf:length="9" y="16">a </tspan><tspan sqf:length="61" y="16">Schematron </tspan><tspan sqf:length="44" y="16">QuickFix </tspan><tspan sqf:length="24" y="16">with </tspan><tspan sqf:length="14" y="16">its </tspan><tspan sqf:length="42" y="16">content. </tspan><tspan sqf:length="15" y="16">All </tspan><tspan sqf:length="55" y="32" x="0">commands </tspan><tspan sqf:length="19" y="32">will </tspan><tspan sqf:length="15" y="32">be </tspan><tspan sqf:length="55" y="32">processed </tspan><tspan sqf:length="9" y="32">if </tspan><tspan sqf:length="18" y="32">the </tspan><tspan sqf:length="44" y="32">QuickFix </tspan><tspan sqf:length="11" y="32">is </tspan><tspan sqf:length="47" y="32">activated </tspan><tspan sqf:length="15" y="32">by </tspan><tspan sqf:length="18" y="48" x="0">the </tspan><tspan sqf:length="25" y="48">user.</tspan></text></svg></g></g></g></svg></g></svg></g></svg></g></svg>