<?xml version="1.0" encoding="UTF-8"?><svg xmlns:saxon="http://saxon.sf.net/" xmlns:sqf="http://www.schematron-quickfix.com/validator/process" xmlns:svg="http://www.w3.org/2000/svg" xmlns:d2t="java:com.d2t.saxon.d2tSaxonExtensions" xmlns:xlink="http://www.w3.org/1999/xlink" xmlns="http://www.w3.org/2000/svg" xmlns:xsi="http://www.w3.org/2001/XMLSchema-instance" width="127.5" height="70" sqf:cY="47.5" sqf:displayW="0" sqf:displayH="0" class="element_group" sqf:multiValue="one"><g transform="translate(0, 5)" id="modeld9e103_group_d9e103"><rect width="122.5" height="60" rx="7" ry="7" fill="white" stroke="#F5844C" stroke-width="1"/><rect width="122.5" height="60" rx="7" ry="7" fill="white" stroke="#F5844C" stroke-width="1"/><path fill="#F5844C" opacity="0.1" d="M 0 25 L 0 7 Q 0 0 7 0 L 115.5 0 Q 122.5 0 122.5 7 L 122.5 25 Z"/><svg xmlns:java="java:java.lang.Math" width="120" height="25"><g transform="translate(3,3)"><rect width="5" height="5" x="6" y="3" fill="#F5844C" opacity="0.5"/><rect width="5" height="5" x="6" y="11" fill="#F5844C" opacity="0.5"/><rect width="5" height="5" x="14" y="11" fill="#F5844C" opacity="0.5"/><rect width="5" height="5" x="6" y="3" fill="none" stroke="#F5844C" stroke-width="0.75" opacity="1"/><rect width="5" height="5" x="6" y="11" fill="none" stroke="#F5844C" stroke-width="0.75" opacity="1"/><rect width="5" height="5" x="14" y="11" fill="none" stroke="#F5844C" stroke-width="0.75" opacity="1"/><text x="26" y="13" fill="black" font-family="arial, helvetica, sans-serif" font-size="11">sqf:rootAttributes</text></g></svg><path d="M 2.5 25 L 120 25" fill="none" stroke="#F5844C" stroke-width="0.25"/><g transform="translate(121, 0)" sqf:z-index="0"/><g transform="translate(0, 27.5)"><svg xmlns:java="java:java.lang.Math" width="90" height="30" sqf:cY="15" class="objectPaths" sqf:multiValue="zeroOrOne"><path stroke="#F5844C" stroke-width="1" fill="none" d="M 0 15 L 25 15" stroke-dasharray="5,5"/><g transform="translate(25,                                         0)"><svg width="65" height="30" sqf:cY="15" class="attribute" id="modeld9e103_attribute_sqf_version" sqf:displayW="332" sqf:displayH="61" sqf:multiValue="zeroOrOne"><desc/><g alignment-baseline="baseline" transform="translate(0, 2.5)" id="modeld9e103_attributName_d9e105"><g><rect height="25" width="65" rx="10" ry="10" stroke="#F5844C" stoke-width="1" fill="white" stroke-dasharray="5,5"/></g><text x="5" y="16" fill="black" font-family="arial, helvetica, sans-serif" font-size="11">sqf:version</text></g><g transform="translate(65, 0)" sqf:z-index="0"><svg width="332" height="91" class="annotation"><g visibility="hidden" style="z-index:1000"><set attributeName="visibility" to="visible" begin="modeld9e103_attributName_d9e105.mouseover" end="modeld9e103_attributName_d9e105.mouseout" sqf:dokuViewer="modeld9e103_attributName_d9e105"/><g transform="translate(1,1)"><path d="M 20 0 Q 10 0 10 10 L 10 10 L 0 15 L 10 20 L 10 74 Q 10 84 20 84 L 320 84 Q 330 84 330 74 L 330 10 Q 330 0 320 0 Z" fill="white" opacity="1" stroke="#F5844C" stroke-width="1"/><path d="M 20 0 Q 10 0 10 10 L 10 10 L 0 15 L 10 20 L 10 74 Q 10 84 20 84 L 320 84 Q 330 84 330 74 L 330 10 Q 330 0 320 0 Z" fill="#F5844C" opacity="0.1" stroke="#F5844C" stroke-width="1"/><path d="M 20 0 Q 10 0 10 10 L 10 10 L 0 15 L 10 20 L 10 74 Q 10 84 20 84 L 320 84 Q 330 84 330 74 L 330 10 Q 330 0 320 0 Z" fill="none" opacity="1" stroke="#F5844C" stroke-width="1"/><g transform="translate(20,5)"><svg width="300" height="18" class="text_box"><text fill="black" font-family="arial, helvetica, sans-serif" font-size="11" font-weight="bold"><tspan sqf:length="83" y="16" x="0">Documentation</tspan></text></svg></g><g transform="translate(20,23)"><svg width="300" height="56" class="text_box"><text fill="black" font-family="arial, helvetica, sans-serif" font-size="11"><tspan sqf:length="21" y="16" x="0">The </tspan><tspan sqf:length="42" y="16">attribute </tspan><tspan sqf:length="39" y="16">defines </tspan><tspan sqf:length="18" y="16">the </tspan><tspan sqf:length="27" y="16">used </tspan><tspan sqf:length="61" y="16">Schematron </tspan><tspan sqf:length="44" y="16">QuickFix </tspan><tspan sqf:length="42" y="16">version. </tspan><tspan sqf:length="21" y="32" x="0">The </tspan><tspan sqf:length="42" y="32">attribute </tspan><tspan sqf:length="35" y="32">should </tspan><tspan sqf:length="15" y="32">be </tspan><tspan sqf:length="21" y="32">set, </tspan><tspan sqf:length="9" y="32">if </tspan><tspan sqf:length="18" y="32">the </tspan><tspan sqf:length="61" y="32">Schematron </tspan><tspan sqf:length="41" y="32">schema </tspan><tspan sqf:length="27" y="32">uses </tspan><tspan sqf:length="18" y="48" x="0">the </tspan><tspan sqf:length="61" y="48">Schematron </tspan><tspan sqf:length="44" y="48">QuickFix </tspan><tspan sqf:length="56" y="48">extensions.</tspan></text></svg></g></g></g></svg></g></svg></g></svg></g></g><g transform="translate(0, 47.5)"/></svg>