<?xml version="1.0" encoding="UTF-8"?><svg xmlns:saxon="http://saxon.sf.net/" xmlns:sqf="http://www.schematron-quickfix.com/validator/process" xmlns:svg="http://www.w3.org/2000/svg" xmlns:d2t="java:com.d2t.saxon.d2tSaxonExtensions" xmlns:xlink="http://www.w3.org/1999/xlink" xmlns="http://www.w3.org/2000/svg" xmlns:xsi="http://www.w3.org/2001/XMLSchema-instance" width="264.5" height="100" sqf:cY="62.5" sqf:displayW="332" sqf:displayH="75" class="element_group" sqf:multiValue="one"><g transform="translate(112, 5)" id="modeld9e60_group_d9e60"><rect width="147.5" height="90" rx="7" ry="7" fill="white" stroke="#F5844C" stroke-width="1"/><rect width="147.5" height="90" rx="7" ry="7" fill="white" stroke="#F5844C" stroke-width="1"/><path fill="#F5844C" opacity="0.1" d="M 0 25 L 0 7 Q 0 0 7 0 L 140.5 0 Q 147.5 0 147.5 7 L 147.5 25 Z"/><svg xmlns:java="java:java.lang.Math" width="145" height="25"><g transform="translate(3,3)"><rect width="5" height="5" x="6" y="3" fill="#F5844C" opacity="0.5"/><rect width="5" height="5" x="6" y="11" fill="#F5844C" opacity="0.5"/><rect width="5" height="5" x="14" y="11" fill="#F5844C" opacity="0.5"/><rect width="5" height="5" x="6" y="3" fill="none" stroke="#F5844C" stroke-width="0.75" opacity="1"/><rect width="5" height="5" x="6" y="11" fill="none" stroke="#F5844C" stroke-width="0.75" opacity="1"/><rect width="5" height="5" x="14" y="11" fill="none" stroke="#F5844C" stroke-width="0.75" opacity="1"/><text x="26" y="13" fill="black" font-family="arial, helvetica, sans-serif" font-size="11">sqf:messageAttributes</text></g></svg><path d="M 2.5 25 L 145 25" fill="none" stroke="#F5844C" stroke-width="0.25"/><g transform="translate(146, 0)" sqf:z-index="0"><svg width="332" height="75" class="annotation"><g visibility="hidden" style="z-index:1000"><set attributeName="visibility" to="visible" begin="modeld9e60_group_d9e60.mouseover" end="modeld9e60_group_d9e60.mouseout" sqf:dokuViewer="modeld9e60_group_d9e60"/><set attributeName="visibility" to="hidden" begin="modeld9e60_attributName_d9e68.mouseover" end="modeld9e60_attributName_d9e68.mouseout"/><set attributeName="visibility" to="hidden" begin="modeld9e60_attributName_d9e83.mouseover" end="modeld9e60_attributName_d9e83.mouseout"/><g transform="translate(1,1)"><path d="M 20 0 Q 10 0 10 10 L 10 10 L 0 15 L 10 20 L 10 58 Q 10 68 20 68 L 320 68 Q 330 68 330 58 L 330 10 Q 330 0 320 0 Z" fill="white" opacity="1" stroke="#F5844C" stroke-width="1"/><path d="M 20 0 Q 10 0 10 10 L 10 10 L 0 15 L 10 20 L 10 58 Q 10 68 20 68 L 320 68 Q 330 68 330 58 L 330 10 Q 330 0 320 0 Z" fill="#F5844C" opacity="0.1" stroke="#F5844C" stroke-width="1"/><path d="M 20 0 Q 10 0 10 10 L 10 10 L 0 15 L 10 20 L 10 58 Q 10 68 20 68 L 320 68 Q 330 68 330 58 L 330 10 Q 330 0 320 0 Z" fill="none" opacity="1" stroke="#F5844C" stroke-width="1"/><g transform="translate(20,5)"><svg xmlns:java="java:java.lang.Math" width="300" height="18" class="text_box"><text fill="black" font-family="arial, helvetica, sans-serif" font-size="11" font-weight="bold"><tspan sqf:length="83" y="16" x="0">Documentation</tspan></text></svg></g><g transform="translate(20,23)"><svg xmlns:java="java:java.lang.Math" width="300" height="40" class="text_box"><text fill="black" font-family="arial, helvetica, sans-serif" font-size="11"><tspan sqf:length="44" y="16" x="0">Attribute </tspan><tspan sqf:length="19" y="16">zur </tspan><tspan sqf:length="58" y="16">Zuweisung </tspan><tspan sqf:length="23" y="16">eins </tspan><tspan sqf:length="25" y="16">oder </tspan><tspan sqf:length="47" y="16">mehrerer </tspan><tspan sqf:length="56" y="16">QuickFixes </tspan><tspan sqf:length="15" y="16">zu </tspan><tspan sqf:length="31" y="32" x="0">einem </tspan><tspan sqf:length="62" y="32">Schematron-</tspan><tspan sqf:length="36" y="32">Assert </tspan><tspan sqf:length="29" y="32">oder -</tspan><tspan sqf:length="35" y="32">Report.</tspan></text></svg></g></g></g></svg></g><g transform="translate(0, 27.5)"><svg xmlns:java="java:java.lang.Math" width="128" height="60" sqf:cY="30" class="objectPaths" sqf:multiValue="zeroOrOne"><path stroke="#F5844C" stroke-width="1" fill="none" d="M 0 30 L 25 30" stroke-dasharray="5,5"/><path stroke="#F5844C" stroke-width="1" fill="none" d="M 50 45 L 32 45 Q 25 45 25 38 L 25 30" stroke-dasharray="5,5"/><g transform="translate(50,                                         30)"><svg width="78" height="30" sqf:cY="15" class="attribute" id="modeld9e60_attribute_sqf_default-fix" sqf:displayW="332" sqf:displayH="103" sqf:multiValue="zeroOrOne"><desc/><g alignment-baseline="baseline" transform="translate(0, 2.5)" id="modeld9e60_attributName_d9e83"><g><rect height="25" width="78" rx="10" ry="10" stroke="#F5844C" stoke-width="1" fill="white" stroke-dasharray="5,5"/></g><text x="5" y="16" fill="black" font-family="arial, helvetica, sans-serif" font-size="11">sqf:default-fix</text></g><g transform="translate(78, 0)" sqf:z-index="0"><svg width="332" height="133" class="annotation"><g visibility="hidden" style="z-index:1000"><set attributeName="visibility" to="visible" begin="modeld9e60_attributName_d9e83.mouseover" end="modeld9e60_attributName_d9e83.mouseout" sqf:dokuViewer="modeld9e60_attributName_d9e83"/><g transform="translate(1,1)"><path d="M 20 0 Q 10 0 10 10 L 10 10 L 0 15 L 10 20 L 10 116 Q 10 126 20 126 L 320 126 Q 330 126 330 116 L 330 10 Q 330 0 320 0 Z" fill="white" opacity="1" stroke="#F5844C" stroke-width="1"/><path d="M 20 0 Q 10 0 10 10 L 10 10 L 0 15 L 10 20 L 10 116 Q 10 126 20 126 L 320 126 Q 330 126 330 116 L 330 10 Q 330 0 320 0 Z" fill="#F5844C" opacity="0.1" stroke="#F5844C" stroke-width="1"/><path d="M 20 0 Q 10 0 10 10 L 10 10 L 0 15 L 10 20 L 10 116 Q 10 126 20 126 L 320 126 Q 330 126 330 116 L 330 10 Q 330 0 320 0 Z" fill="none" opacity="1" stroke="#F5844C" stroke-width="1"/><g transform="translate(20,5)"><svg width="300" height="18" class="text_box"><text fill="black" font-family="arial, helvetica, sans-serif" font-size="11" font-weight="bold"><tspan sqf:length="83" y="16" x="0">Documentation</tspan></text></svg></g><g transform="translate(20,23)"><svg width="300" height="56" class="text_box"><text fill="black" font-family="arial, helvetica, sans-serif" font-size="11"><tspan sqf:length="23" y="16" x="0">This </tspan><tspan sqf:length="42" y="16">attribute </tspan><tspan sqf:length="24" y="16">sets </tspan><tspan sqf:length="9" y="16">a </tspan><tspan sqf:length="36" y="16">default </tspan><tspan sqf:length="44" y="16">QuickFix </tspan><tspan sqf:length="17" y="16">for </tspan><tspan sqf:length="18" y="16">the </tspan><tspan sqf:length="61" y="16">Schematron </tspan><tspan sqf:length="34" y="32" x="0">assert </tspan><tspan sqf:length="13" y="32">or </tspan><tspan sqf:length="35" y="32">report. </tspan><tspan sqf:length="21" y="32">The </tspan><tspan sqf:length="36" y="32">default </tspan><tspan sqf:length="44" y="32">QuickFix </tspan><tspan sqf:length="26" y="32">must </tspan><tspan sqf:length="23" y="32">also </tspan><tspan sqf:length="15" y="32">be </tspan><tspan sqf:length="43" y="32">referred </tspan><tspan sqf:length="15" y="48" x="0">by </tspan><tspan sqf:length="18" y="48">the </tspan><tspan sqf:length="34" y="48">sqf:fix </tspan><tspan sqf:length="42" y="48">attribute.</tspan></text></svg></g><g transform="translate(20,79)"><svg width="300" height="18" class="text_box"><text fill="black" font-family="arial, helvetica, sans-serif" font-size="11" font-weight="bold"><tspan sqf:length="31" y="16" x="0">Value</tspan></text></svg></g><g transform="translate(20,97)"><svg width="300" height="24" class="text_box"><text fill="black" font-family="arial, helvetica, sans-serif" font-size="11"><tspan sqf:length="21" y="16" x="0">The </tspan><tspan sqf:length="12" y="16">ID </tspan><tspan sqf:length="13" y="16">of </tspan><tspan sqf:length="9" y="16">a </tspan><tspan sqf:length="44" y="16">QuickFix </tspan><tspan sqf:length="33" y="16">which </tspan><tspan sqf:length="11" y="16">is </tspan><tspan sqf:length="43" y="16">referred </tspan><tspan sqf:length="15" y="16">by </tspan><tspan sqf:length="18" y="16">the </tspan><tspan sqf:length="34" y="16">sqf:fix </tspan><tspan sqf:length="42" y="16">attribute.</tspan></text></svg></g></g></g></svg></g></svg></g><path stroke="#F5844C" stroke-width="1" fill="none" d="M 50 15 L 32 15 Q 25 15 25 22 L 25 30" stroke-dasharray="5,5"/><g transform="translate(50,                                         0)"><svg width="41" height="30" sqf:cY="15" class="attribute" id="modeld9e60_attribute_sqf_fix" sqf:displayW="332" sqf:displayH="191" sqf:multiValue="zeroOrOne"><desc/><g alignment-baseline="baseline" transform="translate(0, 2.5)" id="modeld9e60_attributName_d9e68"><g><rect height="25" width="41" rx="10" ry="10" stroke="#F5844C" stoke-width="1" fill="white" stroke-dasharray="5,5"/></g><text x="5" y="16" fill="black" font-family="arial, helvetica, sans-serif" font-size="11">sqf:fix</text></g><g transform="translate(41, 0)" sqf:z-index="0"><svg width="332" height="221" class="annotation"><g visibility="hidden" style="z-index:1000"><set attributeName="visibility" to="visible" begin="modeld9e60_attributName_d9e68.mouseover" end="modeld9e60_attributName_d9e68.mouseout" sqf:dokuViewer="modeld9e60_attributName_d9e68"/><g transform="translate(1,1)"><path d="M 20 0 Q 10 0 10 10 L 10 10 L 0 15 L 10 20 L 10 204 Q 10 214 20 214 L 320 214 Q 330 214 330 204 L 330 10 Q 330 0 320 0 Z" fill="white" opacity="1" stroke="#F5844C" stroke-width="1"/><path d="M 20 0 Q 10 0 10 10 L 10 10 L 0 15 L 10 20 L 10 204 Q 10 214 20 214 L 320 214 Q 330 214 330 204 L 330 10 Q 330 0 320 0 Z" fill="#F5844C" opacity="0.1" stroke="#F5844C" stroke-width="1"/><path d="M 20 0 Q 10 0 10 10 L 10 10 L 0 15 L 10 20 L 10 204 Q 10 214 20 214 L 320 214 Q 330 214 330 204 L 330 10 Q 330 0 320 0 Z" fill="none" opacity="1" stroke="#F5844C" stroke-width="1"/><g transform="translate(20,5)"><svg width="300" height="18" class="text_box"><text fill="black" font-family="arial, helvetica, sans-serif" font-size="11" font-weight="bold"><tspan sqf:length="83" y="16" x="0">Documentation</tspan></text></svg></g><g transform="translate(20,23)"><svg width="300" height="72" class="text_box"><text fill="black" font-family="arial, helvetica, sans-serif" font-size="11"><tspan sqf:length="23" y="16" x="0">This </tspan><tspan sqf:length="42" y="16">attribute </tspan><tspan sqf:length="33" y="16">refers </tspan><tspan sqf:length="12" y="16">to </tspan><tspan sqf:length="21" y="16">one </tspan><tspan sqf:length="13" y="16">or </tspan><tspan sqf:length="27" y="16">more </tspan><tspan sqf:length="56" y="16">QuickFixes </tspan><tspan sqf:length="27" y="16">wich </tspan><tspan sqf:length="35" y="16">should </tspan><tspan sqf:length="15" y="32" x="0">be </tspan><tspan sqf:length="47" y="32">assigned </tspan><tspan sqf:length="12" y="32">to </tspan><tspan sqf:length="18" y="32">the </tspan><tspan sqf:length="61" y="32">Schematron </tspan><tspan sqf:length="34" y="32">assert </tspan><tspan sqf:length="13" y="32">or </tspan><tspan sqf:length="35" y="32">report. </tspan><tspan sqf:length="27" y="32">Each </tspan><tspan sqf:length="43" y="48" x="0">referred </tspan><tspan sqf:length="44" y="48">QuickFix </tspan><tspan sqf:length="26" y="48">must </tspan><tspan sqf:length="15" y="48">be </tspan><tspan sqf:length="39" y="48">defined </tspan><tspan sqf:length="39" y="48">globally </tspan><tspan sqf:length="13" y="48">or </tspan><tspan sqf:length="33" y="48">locally </tspan><tspan sqf:length="17" y="48">for </tspan><tspan sqf:length="18" y="48">the </tspan><tspan sqf:length="29" y="64" x="0">same </tspan><tspan sqf:length="61" y="64">Schematron </tspan><tspan sqf:length="21" y="64">rule.</tspan></text></svg></g><g transform="translate(20,95)"><svg width="300" height="56" class="text_box"><text fill="black" font-family="arial, helvetica, sans-serif" font-size="11"><tspan sqf:length="21" y="16" x="0">The </tspan><tspan sqf:length="51" y="16">reference </tspan><tspan sqf:length="34" y="16">works </tspan><tspan sqf:length="24" y="16">with </tspan><tspan sqf:length="18" y="16">the </tspan><tspan sqf:length="12" y="16">ID </tspan><tspan sqf:length="13" y="16">of </tspan><tspan sqf:length="18" y="16">the </tspan><tspan sqf:length="47" y="16">QuickFix. </tspan><tspan sqf:length="9" y="16">If </tspan><tspan sqf:length="28" y="16">there </tspan><tspan sqf:length="11" y="16">is </tspan><tspan sqf:length="9" y="16">a </tspan><tspan sqf:length="25" y="32" x="0">local </tspan><tspan sqf:length="21" y="32">and </tspan><tspan sqf:length="9" y="32">a </tspan><tspan sqf:length="31" y="32">global </tspan><tspan sqf:length="44" y="32">QuickFix </tspan><tspan sqf:length="35" y="32">having </tspan><tspan sqf:length="18" y="32">the </tspan><tspan sqf:length="29" y="32">same </tspan><tspan sqf:length="15" y="32">ID, </tspan><tspan sqf:length="18" y="32">the </tspan><tspan sqf:length="25" y="32">local </tspan><tspan sqf:length="44" y="48" x="0">QuickFix </tspan><tspan sqf:length="19" y="48">will </tspan><tspan sqf:length="15" y="48">be </tspan><tspan sqf:length="44" y="48">selected.</tspan></text></svg></g><g transform="translate(20,151)"><svg width="300" height="18" class="text_box"><text fill="black" font-family="arial, helvetica, sans-serif" font-size="11" font-weight="bold"><tspan sqf:length="31" y="16" x="0">Value</tspan></text></svg></g><g transform="translate(20,169)"><svg width="300" height="40" class="text_box"><text fill="black" font-family="arial, helvetica, sans-serif" font-size="11"><tspan sqf:length="11" y="16" x="0">A </tspan><tspan sqf:length="16" y="16">list </tspan><tspan sqf:length="13" y="16">of </tspan><tspan sqf:length="18" y="16">IDs </tspan><tspan sqf:length="13" y="16">of </tspan><tspan sqf:length="18" y="16">the </tspan><tspan sqf:length="43" y="16">referred </tspan><tspan sqf:length="56" y="16">QuickFixes </tspan><tspan sqf:length="52" y="16">separated </tspan><tspan sqf:length="15" y="16">by </tspan><tspan sqf:length="30" y="16">white </tspan><tspan sqf:length="33" y="32" x="0">space.</tspan></text></svg></g></g></g></svg></g></svg></g></svg></g></g><g transform="translate(0, 32.5)"><svg xmlns:java="java:java.lang.Math" width="112" height="60" sqf:cY="30" class="objectPaths" sqf:multiValue="one"><path stroke="#007" stroke-width="1" fill="none" d="M 112 30 L 87 30"/><path stroke="#007" stroke-width="1" fill="none" d="M 62 45 L 80 45 Q 87 45 87 38 L 87 30"/><g transform="translate(2,                                         30)"><svg width="60" height="30" sqf:cY="15"><g alignment-baseline="baseline" id="modeld9e60_d5e382_parentOf_" transform="translate( 0, 2.5)"><a xlink:href="#sch_report" target="_top"><g><rect width="60" height="25" rx="10" ry="10" stroke="#007" stoke-width="1" fill="white"/></g><text x="5" y="16" fill="black" font-family="arial, helvetica, sans-serif" font-size="11">sch:report</text></a></g><g transform="translate(60, 2.5)"/></svg></g><path stroke="#007" stroke-width="1" fill="none" d="M 62 15 L 80 15 Q 87 15 87 22 L 87 30"/><g transform="translate(0,                                         0)"><svg width="62" height="30" sqf:cY="15"><g alignment-baseline="baseline" id="modeld9e60_d5e107_parentOf_" transform="translate( 0, 2.5)"><a xlink:href="#sch_assert" target="_top"><g><rect width="62" height="25" rx="10" ry="10" stroke="#007" stoke-width="1" fill="white"/></g><text x="5" y="16" fill="black" font-family="arial, helvetica, sans-serif" font-size="11">sch:assert</text></a></g><g transform="translate(62, 2.5)"/></svg></g></svg></g></svg>