<?xml version="1.0" encoding="UTF-8"?><svg xmlns:saxon="http://saxon.sf.net/" xmlns:sqf="http://www.schematron-quickfix.com/validator/process" xmlns:svg="http://www.w3.org/2000/svg" xmlns:d2t="java:com.d2t.saxon.d2tSaxonExtensions" xmlns:xlink="http://www.w3.org/1999/xlink" xmlns="http://www.w3.org/2000/svg" xmlns:xsi="http://www.w3.org/2001/XMLSchema-instance" width="287.5" height="130" sqf:cY="77.5" sqf:displayW="0" sqf:displayH="0" class="element_group" sqf:multiValue="one"><g transform="translate(130, 5)" id="modeld9e115_group_d9e115"><rect width="152.5" height="120" rx="7" ry="7" fill="white" stroke="#F5844C" stroke-width="1"/><rect width="152.5" height="120" rx="7" ry="7" fill="white" stroke="#F5844C" stroke-width="1"/><path fill="#F5844C" opacity="0.1" d="M 0 25 L 0 7 Q 0 0 7 0 L 145.5 0 Q 152.5 0 152.5 7 L 152.5 25 Z"/><svg xmlns:java="java:java.lang.Math" width="150" height="25"><g transform="translate(3,3)"><rect width="5" height="5" x="6" y="3" fill="#F5844C" opacity="0.5"/><rect width="5" height="5" x="6" y="11" fill="#F5844C" opacity="0.5"/><rect width="5" height="5" x="14" y="11" fill="#F5844C" opacity="0.5"/><rect width="5" height="5" x="6" y="3" fill="none" stroke="#F5844C" stroke-width="0.75" opacity="1"/><rect width="5" height="5" x="6" y="11" fill="none" stroke="#F5844C" stroke-width="0.75" opacity="1"/><rect width="5" height="5" x="14" y="11" fill="none" stroke="#F5844C" stroke-width="0.75" opacity="1"/><text x="26" y="13" fill="black" font-family="arial, helvetica, sans-serif" font-size="11">sqf:parameterAttributes</text></g></svg><path d="M 2.5 25 L 150 25" fill="none" stroke="#F5844C" stroke-width="0.25"/><g transform="translate(151, 0)" sqf:z-index="0"/><g transform="translate(0, 27.5)"><svg xmlns:java="java:java.lang.Math" width="112" height="90" sqf:cY="45" class="objectPaths" sqf:multiValue="one"><path stroke="#F5844C" stroke-width="1" fill="none" d="M 0 45 L 25 45"/><path stroke="#F5844C" stroke-width="1" fill="none" d="M 50 75 L 32 75 Q 25 75 25 68 L 25 45" stroke-dasharray="5,5"/><g transform="translate(50,                                         60)"><svg width="50" height="30" sqf:cY="15" class="attribute" id="modeld9e115_attribute_sqf_type" sqf:displayW="332" sqf:displayH="71" sqf:multiValue="zeroOrOne"><desc/><g alignment-baseline="baseline" transform="translate(0, 2.5)" id="modeld9e115_attributName_d9e144"><g><rect height="25" width="50" rx="10" ry="10" stroke="#F5844C" stoke-width="1" fill="white" stroke-dasharray="5,5"/></g><text x="5" y="16" fill="black" font-family="arial, helvetica, sans-serif" font-size="11">sqf:type</text></g><g transform="translate(50, 0)" sqf:z-index="0"><svg width="332" height="101" class="annotation"><g visibility="hidden" style="z-index:1000"><set attributeName="visibility" to="visible" begin="modeld9e115_attributName_d9e144.mouseover" end="modeld9e115_attributName_d9e144.mouseout" sqf:dokuViewer="modeld9e115_attributName_d9e144"/><g transform="translate(1,1)"><path d="M 20 0 Q 10 0 10 10 L 10 10 L 0 15 L 10 20 L 10 84 Q 10 94 20 94 L 320 94 Q 330 94 330 84 L 330 10 Q 330 0 320 0 Z" fill="white" opacity="1" stroke="#F5844C" stroke-width="1"/><path d="M 20 0 Q 10 0 10 10 L 10 10 L 0 15 L 10 20 L 10 84 Q 10 94 20 94 L 320 94 Q 330 94 330 84 L 330 10 Q 330 0 320 0 Z" fill="#F5844C" opacity="0.1" stroke="#F5844C" stroke-width="1"/><path d="M 20 0 Q 10 0 10 10 L 10 10 L 0 15 L 10 20 L 10 84 Q 10 94 20 94 L 320 94 Q 330 94 330 84 L 330 10 Q 330 0 320 0 Z" fill="none" opacity="1" stroke="#F5844C" stroke-width="1"/><g transform="translate(20,5)"><svg width="300" height="18" class="text_box"><text fill="black" font-family="arial, helvetica, sans-serif" font-size="11" font-weight="bold"><tspan sqf:length="83" y="16" x="0">Documentation</tspan></text></svg></g><g transform="translate(20,23)"><svg width="300" height="24" class="text_box"><text fill="black" font-family="arial, helvetica, sans-serif" font-size="11"><tspan sqf:length="23" y="16" x="0">This </tspan><tspan sqf:length="42" y="16">attribute </tspan><tspan sqf:length="39" y="16">defines </tspan><tspan sqf:length="18" y="16">the </tspan><tspan sqf:length="24" y="16">type </tspan><tspan sqf:length="13" y="16">of </tspan><tspan sqf:length="18" y="16">the </tspan><tspan sqf:length="52" y="16">parameter </tspan><tspan sqf:length="13" y="16">or </tspan><tspan sqf:length="26" y="16">User </tspan><tspan sqf:length="28" y="16">Entry.</tspan></text></svg></g><g transform="translate(20,47)"><svg width="300" height="18" class="text_box"><text fill="black" font-family="arial, helvetica, sans-serif" font-size="11" font-weight="bold"><tspan sqf:length="31" y="16" x="0">Value</tspan></text></svg></g><g transform="translate(20,65)"><svg width="300" height="24" class="text_box"><text fill="black" font-family="arial, helvetica, sans-serif" font-size="11"><tspan sqf:length="21" y="16" x="0">The </tspan><tspan sqf:length="29" y="16">value </tspan><tspan sqf:length="35" y="16">should </tspan><tspan sqf:length="15" y="16">be </tspan><tspan sqf:length="9" y="16">a </tspan><tspan sqf:length="25" y="16">valid </tspan><tspan sqf:length="24" y="16">XML </tspan><tspan sqf:length="42" y="16">Schema </tspan><tspan sqf:length="24" y="16">type.</tspan></text></svg></g></g></g></svg></g></svg></g><path stroke="#F5844C" stroke-width="1" fill="none" d="M 25 45 L 50 45" stroke-dasharray="5,5"/><path stroke="#F5844C" stroke-width="1" fill="none" d="M 25 45 L 25 45" stroke-dasharray="5,5"/><g transform="translate(50,                                         30)"><svg width="62" height="30" sqf:cY="15" class="attribute" id="modeld9e115_attribute_sqf_default" sqf:displayW="332" sqf:displayH="103" sqf:multiValue="zeroOrOne"><desc/><g alignment-baseline="baseline" transform="translate(0, 2.5)" id="modeld9e115_attributName_d9e129"><g><rect height="25" width="62" rx="10" ry="10" stroke="#F5844C" stoke-width="1" fill="white" stroke-dasharray="5,5"/></g><text x="5" y="16" fill="black" font-family="arial, helvetica, sans-serif" font-size="11">sqf:default</text></g><g transform="translate(62, 0)" sqf:z-index="0"><svg width="332" height="133" class="annotation"><g visibility="hidden" style="z-index:1000"><set attributeName="visibility" to="visible" begin="modeld9e115_attributName_d9e129.mouseover" end="modeld9e115_attributName_d9e129.mouseout" sqf:dokuViewer="modeld9e115_attributName_d9e129"/><g transform="translate(1,1)"><path d="M 20 0 Q 10 0 10 10 L 10 10 L 0 15 L 10 20 L 10 116 Q 10 126 20 126 L 320 126 Q 330 126 330 116 L 330 10 Q 330 0 320 0 Z" fill="white" opacity="1" stroke="#F5844C" stroke-width="1"/><path d="M 20 0 Q 10 0 10 10 L 10 10 L 0 15 L 10 20 L 10 116 Q 10 126 20 126 L 320 126 Q 330 126 330 116 L 330 10 Q 330 0 320 0 Z" fill="#F5844C" opacity="0.1" stroke="#F5844C" stroke-width="1"/><path d="M 20 0 Q 10 0 10 10 L 10 10 L 0 15 L 10 20 L 10 116 Q 10 126 20 126 L 320 126 Q 330 126 330 116 L 330 10 Q 330 0 320 0 Z" fill="none" opacity="1" stroke="#F5844C" stroke-width="1"/><g transform="translate(20,5)"><svg width="300" height="18" class="text_box"><text fill="black" font-family="arial, helvetica, sans-serif" font-size="11" font-weight="bold"><tspan sqf:length="83" y="16" x="0">Documentation</tspan></text></svg></g><g transform="translate(20,23)"><svg width="300" height="56" class="text_box"><text fill="black" font-family="arial, helvetica, sans-serif" font-size="11"><tspan sqf:length="23" y="16" x="0">This </tspan><tspan sqf:length="42" y="16">attribute </tspan><tspan sqf:length="39" y="16">defines </tspan><tspan sqf:length="9" y="16">a </tspan><tspan sqf:length="36" y="16">default </tspan><tspan sqf:length="29" y="16">value </tspan><tspan sqf:length="17" y="16">for </tspan><tspan sqf:length="9" y="16">a </tspan><tspan sqf:length="52" y="16">parameter </tspan><tspan sqf:length="13" y="16">or </tspan><tspan sqf:length="26" y="16">User </tspan><tspan sqf:length="28" y="32" x="0">Entry </tspan><tspan sqf:length="15" y="32">by </tspan><tspan sqf:length="29" y="32">using </tspan><tspan sqf:length="9" y="32">a </tspan><tspan sqf:length="31" y="32">XPath </tspan><tspan sqf:length="60" y="32">expression. </tspan><tspan sqf:length="9" y="32">If </tspan><tspan sqf:length="18" y="32">the </tspan><tspan sqf:length="42" y="32">attribute </tspan><tspan sqf:length="11" y="32">is </tspan><tspan sqf:length="18" y="32">set </tspan><tspan sqf:length="12" y="32">to </tspan><tspan sqf:length="9" y="32">a </tspan><tspan sqf:length="52" y="48" x="0">sqf:param </tspan><tspan sqf:length="43" y="48">element, </tspan><tspan sqf:length="18" y="48">the </tspan><tspan sqf:length="40" y="48">element </tspan><tspan sqf:length="26" y="48">must </tspan><tspan sqf:length="15" y="48">be </tspan><tspan sqf:length="32" y="48">empty.</tspan></text></svg></g><g transform="translate(20,79)"><svg width="300" height="18" class="text_box"><text fill="black" font-family="arial, helvetica, sans-serif" font-size="11" font-weight="bold"><tspan sqf:length="31" y="16" x="0">Value</tspan></text></svg></g><g transform="translate(20,97)"><svg width="300" height="24" class="text_box"><text fill="black" font-family="arial, helvetica, sans-serif" font-size="11"><tspan sqf:length="26" y="16" x="0">Must </tspan><tspan sqf:length="15" y="16">be </tspan><tspan sqf:length="9" y="16">a </tspan><tspan sqf:length="25" y="16">valid </tspan><tspan sqf:length="31" y="16">XPath </tspan><tspan sqf:length="57" y="16">expression.</tspan></text></svg></g></g></g></svg></g></svg></g><path stroke="#F5844C" stroke-width="1" fill="none" d="M 50 15 L 32 15 Q 25 15 25 22 L 25 45"/><g transform="translate(50,                                         0)"><svg width="55" height="30" sqf:cY="15" class="attribute" id="modeld9e115_attribute_sqf_name" sqf:displayW="332" sqf:displayH="87" sqf:multiValue="one"><desc/><g alignment-baseline="baseline" transform="translate(0, 2.5)" id="modeld9e115_attributName_d9e117"><g><rect height="25" width="55" rx="10" ry="10" stroke="#F5844C" stoke-width="1" fill="white"/></g><text x="5" y="16" fill="black" font-family="arial, helvetica, sans-serif" font-size="11">sqf:name</text></g><g transform="translate(55, 0)" sqf:z-index="0"><svg width="332" height="117" class="annotation"><g visibility="hidden" style="z-index:1000"><set attributeName="visibility" to="visible" begin="modeld9e115_attributName_d9e117.mouseover" end="modeld9e115_attributName_d9e117.mouseout" sqf:dokuViewer="modeld9e115_attributName_d9e117"/><g transform="translate(1,1)"><path d="M 20 0 Q 10 0 10 10 L 10 10 L 0 15 L 10 20 L 10 100 Q 10 110 20 110 L 320 110 Q 330 110 330 100 L 330 10 Q 330 0 320 0 Z" fill="white" opacity="1" stroke="#F5844C" stroke-width="1"/><path d="M 20 0 Q 10 0 10 10 L 10 10 L 0 15 L 10 20 L 10 100 Q 10 110 20 110 L 320 110 Q 330 110 330 100 L 330 10 Q 330 0 320 0 Z" fill="#F5844C" opacity="0.1" stroke="#F5844C" stroke-width="1"/><path d="M 20 0 Q 10 0 10 10 L 10 10 L 0 15 L 10 20 L 10 100 Q 10 110 20 110 L 320 110 Q 330 110 330 100 L 330 10 Q 330 0 320 0 Z" fill="none" opacity="1" stroke="#F5844C" stroke-width="1"/><g transform="translate(20,5)"><svg width="300" height="18" class="text_box"><text fill="black" font-family="arial, helvetica, sans-serif" font-size="11" font-weight="bold"><tspan sqf:length="83" y="16" x="0">Documentation</tspan></text></svg></g><g transform="translate(20,23)"><svg width="300" height="40" class="text_box"><text fill="black" font-family="arial, helvetica, sans-serif" font-size="11"><tspan sqf:length="23" y="16" x="0">This </tspan><tspan sqf:length="42" y="16">attribute </tspan><tspan sqf:length="39" y="16">defines </tspan><tspan sqf:length="18" y="16">the </tspan><tspan sqf:length="29" y="16">name </tspan><tspan sqf:length="13" y="16">of </tspan><tspan sqf:length="18" y="16">the </tspan><tspan sqf:length="52" y="16">parameter </tspan><tspan sqf:length="13" y="16">or </tspan><tspan sqf:length="26" y="16">User </tspan><tspan sqf:length="28" y="32" x="0">Entry.</tspan></text></svg></g><g transform="translate(20,63)"><svg width="300" height="18" class="text_box"><text fill="black" font-family="arial, helvetica, sans-serif" font-size="11" font-weight="bold"><tspan sqf:length="31" y="16" x="0">Value</tspan></text></svg></g><g transform="translate(20,81)"><svg width="300" height="24" class="text_box"><text fill="black" font-family="arial, helvetica, sans-serif" font-size="11"><tspan sqf:length="26" y="16" x="0">Must </tspan><tspan sqf:length="15" y="16">be </tspan><tspan sqf:length="35" y="16">unique </tspan><tspan sqf:length="32" y="16">within </tspan><tspan sqf:length="9" y="16">a </tspan><tspan sqf:length="44" y="16">QuickFix.</tspan></text></svg></g></g></g></svg></g></svg></g></svg></g></g><g transform="translate(0, 47.5)"><svg xmlns:java="java:java.lang.Math" width="130" height="60" sqf:cY="30" class="objectPaths" sqf:multiValue="one"><path stroke="#007" stroke-width="1" fill="none" d="M 130 30 L 105 30"/><path stroke="#007" stroke-width="1" fill="none" d="M 80 45 L 98 45 Q 105 45 105 38 L 105 30"/><g transform="translate(21,                                         30)"><svg width="59" height="30" sqf:cY="15"><g alignment-baseline="baseline" id="modeld9e115_d9e556_parentOf_" transform="translate( 0, 2.5)"><a xlink:href="#sqf_param" target="_top"><g><rect width="59" height="25" rx="10" ry="10" stroke="#007" stoke-width="1" fill="white"/></g><text x="5" y="16" fill="black" font-family="arial, helvetica, sans-serif" font-size="11">sqf:param</text></a></g><g transform="translate(59, 2.5)"><svg width="532" height="205" class="annotation"><g visibility="hidden" style="z-index:1000"><set attributeName="visibility" to="visible" begin="modeld9e115_d9e556_parentOf_.mouseover" end="modeld9e115_d9e556_parentOf_.mouseout" sqf:dokuViewer="modeld9e115_d9e556_parentOf_"/><g transform="translate(1,1)"><path d="M 17.5 0 Q 10 0 10 7.5 L 10 7.5 L 0 12.5 L 10 17.5 L 10 190.5 Q 10 198 17.5 198 L 522.5 198 Q 530 198 530 190.5 L 530 7.5 Q 530 0 522.5 0 Z" fill="white" opacity="1" stroke="#007" stroke-width="1"/><path d="M 17.5 0 Q 10 0 10 7.5 L 10 7.5 L 0 12.5 L 10 17.5 L 10 190.5 Q 10 198 17.5 198 L 522.5 198 Q 530 198 530 190.5 L 530 7.5 Q 530 0 522.5 0 Z" fill="#007" opacity="0.1" stroke="#007" stroke-width="1"/><path d="M 17.5 0 Q 10 0 10 7.5 L 10 7.5 L 0 12.5 L 10 17.5 L 10 190.5 Q 10 198 17.5 198 L 522.5 198 Q 530 198 530 190.5 L 530 7.5 Q 530 0 522.5 0 Z" fill="none" opacity="1" stroke="#007" stroke-width="1"/><g transform="translate(20,5)"><svg width="500" height="18" class="text_box"><text fill="black" font-family="arial, helvetica, sans-serif" font-size="11" font-weight="bold"><tspan sqf:length="83" y="16" x="0">Documentation</tspan></text></svg></g><g transform="translate(20,23)"><svg width="500" height="40" class="text_box"><text fill="black" font-family="arial, helvetica, sans-serif" font-size="11"><tspan sqf:length="23" y="16" x="0">This </tspan><tspan sqf:length="40" y="16">element </tspan><tspan sqf:length="39" y="16">defines </tspan><tspan sqf:length="9" y="16">a </tspan><tspan sqf:length="52" y="16">parameter </tspan><tspan sqf:length="17" y="16">for </tspan><tspan sqf:length="9" y="16">a </tspan><tspan sqf:length="47" y="16">QuickFix. </tspan><tspan sqf:length="21" y="16">The </tspan><tspan sqf:length="52" y="16">parameter </tspan><tspan sqf:length="21" y="16">can </tspan><tspan sqf:length="15" y="16">be </tspan><tspan sqf:length="27" y="16">used </tspan><tspan sqf:length="18" y="16">like </tspan><tspan sqf:length="9" y="16">a </tspan><tspan sqf:length="41" y="16">variable </tspan><tspan sqf:length="32" y="16">within </tspan><tspan sqf:length="18" y="16">the </tspan><tspan sqf:length="47" y="32" x="0">QuickFix. </tspan><tspan sqf:length="21" y="32">The </tspan><tspan sqf:length="29" y="32">value </tspan><tspan sqf:length="21" y="32">can </tspan><tspan sqf:length="15" y="32">be </tspan><tspan sqf:length="18" y="32">set </tspan><tspan sqf:length="15" y="32">by </tspan><tspan sqf:length="18" y="32">the </tspan><tspan sqf:length="44" y="32">sqf:with-</tspan><tspan sqf:length="33" y="32">param </tspan><tspan sqf:length="40" y="32">element.</tspan></text></svg></g><g transform="translate(20,63)"><svg width="500" height="24" class="text_box"><text fill="black" font-family="arial, helvetica, sans-serif" font-size="11"><tspan sqf:length="21" y="16" x="0">The </tspan><tspan sqf:length="39" y="16">content </tspan><tspan sqf:length="39" y="16">defines </tspan><tspan sqf:length="9" y="16">a </tspan><tspan sqf:length="36" y="16">default </tspan><tspan sqf:length="29" y="16">value </tspan><tspan sqf:length="17" y="16">for </tspan><tspan sqf:length="18" y="16">the </tspan><tspan sqf:length="52" y="16">parameter.</tspan></text></svg></g><g transform="translate(20,87)"><svg width="500" height="18" class="text_box"><text fill="black" font-family="arial, helvetica, sans-serif" font-size="11" font-weight="bold"><tspan sqf:length="53" y="16" x="0">Exception</tspan></text></svg></g><g transform="translate(20,105)"><svg width="500" height="88" class="text_box"><text fill="black" font-family="arial, helvetica, sans-serif" font-size="11"><tspan sqf:length="45" y="16" x="0">Abstract </tspan><tspan sqf:length="58" y="16">parameters </tspan><tspan sqf:length="25" y="16">(see </tspan><tspan sqf:length="42" y="16">attribute </tspan><tspan sqf:length="47" y="16">abstract) </tspan><tspan sqf:length="21" y="16">can </tspan><tspan sqf:length="18" y="16">not </tspan><tspan sqf:length="27" y="16">used </tspan><tspan sqf:length="15" y="16">as </tspan><tspan sqf:length="35" y="16">normal </tspan><tspan sqf:length="31" y="16">XPath </tspan><tspan sqf:length="50" y="16">variables. </tspan><tspan sqf:length="17" y="16">An </tspan><tspan sqf:length="43" y="16">abstract </tspan><tspan sqf:length="52" y="32" x="0">parameter </tspan><tspan sqf:length="48" y="32">declares, </tspan><tspan sqf:length="21" y="32">that </tspan><tspan sqf:length="18" y="32">the </tspan><tspan sqf:length="38" y="32">current </tspan><tspan sqf:length="44" y="32">QuickFix </tspan><tspan sqf:length="27" y="32">uses </tspan><tspan sqf:length="9" y="32">a </tspan><tspan sqf:length="52" y="32">parameter </tspan><tspan sqf:length="13" y="32">of </tspan><tspan sqf:length="15" y="32">an </tspan><tspan sqf:length="43" y="32">abstract </tspan><tspan sqf:length="40" y="32">pattern. </tspan><tspan sqf:length="11" y="32">A </tspan><tspan sqf:length="44" y="32">QuickFix </tspan><tspan sqf:length="24" y="32">with </tspan><tspan sqf:length="21" y="48" x="0">one </tspan><tspan sqf:length="13" y="48">or </tspan><tspan sqf:length="27" y="48">more </tspan><tspan sqf:length="43" y="48">abstract </tspan><tspan sqf:length="58" y="48">parameters </tspan><tspan sqf:length="21" y="48">can </tspan><tspan sqf:length="20" y="48">just </tspan><tspan sqf:length="27" y="48">used </tspan><tspan sqf:length="15" y="48">by </tspan><tspan sqf:length="43" y="48">abstract </tspan><tspan sqf:length="46" y="48">patterns. </tspan><tspan sqf:length="21" y="48">The </tspan><tspan sqf:length="29" y="48">value </tspan><tspan sqf:length="13" y="48">of </tspan><tspan sqf:length="18" y="48">the </tspan><tspan sqf:length="52" y="48">parameter </tspan><tspan sqf:length="19" y="48">will </tspan><tspan sqf:length="15" y="64" x="0">be </tspan><tspan sqf:length="18" y="64">set </tspan><tspan sqf:length="15" y="64">by </tspan><tspan sqf:length="18" y="64">the </tspan><tspan sqf:length="60" y="64">instantiation </tspan><tspan sqf:length="13" y="64">of </tspan><tspan sqf:length="18" y="64">the </tspan><tspan sqf:length="43" y="64">abstract </tspan><tspan sqf:length="37" y="64">pattern </tspan><tspan sqf:length="51" y="64">according </tspan><tspan sqf:length="12" y="64">to </tspan><tspan sqf:length="18" y="64">the </tspan><tspan sqf:length="61" y="64">Schematron </tspan><tspan sqf:length="67" y="64">specification. </tspan><tspan sqf:length="21" y="64">The </tspan><tspan sqf:length="60" y="80" x="0">instantiation </tspan><tspan sqf:length="13" y="80">of </tspan><tspan sqf:length="18" y="80">the </tspan><tspan sqf:length="43" y="80">abstract </tspan><tspan sqf:length="37" y="80">pattern </tspan><tspan sqf:length="26" y="80">must </tspan><tspan sqf:length="39" y="80">specify </tspan><tspan sqf:length="9" y="80">a </tspan><tspan sqf:length="29" y="80">value </tspan><tspan sqf:length="17" y="80">for </tspan><tspan sqf:length="31" y="80">every </tspan><tspan sqf:length="43" y="80">abstract </tspan><tspan sqf:length="52" y="80">parameter </tspan><tspan sqf:length="13" y="80">of </tspan><tspan sqf:length="18" y="80">the </tspan><tspan sqf:length="44" y="80">QuickFix.</tspan></text></svg></g></g></g></svg></g></svg></g><path stroke="#007" stroke-width="1" fill="none" d="M 80 15 L 98 15 Q 105 15 105 22 L 105 30"/><g transform="translate(0,                                         0)"><svg width="80" height="30" sqf:cY="15"><g alignment-baseline="baseline" id="modeld9e115_d9e433_parentOf_" transform="translate( 0, 2.5)"><a xlink:href="#sqf_user-entry" target="_top"><g><rect width="80" height="25" rx="10" ry="10" stroke="#007" stoke-width="1" fill="white"/></g><text x="5" y="16" fill="black" font-family="arial, helvetica, sans-serif" font-size="11">sqf:user-entry</text></a></g><g transform="translate(80, 2.5)"><svg width="332" height="123" class="annotation"><g visibility="hidden" style="z-index:1000"><set attributeName="visibility" to="visible" begin="modeld9e115_d9e433_parentOf_.mouseover" end="modeld9e115_d9e433_parentOf_.mouseout" sqf:dokuViewer="modeld9e115_d9e433_parentOf_"/><g transform="translate(1,1)"><path d="M 17.5 0 Q 10 0 10 7.5 L 10 7.5 L 0 12.5 L 10 17.5 L 10 108.5 Q 10 116 17.5 116 L 322.5 116 Q 330 116 330 108.5 L 330 7.5 Q 330 0 322.5 0 Z" fill="white" opacity="1" stroke="#007" stroke-width="1"/><path d="M 17.5 0 Q 10 0 10 7.5 L 10 7.5 L 0 12.5 L 10 17.5 L 10 108.5 Q 10 116 17.5 116 L 322.5 116 Q 330 116 330 108.5 L 330 7.5 Q 330 0 322.5 0 Z" fill="#007" opacity="0.1" stroke="#007" stroke-width="1"/><path d="M 17.5 0 Q 10 0 10 7.5 L 10 7.5 L 0 12.5 L 10 17.5 L 10 108.5 Q 10 116 17.5 116 L 322.5 116 Q 330 116 330 108.5 L 330 7.5 Q 330 0 322.5 0 Z" fill="none" opacity="1" stroke="#007" stroke-width="1"/><g transform="translate(20,5)"><svg width="300" height="18" class="text_box"><text fill="black" font-family="arial, helvetica, sans-serif" font-size="11" font-weight="bold"><tspan sqf:length="83" y="16" x="0">Documentation</tspan></text></svg></g><g transform="translate(20,23)"><svg width="300" height="88" class="text_box"><text fill="black" font-family="arial, helvetica, sans-serif" font-size="11"><tspan sqf:length="40" y="16" x="0">Defines </tspan><tspan sqf:length="15" y="16">an </tspan><tspan sqf:length="25" y="16">user </tspan><tspan sqf:length="31" y="16">entry. </tspan><tspan sqf:length="24" y="16">With </tspan><tspan sqf:length="18" y="16">the </tspan><tspan sqf:length="23" y="16">help </tspan><tspan sqf:length="13" y="16">of </tspan><tspan sqf:length="18" y="16">the </tspan><tspan sqf:length="25" y="16">user </tspan><tspan sqf:length="31" y="16">entry, </tspan><tspan sqf:length="18" y="16">the </tspan><tspan sqf:length="25" y="32" x="0">user </tspan><tspan sqf:length="21" y="32">can </tspan><tspan sqf:length="39" y="32">interact </tspan><tspan sqf:length="24" y="32">with </tspan><tspan sqf:length="18" y="32">the </tspan><tspan sqf:length="47" y="32">QuickFix. </tspan><tspan sqf:length="21" y="32">The </tspan><tspan sqf:length="25" y="32">user </tspan><tspan sqf:length="28" y="32">entry </tspan><tspan sqf:length="33" y="32">refers </tspan><tspan sqf:length="12" y="32">to </tspan><tspan sqf:length="9" y="48" x="0">a </tspan><tspan sqf:length="52" y="48">sqf:param </tspan><tspan sqf:length="43" y="48">element. </tspan><tspan sqf:length="21" y="48">The </tspan><tspan sqf:length="29" y="48">value </tspan><tspan sqf:length="13" y="48">of </tspan><tspan sqf:length="18" y="48">the </tspan><tspan sqf:length="52" y="48">parameter </tspan><tspan sqf:length="11" y="48">is </tspan><tspan sqf:length="18" y="48">set </tspan><tspan sqf:length="45" y="64" x="0">manually </tspan><tspan sqf:length="15" y="64">by </tspan><tspan sqf:length="18" y="64">the </tspan><tspan sqf:length="28" y="64">user. </tspan><tspan sqf:length="21" y="64">The </tspan><tspan sqf:length="73" y="64">implementation </tspan><tspan sqf:length="35" y="64">should </tspan><tspan sqf:length="39" y="64">provide </tspan><tspan sqf:length="18" y="64">the </tspan><tspan sqf:length="25" y="80" x="0">user </tspan><tspan sqf:length="28" y="80">entry </tspan><tspan sqf:length="31" y="80">when </tspan><tspan sqf:length="18" y="80">the </tspan><tspan sqf:length="25" y="80">user </tspan><tspan sqf:length="38" y="80">selects </tspan><tspan sqf:length="18" y="80">the </tspan><tspan sqf:length="44" y="80">QuickFix.</tspan></text></svg></g></g></g></svg></g></svg></g></svg></g></svg>