<?xml version="1.0" encoding="UTF-8"?><svg xmlns:saxon="http://saxon.sf.net/" xmlns:sqf="http://www.schematron-quickfix.com/validator/process" xmlns:svg="http://www.w3.org/2000/svg" xmlns:d2t="java:com.d2t.saxon.d2tSaxonExtensions" xmlns:xlink="http://www.w3.org/1999/xlink" xmlns="http://www.w3.org/2000/svg" xmlns:xsi="http://www.w3.org/2001/XMLSchema-instance" width="10" height="247" id="modeld9e410_sqf_description" sqf:cY="144.25" sqf:displayW="332" sqf:displayH="29"><desc/><g alignment-baseline="baseline" transform="translate(130, 131.75)" id="modeld9e410_elementRef_d9e410"><g><rect width="82" height="25" rx="10" ry="10" stroke="#007" stoke-width="1" fill="#88f"/></g><text x="5" y="16" fill="white" font-family="arial, helvetica, sans-serif" font-size="11">sqf:description</text></g><g transform="translate(212, 0)"><svg xmlns:java="java:java.lang.Math" width="308.5" height="247" sqf:cY="144.25" class="objectPaths" sqf:multiValue="one"><path stroke="#007" stroke-width="1" fill="none" d="M 0 144.25 L 25 144.25"/><path stroke="#007" stroke-width="1" fill="none" d="M 50 213.5 L 32 213.5 Q 25 213.5 25 206.5 L 25 144.25"/><g transform="translate(50,                                         183.5)"><svg width="95" height="63.5" class="sequence" sqf:cY="30" sqf:multiValue="one" sqf:minOccurs="1" sqf:maxOccurs="1"><g transform="translate(0,20)"><svg width="20" height="20" sqf:cY="10"><g><circle r="9.5" stroke="#007" stroke-width="1" cx="10" cy="10" fill="white"/><g><path d="M 0 10                          L 3 10                         M 8.5 10                         L 11.5 10                         M 17 10                         L 20 10" stroke="#007" fill="none" stroke-width="0.75"/><g transform="translate(3, 8)"><rect width="5.5" height="4" fill="#88f" stroke-width="1" stroke="#007"/></g><g transform="translate(11.5, 8)"><rect width="5.5" height="4" fill="#88f" stroke-width="1" stroke="#007"/></g></g></g></svg></g><g transform="translate(20,0)"><svg width="75" height="63.5" sqf:cY="30" class="objectPaths" sqf:multiValue="one"><path stroke="#007" stroke-width="1" fill="none" d="M 0 30 L 3 30"/><path stroke="#007" stroke-width="1" fill="none" d="M 30 43.5 L 10 43.5 Q 4.5 43.5 4.5 38 L 4.5 30" stroke-dasharray="5,5"/><path stroke="#007" stroke-width="1" fill="none" d="M 30 46.5 L 10 46.5 Q 1.5 46.5 1.5 38 L 1.5 30" stroke-dasharray="5,5"/><g transform="translate(30,                                         30)"><svg width="35" height="33.5" class="element_ref" sqf:cY="15" sqf:displayW="332" sqf:displayH="29" sqf:multiValue="zeroOrMore" sqf:minOccurs="0" sqf:maxOccurs="unbounded"><desc/><g alignment-baseline="baseline" class="svg-element-ref" transform="translate(0, 2.5)"><g id="modeld9e410_elementRef_d9e424"><rect height="25" width="35" rx="10" ry="10" stroke="#007" stoke-width="1" fill="white" stroke-dashoffset="2" stroke-dasharray="2" y="3.5" stroke-width="0.33"/><rect height="25" width="35" rx="10" ry="10" stroke="#007" stoke-width="1" fill="white" stroke-dashoffset="2" stroke-dasharray="2" y="2" stroke-width="0.66"/><rect height="25" width="35" rx="10" ry="10" stroke="#007" stoke-width="1" fill="white" stroke-dashoffset="2" stroke-dasharray="2"><set attributeName="fill" to="#88f" begin="modeld9e410_elementRef_d9e424.mouseover" end="modeld9e410_elementRef_d9e424.mouseout"/></rect><a xlink:href="#sqf_p" target="_top"><text x="5" y="16" fill="black" font-family="arial, helvetica, sans-serif" font-size="11"><set attributeName="fill" to="#fff" begin="modeld9e410_elementRef_d9e424.mouseover" end="modeld9e410_elementRef_d9e424.mouseout"/>sqf:p</text></a></g></g><g transform="translate(35, 0)" sqf:z-index="0"><svg width="332" height="59" class="annotation"><g visibility="hidden" style="z-index:1000"><set attributeName="visibility" to="visible" begin="modeld9e410_elementRef_d9e424.mouseover" end="modeld9e410_elementRef_d9e424.mouseout" sqf:dokuViewer="modeld9e410_elementRef_d9e424"/><g transform="translate(1,1)"><path d="M 20 0 Q 10 0 10 10 L 10 10 L 0 15 L 10 20 L 10 42 Q 10 52 20 52 L 320 52 Q 330 52 330 42 L 330 10 Q 330 0 320 0 Z" fill="white" opacity="1" stroke="#007" stroke-width="1"/><path d="M 20 0 Q 10 0 10 10 L 10 10 L 0 15 L 10 20 L 10 42 Q 10 52 20 52 L 320 52 Q 330 52 330 42 L 330 10 Q 330 0 320 0 Z" fill="#007" opacity="0.1" stroke="#007" stroke-width="1"/><path d="M 20 0 Q 10 0 10 10 L 10 10 L 0 15 L 10 20 L 10 42 Q 10 52 20 52 L 320 52 Q 330 52 330 42 L 330 10 Q 330 0 320 0 Z" fill="none" opacity="1" stroke="#007" stroke-width="1"/><g transform="translate(20,5)"><svg width="300" height="18" class="text_box"><text fill="black" font-family="arial, helvetica, sans-serif" font-size="11" font-weight="bold"><tspan sqf:length="83" y="16" x="0">Documentation</tspan></text></svg></g><g transform="translate(20,23)"><svg width="300" height="24" class="text_box"><text fill="black" font-family="arial, helvetica, sans-serif" font-size="11"><tspan sqf:length="53" y="16" x="0">Paragraph </tspan><tspan sqf:length="32" y="16">within </tspan><tspan sqf:length="9" y="16">a </tspan><tspan sqf:length="56" y="16">description.</tspan></text></svg></g></g></g></svg></g></svg></g><path stroke="#007" stroke-width="1" fill="none" d="M 30 15 L 10 15 Q 3 15 3 22 L 3 30"/><g transform="translate(30,                                         0)"><svg width="45" height="30" class="element_ref" sqf:cY="15" sqf:displayW="332" sqf:displayH="29" sqf:multiValue="one" sqf:minOccurs="1" sqf:maxOccurs="1"><desc/><g alignment-baseline="baseline" class="svg-element-ref" transform="translate(0, 2.5)"><g id="modeld9e410_elementRef_d9e422"><rect height="25" width="45" rx="10" ry="10" stroke="#007" stoke-width="1" fill="white"><set attributeName="fill" to="#88f" begin="modeld9e410_elementRef_d9e422.mouseover" end="modeld9e410_elementRef_d9e422.mouseout"/></rect><a xlink:href="#sqf_title" target="_top"><text x="5" y="16" fill="black" font-family="arial, helvetica, sans-serif" font-size="11"><set attributeName="fill" to="#fff" begin="modeld9e410_elementRef_d9e422.mouseover" end="modeld9e410_elementRef_d9e422.mouseout"/>sqf:title</text></a></g></g><g transform="translate(45, 0)" sqf:z-index="0"><svg width="332" height="59" class="annotation"><g visibility="hidden" style="z-index:1000"><set attributeName="visibility" to="visible" begin="modeld9e410_elementRef_d9e422.mouseover" end="modeld9e410_elementRef_d9e422.mouseout" sqf:dokuViewer="modeld9e410_elementRef_d9e422"/><g transform="translate(1,1)"><path d="M 20 0 Q 10 0 10 10 L 10 10 L 0 15 L 10 20 L 10 42 Q 10 52 20 52 L 320 52 Q 330 52 330 42 L 330 10 Q 330 0 320 0 Z" fill="white" opacity="1" stroke="#007" stroke-width="1"/><path d="M 20 0 Q 10 0 10 10 L 10 10 L 0 15 L 10 20 L 10 42 Q 10 52 20 52 L 320 52 Q 330 52 330 42 L 330 10 Q 330 0 320 0 Z" fill="#007" opacity="0.1" stroke="#007" stroke-width="1"/><path d="M 20 0 Q 10 0 10 10 L 10 10 L 0 15 L 10 20 L 10 42 Q 10 52 20 52 L 320 52 Q 330 52 330 42 L 330 10 Q 330 0 320 0 Z" fill="none" opacity="1" stroke="#007" stroke-width="1"/><g transform="translate(20,5)"><svg width="300" height="18" class="text_box"><text fill="black" font-family="arial, helvetica, sans-serif" font-size="11" font-weight="bold"><tspan sqf:length="83" y="16" x="0">Documentation</tspan></text></svg></g><g transform="translate(20,23)"><svg width="300" height="24" class="text_box"><text fill="black" font-family="arial, helvetica, sans-serif" font-size="11"><tspan sqf:length="30" y="16" x="0">Name </tspan><tspan sqf:length="13" y="16">of </tspan><tspan sqf:length="9" y="16">a </tspan><tspan sqf:length="44" y="16">QuickFix </tspan><tspan sqf:length="13" y="16">or </tspan><tspan sqf:length="9" y="16">a </tspan><tspan sqf:length="25" y="16">user </tspan><tspan sqf:length="28" y="16">entry.</tspan></text></svg></g></g></g></svg></g></svg></g></svg></g></svg></g><path stroke="#F5844C" stroke-width="1" fill="none" d="M 50 75 L 32 75 Q 25 75 25 82 L 25 144.25"/><g transform="translate(50,                                         0)"><svg width="258.5" height="183.5" class="attribute_box" sqf:cY="75" sqf:multiValue="one" sqf:stroke="#F5844C"><g transform="translate(0, 2.5)"><rect height="178.5" width="258.5" rx="10" ry="10" stroke="#F5844C" stoke-width="1" fill="white"/><g transform="translate(0, 2.5)"><svg width="256" height="173.5" sqf:cY="70" class="objectPaths" sqf:multiValue="one"><path stroke="#F5844C" stroke-width="1" fill="none" d="M 0 70 L 25 70"/><path stroke="#F5844C" stroke-width="1" fill="none" d="M 50 125 L 32 125 Q 25 125 25 118 L 25 70"/><g transform="translate(50,                                         30)"><svg width="206" height="143.5" sqf:cY="95" sqf:displayW="0" sqf:displayH="0" class="element_group" sqf:multiValue="one"><g transform="translate(0, 5)" id="modeld9e410_group_d9e429"><rect width="201" height="133.5" rx="7" ry="7" fill="white" stroke="#007" stroke-width="1"/><rect width="201" height="133.5" rx="7" ry="7" fill="white" stroke="#007" stroke-width="1"/><a xlink:href="#sch_foreign" target="_top"><svg width="90" height="25"><g transform="translate(3,3)"><rect width="5" height="5" x="6" y="3" fill="#007" opacity="0.5"/><rect width="5" height="5" x="6" y="11" fill="#007" opacity="0.5"/><rect width="5" height="5" x="14" y="11" fill="#007" opacity="0.5"/><rect width="5" height="5" x="6" y="3" fill="none" stroke="#007" stroke-width="0.75" opacity="1"/><rect width="5" height="5" x="6" y="11" fill="none" stroke="#007" stroke-width="0.75" opacity="1"/><rect width="5" height="5" x="14" y="11" fill="none" stroke="#007" stroke-width="0.75" opacity="1"/><text x="26" y="13" fill="black" font-family="arial, helvetica, sans-serif" font-size="11">sch:foreign</text></g></svg><path d="M 2.5 25 L 198.5 25" fill="none" stroke="#007" stroke-width="0.25"/></a><g transform="translate(199.5, 0)" sqf:z-index="0"/><g transform="translate(0, 27.5)"><svg width="198.5" height="103.5" sqf:cY="62.5" class="objectPaths" sqf:multiValue="one"><path stroke="#007" stroke-width="1" fill="none" d="M 0 62.5 L 25 62.5"/><g transform="translate(25,                                         0)"><svg width="173.5" height="103.5" class="sequence" sqf:cY="62.5" sqf:multiValue="one" sqf:minOccurs="1" sqf:maxOccurs="1"><g transform="translate(0,52.5)"><svg width="20" height="20" sqf:cY="10"><g><circle r="9.5" stroke="#007" stroke-width="1" cx="10" cy="10" fill="white"/><g><path d="M 0 10                          L 3 10                         M 8.5 10                         L 11.5 10                         M 17 10                         L 20 10" stroke="#007" fill="none" stroke-width="0.75"/><g transform="translate(3, 8)"><rect width="5.5" height="4" fill="#88f" stroke-width="1" stroke="#007"/></g><g transform="translate(11.5, 8)"><rect width="5.5" height="4" fill="#88f" stroke-width="1" stroke="#007"/></g></g></g></svg></g><g transform="translate(20,0)"><svg width="153.5" height="103.5" sqf:cY="62.5" class="objectPaths" sqf:multiValue="zeroOrMore"><path stroke="#007" stroke-width="1" fill="none" d="M 0 61 L 15 61" stroke-dasharray="3,3"/><path stroke="#007" stroke-width="1" fill="none" d="M 0 64 L 15 64" stroke-dasharray="3,3"/><g transform="translate(15,                                         0)"><svg width="138.5" height="103.5" sqf:cY="62.5" sqf:displayW="0" sqf:displayH="0" class="element_group" sqf:multiValue="zeroOrMore"><g transform="translate(0, 5)" id="modeld9e410_group_d5e538"><rect width="133.5" height="90" rx="7" ry="7" fill="white" stroke="#007" stroke-width="0.33" stroke-dashoffset="2" stroke-dasharray="2" y="3.5"/><rect width="133.5" height="90" rx="7" ry="7" fill="white" stroke="#007" stroke-width="0.66" stroke-dashoffset="2" stroke-dasharray="2" y="2"/><rect width="133.5" height="90" rx="7" ry="7" fill="white" stroke="#007" stroke-width="1" stroke-dashoffset="2" stroke-dasharray="2"/><rect width="133.5" height="90" rx="7" ry="7" fill="white" stroke="#007" stroke-width="1"/><a xlink:href="#sch_foreign-element" target="_top"><svg width="131" height="25"><g transform="translate(3,3)"><rect width="5" height="5" x="6" y="3" fill="#007" opacity="0.5"/><rect width="5" height="5" x="6" y="11" fill="#007" opacity="0.5"/><rect width="5" height="5" x="14" y="11" fill="#007" opacity="0.5"/><rect width="5" height="5" x="6" y="3" fill="none" stroke="#007" stroke-width="0.75" opacity="1"/><rect width="5" height="5" x="6" y="11" fill="none" stroke="#007" stroke-width="0.75" opacity="1"/><rect width="5" height="5" x="14" y="11" fill="none" stroke="#007" stroke-width="0.75" opacity="1"/><text x="26" y="13" fill="black" font-family="arial, helvetica, sans-serif" font-size="11">sch:foreign-element</text></g></svg><path d="M 2.5 25 L 131 25" fill="none" stroke="#007" stroke-width="0.25"/></a><g transform="translate(132, 0)" sqf:z-index="0"/><g transform="translate(0, 27.5)"><svg width="107" height="60" sqf:cY="30" class="objectPaths" sqf:multiValue="one"><path stroke="#007" stroke-width="1" fill="none" d="M 0 30 L 25 30"/><g transform="translate(25,                                         0)"><svg width="82" height="60" class="choice" sqf:cY="30" sqf:multiValue="one"><g transform="translate(0,20)"><svg width="20" height="20" sqf:cYTop="0" sqf:cXTop="10" sqf:cYRight="10" sqf:cXRight="20" sqf:cYBottom="20" sqf:cXBottom="10"><g><circle r="9.5" stroke="#007" stroke-width="1" cx="10" cy="10" fill="white"/><g><path d="M 0 10                          L 3 10                          L 3 6                          L 6 6                         M 3 10                         L 3 14                         L 6 14" stroke="#007" fill="none" stroke-width="0.75"/><g transform="translate(6, 4)"><rect width="8" height="4" fill="#88f" stroke-width="1" stroke="#007"/></g><g transform="translate(6, 12)"><rect width="8" height="4" fill="#88f" stroke-width="1" stroke="#007"/></g><path d="M 10 0                                  L 10 4" stroke="#007" fill="none" stroke-width="0.75"/><path d="M 10 16                                  L 10 20" stroke="#007" fill="none" stroke-width="0.75"/></g></g></svg></g><g transform="translate(20,30)"><svg width="59" height="30" sqf:cY="15" class="objectPaths" sqf:multiValue="one"><path stroke="#007" stroke-width="1" fill="none" d="M 0 15 L 15 15"/><g transform="translate(15,                                         0)"><svg width="44" height="30" class="element_ref" sqf:cY="15" sqf:displayW="0" sqf:displayH="0" sqf:multiValue="one" sqf:minOccurs="1" sqf:maxOccurs="1"><desc/><g alignment-baseline="baseline" class="svg-element-ref" transform="translate(0, 2.5)"><g id="modeld9e410_elementRef_d5e567"><rect height="25" width="44" rx="10" ry="10" stroke="#007" stoke-width="1" fill="white"/><text x="5" y="16" fill="black" font-family="arial, helvetica, sans-serif" font-size="11">##local</text></g></g><g transform="translate(44, 0)" sqf:z-index="0"/></svg></g></svg></g><g transform="translate(20,0)"><svg width="62" height="30" sqf:cY="15" class="objectPaths" sqf:multiValue="one"><path stroke="#007" stroke-width="1" fill="none" d="M 0 15 L 15 15"/><g transform="translate(15,                                         0)"><svg width="47" height="30" class="element_ref" sqf:cY="15" sqf:displayW="0" sqf:displayH="0" sqf:multiValue="one" sqf:minOccurs="1" sqf:maxOccurs="1"><desc/><g alignment-baseline="baseline" class="svg-element-ref" transform="translate(0, 2.5)"><g id="modeld9e410_elementRef_d5e563"><rect height="25" width="47" rx="10" ry="10" stroke="#007" stoke-width="1" fill="white"/><text x="5" y="16" fill="black" font-family="arial, helvetica, sans-serif" font-size="11">##other</text></g></g><g transform="translate(47, 0)" sqf:z-index="0"/></svg></g></svg></g><path fill="none" stroke-width="1" stroke="#007" d="M 10 20 L 10 22 Q 10 15 17 15 L 20 15"/><path fill="none" stroke-width="1" stroke="#007" d="M 10 40 L 10 38 Q 10 45 17 45 L 20 45"/></svg></g></svg></g></g><g transform="translate(0, 62.5)"/></svg></g></svg></g></svg></g></svg></g></g><g transform="translate(0, 95)"/></svg></g><path stroke="#F5844C" stroke-width="1" fill="none" d="M 50 15 L 32 15 Q 25 15 25 22 L 25 70" stroke-dasharray="5,5"/><g transform="translate(50,                                         0)"><svg width="49" height="30" sqf:cY="15" class="attribute" id="modeld9e410_attribute_xml_lang" sqf:displayW="332" sqf:displayH="125" sqf:multiValue="zeroOrOne"><desc/><g alignment-baseline="baseline" transform="translate(0, 2.5)" id="modeld9e410_attributName_d8e21"><g><rect height="25" width="49" rx="10" ry="10" stroke="#F5844C" stoke-width="1" fill="white" stroke-dasharray="5,5"/></g><text x="5" y="16" fill="black" font-family="arial, helvetica, sans-serif" font-size="11">xml:lang</text></g><g transform="translate(49, 0)" sqf:z-index="0"><svg width="332" height="155" class="annotation"><g visibility="hidden" style="z-index:1000"><set attributeName="visibility" to="visible" begin="modeld9e410_attributName_d8e21.mouseover" end="modeld9e410_attributName_d8e21.mouseout" sqf:dokuViewer="modeld9e410_attributName_d8e21"/><g transform="translate(1,1)"><path d="M 20 0 Q 10 0 10 10 L 10 10 L 0 15 L 10 20 L 10 138 Q 10 148 20 148 L 320 148 Q 330 148 330 138 L 330 10 Q 330 0 320 0 Z" fill="white" opacity="1" stroke="#F5844C" stroke-width="1"/><path d="M 20 0 Q 10 0 10 10 L 10 10 L 0 15 L 10 20 L 10 138 Q 10 148 20 148 L 320 148 Q 330 148 330 138 L 330 10 Q 330 0 320 0 Z" fill="#F5844C" opacity="0.1" stroke="#F5844C" stroke-width="1"/><path d="M 20 0 Q 10 0 10 10 L 10 10 L 0 15 L 10 20 L 10 138 Q 10 148 20 148 L 320 148 Q 330 148 330 138 L 330 10 Q 330 0 320 0 Z" fill="none" opacity="1" stroke="#F5844C" stroke-width="1"/><g transform="translate(20,5)"><svg width="300" height="18" class="text_box"><text fill="black" font-family="arial, helvetica, sans-serif" font-size="11" font-weight="bold"><tspan sqf:length="83" y="16" x="0">Documentation</tspan></text></svg></g><g transform="translate(20,23)"><svg width="300" height="120" class="text_box"><text fill="black" font-family="arial, helvetica, sans-serif" font-size="11"><tspan sqf:length="54" y="16" x="0">Attempting </tspan><tspan sqf:length="12" y="16">to </tspan><tspan sqf:length="30" y="16">install </tspan><tspan sqf:length="18" y="16">the </tspan><tspan sqf:length="42" y="16">relevant </tspan><tspan sqf:length="20" y="16">ISO </tspan><tspan sqf:length="13" y="16">2- </tspan><tspan sqf:length="21" y="16">and </tspan><tspan sqf:length="10" y="16">3-</tspan><tspan sqf:length="51" y="16">letter
         </tspan><tspan sqf:length="33" y="32" x="0">codes </tspan><tspan sqf:length="15" y="32">as </tspan><tspan sqf:length="18" y="32">the </tspan><tspan sqf:length="60" y="32">enumerated </tspan><tspan sqf:length="43" y="32">possible </tspan><tspan sqf:length="35" y="32">values </tspan><tspan sqf:length="11" y="32">is </tspan><tspan sqf:length="45" y="32">probably </tspan><tspan sqf:length="55" y="48" x="0">never
         </tspan><tspan sqf:length="29" y="48">going </tspan><tspan sqf:length="12" y="48">to </tspan><tspan sqf:length="15" y="48">be </tspan><tspan sqf:length="9" y="48">a </tspan><tspan sqf:length="40" y="48">realistic </tspan><tspan sqf:length="56" y="48">possibility.  </tspan><tspan sqf:length="46" y="48">See
         </tspan><tspan sqf:length="23" y="48">RFC </tspan><tspan sqf:length="27" y="64" x="0">3066 </tspan><tspan sqf:length="12" y="64">at </tspan><tspan sqf:length="170" y="64">http://www.ietf.org/rfc/rfc3066.txt </tspan><tspan sqf:length="21" y="64">and </tspan><tspan sqf:length="18" y="64">the </tspan><tspan sqf:length="28" y="64">IANA </tspan><tspan sqf:length="64" y="80" x="0">registry
         </tspan><tspan sqf:length="12" y="80">at </tspan><tspan sqf:length="190" y="80">http://www.iana.org/assignments/lang-</tspan><tspan sqf:length="19" y="80">tag-</tspan><tspan sqf:length="47" y="96" x="0">apps.htm </tspan><tspan sqf:length="41" y="96">for
         </tspan><tspan sqf:length="36" y="96">further </tspan><tspan sqf:length="83" y="96">information.

         </tspan><tspan sqf:length="21" y="96">The </tspan><tspan sqf:length="29" y="96">union </tspan><tspan sqf:length="35" y="96">allows </tspan><tspan sqf:length="17" y="112" x="0">for </tspan><tspan sqf:length="18" y="112">the </tspan><tspan sqf:length="18" y="112">'un-</tspan><tspan sqf:length="58" y="112">declaration' </tspan><tspan sqf:length="13" y="112">of </tspan><tspan sqf:length="42" y="112">xml:lang </tspan><tspan sqf:length="48" y="112">with
         </tspan><tspan sqf:length="18" y="112">the </tspan><tspan sqf:length="32" y="112">empty </tspan><tspan sqf:length="30" y="112">string.</tspan></text></svg></g></g></g></svg></g></svg></g></svg></g></g></svg></g></svg></g><g transform="translate(212, 129.25)"><svg width="332" height="59" class="annotation"><g visibility="hidden" style="z-index:1000"><set attributeName="visibility" to="visible" begin="modeld9e410_elementRef_d9e410.mouseover" end="modeld9e410_elementRef_d9e410.mouseout" sqf:dokuViewer="modeld9e410_elementRef_d9e410"/><g transform="translate(1,1)"><path d="M 17.5 0 Q 10 0 10 7.5 L 10 7.5 L 0 12.5 L 10 17.5 L 10 44.5 Q 10 52 17.5 52 L 322.5 52 Q 330 52 330 44.5 L 330 7.5 Q 330 0 322.5 0 Z" fill="white" opacity="1" stroke="#007" stroke-width="1"/><path d="M 17.5 0 Q 10 0 10 7.5 L 10 7.5 L 0 12.5 L 10 17.5 L 10 44.5 Q 10 52 17.5 52 L 322.5 52 Q 330 52 330 44.5 L 330 7.5 Q 330 0 322.5 0 Z" fill="#007" opacity="0.1" stroke="#007" stroke-width="1"/><path d="M 17.5 0 Q 10 0 10 7.5 L 10 7.5 L 0 12.5 L 10 17.5 L 10 44.5 Q 10 52 17.5 52 L 322.5 52 Q 330 52 330 44.5 L 330 7.5 Q 330 0 322.5 0 Z" fill="none" opacity="1" stroke="#007" stroke-width="1"/><g transform="translate(20,5)"><svg xmlns:java="java:java.lang.Math" width="300" height="18" class="text_box"><text fill="black" font-family="arial, helvetica, sans-serif" font-size="11" font-weight="bold"><tspan sqf:length="83" y="16" x="0">Documentation</tspan></text></svg></g><g transform="translate(20,23)"><svg xmlns:java="java:java.lang.Math" width="300" height="24" class="text_box"><text fill="black" font-family="arial, helvetica, sans-serif" font-size="11"><tspan sqf:length="29" y="16" x="0">Adds </tspan><tspan sqf:length="9" y="16">a </tspan><tspan sqf:length="35" y="16">human </tspan><tspan sqf:length="45" y="16">readable </tspan><tspan sqf:length="56" y="16">description </tspan><tspan sqf:length="12" y="16">to </tspan><tspan sqf:length="18" y="16">the </tspan><tspan sqf:length="34" y="16">parent </tspan><tspan sqf:length="40" y="16">element.</tspan></text></svg></g></g></g></svg></g><g transform="translate(0,114.25)"><svg xmlns:java="java:java.lang.Math" width="130" height="60" sqf:cY="30" class="objectPaths" sqf:multiValue="one"><path stroke="#007" stroke-width="1" fill="none" d="M 130 30 L 105 30"/><path stroke="#007" stroke-width="1" fill="none" d="M 80 45 L 98 45 Q 105 45 105 38 L 105 30"/><g transform="translate(0,                                         30)"><svg width="80" height="30" sqf:cY="15"><g alignment-baseline="baseline" id="modeld9e410_d9e433_parentOf_" transform="translate( 0, 2.5)"><a xlink:href="#sqf_user-entry" target="_top"><g><rect width="80" height="25" rx="10" ry="10" stroke="#007" stoke-width="1" fill="white"/></g><text x="5" y="16" fill="black" font-family="arial, helvetica, sans-serif" font-size="11">sqf:user-entry</text></a></g><g transform="translate(80, 2.5)"><svg width="332" height="123" class="annotation"><g visibility="hidden" style="z-index:1000"><set attributeName="visibility" to="visible" begin="modeld9e410_d9e433_parentOf_.mouseover" end="modeld9e410_d9e433_parentOf_.mouseout" sqf:dokuViewer="modeld9e410_d9e433_parentOf_"/><g transform="translate(1,1)"><path d="M 17.5 0 Q 10 0 10 7.5 L 10 7.5 L 0 12.5 L 10 17.5 L 10 108.5 Q 10 116 17.5 116 L 322.5 116 Q 330 116 330 108.5 L 330 7.5 Q 330 0 322.5 0 Z" fill="white" opacity="1" stroke="#007" stroke-width="1"/><path d="M 17.5 0 Q 10 0 10 7.5 L 10 7.5 L 0 12.5 L 10 17.5 L 10 108.5 Q 10 116 17.5 116 L 322.5 116 Q 330 116 330 108.5 L 330 7.5 Q 330 0 322.5 0 Z" fill="#007" opacity="0.1" stroke="#007" stroke-width="1"/><path d="M 17.5 0 Q 10 0 10 7.5 L 10 7.5 L 0 12.5 L 10 17.5 L 10 108.5 Q 10 116 17.5 116 L 322.5 116 Q 330 116 330 108.5 L 330 7.5 Q 330 0 322.5 0 Z" fill="none" opacity="1" stroke="#007" stroke-width="1"/><g transform="translate(20,5)"><svg width="300" height="18" class="text_box"><text fill="black" font-family="arial, helvetica, sans-serif" font-size="11" font-weight="bold"><tspan sqf:length="83" y="16" x="0">Documentation</tspan></text></svg></g><g transform="translate(20,23)"><svg width="300" height="88" class="text_box"><text fill="black" font-family="arial, helvetica, sans-serif" font-size="11"><tspan sqf:length="40" y="16" x="0">Defines </tspan><tspan sqf:length="15" y="16">an </tspan><tspan sqf:length="25" y="16">user </tspan><tspan sqf:length="31" y="16">entry. </tspan><tspan sqf:length="24" y="16">With </tspan><tspan sqf:length="18" y="16">the </tspan><tspan sqf:length="23" y="16">help </tspan><tspan sqf:length="13" y="16">of </tspan><tspan sqf:length="18" y="16">the </tspan><tspan sqf:length="25" y="16">user </tspan><tspan sqf:length="31" y="16">entry, </tspan><tspan sqf:length="18" y="16">the </tspan><tspan sqf:length="25" y="32" x="0">user </tspan><tspan sqf:length="21" y="32">can </tspan><tspan sqf:length="39" y="32">interact </tspan><tspan sqf:length="24" y="32">with </tspan><tspan sqf:length="18" y="32">the </tspan><tspan sqf:length="47" y="32">QuickFix. </tspan><tspan sqf:length="21" y="32">The </tspan><tspan sqf:length="25" y="32">user </tspan><tspan sqf:length="28" y="32">entry </tspan><tspan sqf:length="33" y="32">refers </tspan><tspan sqf:length="12" y="32">to </tspan><tspan sqf:length="9" y="48" x="0">a </tspan><tspan sqf:length="52" y="48">sqf:param </tspan><tspan sqf:length="43" y="48">element. </tspan><tspan sqf:length="21" y="48">The </tspan><tspan sqf:length="29" y="48">value </tspan><tspan sqf:length="13" y="48">of </tspan><tspan sqf:length="18" y="48">the </tspan><tspan sqf:length="52" y="48">parameter </tspan><tspan sqf:length="11" y="48">is </tspan><tspan sqf:length="18" y="48">set </tspan><tspan sqf:length="45" y="64" x="0">manually </tspan><tspan sqf:length="15" y="64">by </tspan><tspan sqf:length="18" y="64">the </tspan><tspan sqf:length="28" y="64">user. </tspan><tspan sqf:length="21" y="64">The </tspan><tspan sqf:length="73" y="64">implementation </tspan><tspan sqf:length="35" y="64">should </tspan><tspan sqf:length="39" y="64">provide </tspan><tspan sqf:length="18" y="64">the </tspan><tspan sqf:length="25" y="80" x="0">user </tspan><tspan sqf:length="28" y="80">entry </tspan><tspan sqf:length="31" y="80">when </tspan><tspan sqf:length="18" y="80">the </tspan><tspan sqf:length="25" y="80">user </tspan><tspan sqf:length="38" y="80">selects </tspan><tspan sqf:length="18" y="80">the </tspan><tspan sqf:length="44" y="80">QuickFix.</tspan></text></svg></g></g></g></svg></g></svg></g><path stroke="#007" stroke-width="1" fill="none" d="M 80 15 L 98 15 Q 105 15 105 22 L 105 30"/><g transform="translate(39,                                         0)"><svg width="41" height="30" sqf:cY="15"><g alignment-baseline="baseline" id="modeld9e410_d9e302_parentOf_" transform="translate( 0, 2.5)"><a xlink:href="#sqf_fix" target="_top"><g><rect width="41" height="25" rx="10" ry="10" stroke="#007" stoke-width="1" fill="white"/></g><text x="5" y="16" fill="black" font-family="arial, helvetica, sans-serif" font-size="11">sqf:fix</text></a></g><g transform="translate(41, 2.5)"><svg width="332" height="91" class="annotation"><g visibility="hidden" style="z-index:1000"><set attributeName="visibility" to="visible" begin="modeld9e410_d9e302_parentOf_.mouseover" end="modeld9e410_d9e302_parentOf_.mouseout" sqf:dokuViewer="modeld9e410_d9e302_parentOf_"/><g transform="translate(1,1)"><path d="M 17.5 0 Q 10 0 10 7.5 L 10 7.5 L 0 12.5 L 10 17.5 L 10 76.5 Q 10 84 17.5 84 L 322.5 84 Q 330 84 330 76.5 L 330 7.5 Q 330 0 322.5 0 Z" fill="white" opacity="1" stroke="#007" stroke-width="1"/><path d="M 17.5 0 Q 10 0 10 7.5 L 10 7.5 L 0 12.5 L 10 17.5 L 10 76.5 Q 10 84 17.5 84 L 322.5 84 Q 330 84 330 76.5 L 330 7.5 Q 330 0 322.5 0 Z" fill="#007" opacity="0.1" stroke="#007" stroke-width="1"/><path d="M 17.5 0 Q 10 0 10 7.5 L 10 7.5 L 0 12.5 L 10 17.5 L 10 76.5 Q 10 84 17.5 84 L 322.5 84 Q 330 84 330 76.5 L 330 7.5 Q 330 0 322.5 0 Z" fill="none" opacity="1" stroke="#007" stroke-width="1"/><g transform="translate(20,5)"><svg width="300" height="18" class="text_box"><text fill="black" font-family="arial, helvetica, sans-serif" font-size="11" font-weight="bold"><tspan sqf:length="83" y="16" x="0">Documentation</tspan></text></svg></g><g transform="translate(20,23)"><svg width="300" height="56" class="text_box"><text fill="black" font-family="arial, helvetica, sans-serif" font-size="11"><tspan sqf:length="40" y="16" x="0">Defines </tspan><tspan sqf:length="9" y="16">a </tspan><tspan sqf:length="61" y="16">Schematron </tspan><tspan sqf:length="44" y="16">QuickFix </tspan><tspan sqf:length="24" y="16">with </tspan><tspan sqf:length="14" y="16">its </tspan><tspan sqf:length="42" y="16">content. </tspan><tspan sqf:length="15" y="16">All </tspan><tspan sqf:length="55" y="32" x="0">commands </tspan><tspan sqf:length="19" y="32">will </tspan><tspan sqf:length="15" y="32">be </tspan><tspan sqf:length="55" y="32">processed </tspan><tspan sqf:length="9" y="32">if </tspan><tspan sqf:length="18" y="32">the </tspan><tspan sqf:length="44" y="32">QuickFix </tspan><tspan sqf:length="11" y="32">is </tspan><tspan sqf:length="47" y="32">activated </tspan><tspan sqf:length="15" y="32">by </tspan><tspan sqf:length="18" y="48" x="0">the </tspan><tspan sqf:length="25" y="48">user.</tspan></text></svg></g></g></g></svg></g></svg></g></svg></g></svg>