<?xml version="1.0" encoding="UTF-8"?><svg xmlns:saxon="http://saxon.sf.net/" xmlns:sqf="http://www.schematron-quickfix.com/validator/process" xmlns:svg="http://www.w3.org/2000/svg" xmlns:d2t="java:com.d2t.saxon.d2tSaxonExtensions" xmlns:xlink="http://www.w3.org/1999/xlink" xmlns="http://www.w3.org/2000/svg" xmlns:xsi="http://www.w3.org/2001/XMLSchema-instance" width="10" height="313.5" id="modeld9e233_sqf_fixes" sqf:cY="183" sqf:displayW="332" sqf:displayH="45"><desc/><g alignment-baseline="baseline" transform="translate(0, 170.5)" id="modeld9e233_elementRef_d9e233"><g><rect width="53" height="25" rx="10" ry="10" stroke="#007" stoke-width="1" fill="#88f"/></g><text x="5" y="16" fill="white" font-family="arial, helvetica, sans-serif" font-size="11">sqf:fixes</text></g><g transform="translate(53, 0)"><svg xmlns:java="java:java.lang.Math" width="308.5" height="313.5" sqf:cY="183" class="objectPaths" sqf:multiValue="one"><path stroke="#007" stroke-width="1" fill="none" d="M 0 183 L 25 183"/><path stroke="#007" stroke-width="1" fill="none" d="M 50 274.5 L 32 274.5 Q 26.5 274.5 26.5 269 L 26.5 183" stroke-dasharray="5,5"/><path stroke="#007" stroke-width="1" fill="none" d="M 50 277.5 L 32 277.5 Q 23.5 277.5 23.5 269 L 23.5 183" stroke-dasharray="5,5"/><g transform="translate(50,                                         213.5)"><svg width="159.5" height="100" class="choice" sqf:cY="62.5" sqf:multiValue="zeroOrMore"><g transform="translate(0,52.5)"><svg width="20" height="23.5" sqf:cYTop="0" sqf:cXTop="10" sqf:cYRight="10" sqf:cXRight="20" sqf:cYBottom="20" sqf:cXBottom="10" sqf:cY="10"><g><circle r="9.5" stroke="#007" stroke-width="0.33" cx="10" cy="13.5" fill="white" stroke-dashoffset="2" stroke-dasharray="2"/><circle r="9.5" stroke="#007" stroke-width="0.66" cx="10" cy="12" fill="white" stroke-dashoffset="2" stroke-dasharray="2"/><circle r="9.5" stroke="#007" stroke-width="1" cx="10" cy="10" fill="white" stroke-dashoffset="2" stroke-dasharray="2"/><g><path d="M 0 10                          L 3 10                          L 3 6                          L 6 6                         M 3 10                         L 3 14                         L 6 14" stroke="#007" fill="none" stroke-width="0.75"/><g transform="translate(6, 4)"><rect width="8" height="4" fill="#88f" stroke-width="1" stroke="#007"/></g><g transform="translate(6, 12)"><rect width="8" height="4" fill="#88f" stroke-width="1" stroke="#007"/></g><path d="M 20 10                                  L 17 10                                  L 17 6                                  L 14 6                                 M 17 10                                 L 17 14                                 L 14 14" stroke="#007" fill="none" stroke-width="0.75"/></g></g></svg></g><g transform="translate(20,0)"><svg width="139.5" height="100" sqf:cY="62.5" class="objectPaths" sqf:multiValue="one"><path stroke="#007" stroke-width="1" fill="none" d="M 0 62.5 L 15 62.5"/><g transform="translate(15,                                         0)"><svg width="124.5" height="100" sqf:cY="62.5" sqf:displayW="332" sqf:displayH="75" class="element_group" sqf:multiValue="one"><g transform="translate(0, 5)" id="modeld9e233_group_d9e245"><rect width="119.5" height="90" rx="7" ry="7" fill="white" stroke="#007" stroke-width="1"/><rect width="119.5" height="90" rx="7" ry="7" fill="white" stroke="#007" stroke-width="1"/><a xlink:href="#sqf_fixElements" target="_top"><svg width="109" height="25"><g transform="translate(3,3)"><rect width="5" height="5" x="6" y="3" fill="#007" opacity="0.5"/><rect width="5" height="5" x="6" y="11" fill="#007" opacity="0.5"/><rect width="5" height="5" x="14" y="11" fill="#007" opacity="0.5"/><rect width="5" height="5" x="6" y="3" fill="none" stroke="#007" stroke-width="0.75" opacity="1"/><rect width="5" height="5" x="6" y="11" fill="none" stroke="#007" stroke-width="0.75" opacity="1"/><rect width="5" height="5" x="14" y="11" fill="none" stroke="#007" stroke-width="0.75" opacity="1"/><text x="26" y="13" fill="black" font-family="arial, helvetica, sans-serif" font-size="11">sqf:fixElements</text></g></svg><path d="M 2.5 25 L 117 25" fill="none" stroke="#007" stroke-width="0.25"/></a><g transform="translate(118, 0)" sqf:z-index="0"><svg width="332" height="75" class="annotation"><g visibility="hidden" style="z-index:1000"><set attributeName="visibility" to="visible" begin="modeld9e233_group_d9e245.mouseover" end="modeld9e233_group_d9e245.mouseout" sqf:dokuViewer="modeld9e233_group_d9e245"/><set attributeName="visibility" to="hidden" begin="modeld9e233_elementRef_d9e229.mouseover" end="modeld9e233_elementRef_d9e229.mouseout"/><set attributeName="visibility" to="hidden" begin="modeld9e233_elementRef_d9e227.mouseover" end="modeld9e233_elementRef_d9e227.mouseout"/><g transform="translate(1,1)"><path d="M 20 0 Q 10 0 10 10 L 10 10 L 0 15 L 10 20 L 10 58 Q 10 68 20 68 L 320 68 Q 330 68 330 58 L 330 10 Q 330 0 320 0 Z" fill="white" opacity="1" stroke="#007" stroke-width="1"/><path d="M 20 0 Q 10 0 10 10 L 10 10 L 0 15 L 10 20 L 10 58 Q 10 68 20 68 L 320 68 Q 330 68 330 58 L 330 10 Q 330 0 320 0 Z" fill="#007" opacity="0.1" stroke="#007" stroke-width="1"/><path d="M 20 0 Q 10 0 10 10 L 10 10 L 0 15 L 10 20 L 10 58 Q 10 68 20 68 L 320 68 Q 330 68 330 58 L 330 10 Q 330 0 320 0 Z" fill="none" opacity="1" stroke="#007" stroke-width="1"/><g transform="translate(20,5)"><svg width="300" height="18" class="text_box"><text fill="black" font-family="arial, helvetica, sans-serif" font-size="11" font-weight="bold"><tspan sqf:length="83" y="16" x="0">Documentation</tspan></text></svg></g><g transform="translate(20,23)"><svg width="300" height="40" class="text_box"><text fill="black" font-family="arial, helvetica, sans-serif" font-size="11"><tspan sqf:length="46" y="16" x="0">Elements </tspan><tspan sqf:length="12" y="16">to </tspan><tspan sqf:length="33" y="16">define </tspan><tspan sqf:length="56" y="16">QuickFixes </tspan><tspan sqf:length="13" y="16">or </tspan><tspan sqf:length="44" y="16">QuickFix </tspan><tspan sqf:length="37" y="16">groups </tspan><tspan sqf:length="31" y="16">inside </tspan><tspan sqf:length="13" y="16">of </tspan><tspan sqf:length="9" y="16">a </tspan><tspan sqf:length="61" y="32" x="0">Schematron </tspan><tspan sqf:length="41" y="32">schema.</tspan></text></svg></g></g></g></svg></g><g transform="translate(0, 27.5)"><svg width="117" height="60" sqf:cY="30" class="objectPaths" sqf:multiValue="one"><path stroke="#007" stroke-width="1" fill="none" d="M 0 30 L 25 30"/><g transform="translate(25,                                         0)"><svg width="92" height="60" class="choice" sqf:cY="30" sqf:multiValue="one"><g transform="translate(0,20)"><svg width="20" height="20" sqf:cYTop="0" sqf:cXTop="10" sqf:cYRight="10" sqf:cXRight="20" sqf:cYBottom="20" sqf:cXBottom="10"><g><circle r="9.5" stroke="#007" stroke-width="1" cx="10" cy="10" fill="white"/><g><path d="M 0 10                          L 3 10                          L 3 6                          L 6 6                         M 3 10                         L 3 14                         L 6 14" stroke="#007" fill="none" stroke-width="0.75"/><g transform="translate(6, 4)"><rect width="8" height="4" fill="#88f" stroke-width="1" stroke="#007"/></g><g transform="translate(6, 12)"><rect width="8" height="4" fill="#88f" stroke-width="1" stroke="#007"/></g><path d="M 10 0                                  L 10 4" stroke="#007" fill="none" stroke-width="0.75"/><path d="M 10 16                                  L 10 20" stroke="#007" fill="none" stroke-width="0.75"/></g></g></svg></g><g transform="translate(20,30)"><svg width="72" height="30" sqf:cY="15" class="objectPaths" sqf:multiValue="one"><path stroke="#007" stroke-width="1" fill="none" d="M 0 15 L 15 15"/><g transform="translate(15,                                         0)"><svg width="57" height="30" class="element_ref" sqf:cY="15" sqf:displayW="332" sqf:displayH="61" sqf:multiValue="one" sqf:minOccurs="1" sqf:maxOccurs="1"><desc/><g alignment-baseline="baseline" class="svg-element-ref" transform="translate(0, 2.5)"><g id="modeld9e233_elementRef_d9e229"><rect height="25" width="57" rx="10" ry="10" stroke="#007" stoke-width="1" fill="white"><set attributeName="fill" to="#88f" begin="modeld9e233_elementRef_d9e229.mouseover" end="modeld9e233_elementRef_d9e229.mouseout"/></rect><a xlink:href="#sqf_group" target="_top"><text x="5" y="16" fill="black" font-family="arial, helvetica, sans-serif" font-size="11"><set attributeName="fill" to="#fff" begin="modeld9e233_elementRef_d9e229.mouseover" end="modeld9e233_elementRef_d9e229.mouseout"/>sqf:group</text></a></g></g><g transform="translate(57, 0)" sqf:z-index="0"><svg width="332" height="91" class="annotation"><g visibility="hidden" style="z-index:1000"><set attributeName="visibility" to="visible" begin="modeld9e233_elementRef_d9e229.mouseover" end="modeld9e233_elementRef_d9e229.mouseout" sqf:dokuViewer="modeld9e233_elementRef_d9e229"/><g transform="translate(1,1)"><path d="M 20 0 Q 10 0 10 10 L 10 10 L 0 15 L 10 20 L 10 74 Q 10 84 20 84 L 320 84 Q 330 84 330 74 L 330 10 Q 330 0 320 0 Z" fill="white" opacity="1" stroke="#007" stroke-width="1"/><path d="M 20 0 Q 10 0 10 10 L 10 10 L 0 15 L 10 20 L 10 74 Q 10 84 20 84 L 320 84 Q 330 84 330 74 L 330 10 Q 330 0 320 0 Z" fill="#007" opacity="0.1" stroke="#007" stroke-width="1"/><path d="M 20 0 Q 10 0 10 10 L 10 10 L 0 15 L 10 20 L 10 74 Q 10 84 20 84 L 320 84 Q 330 84 330 74 L 330 10 Q 330 0 320 0 Z" fill="none" opacity="1" stroke="#007" stroke-width="1"/><g transform="translate(20,5)"><svg width="300" height="18" class="text_box"><text fill="black" font-family="arial, helvetica, sans-serif" font-size="11" font-weight="bold"><tspan sqf:length="83" y="16" x="0">Documentation</tspan></text></svg></g><g transform="translate(20,23)"><svg width="300" height="56" class="text_box"><text fill="black" font-family="arial, helvetica, sans-serif" font-size="11"><tspan sqf:length="40" y="16" x="0">Defines </tspan><tspan sqf:length="9" y="16">a </tspan><tspan sqf:length="61" y="16">Schematron </tspan><tspan sqf:length="44" y="16">QuickFix </tspan><tspan sqf:length="34" y="16">group. </tspan><tspan sqf:length="9" y="16">If </tspan><tspan sqf:length="18" y="16">the </tspan><tspan sqf:length="31" y="16">group </tspan><tspan sqf:length="11" y="16">is </tspan><tspan sqf:length="30" y="16">linked </tspan><tspan sqf:length="15" y="32" x="0">by </tspan><tspan sqf:length="15" y="32">an </tspan><tspan sqf:length="34" y="32">assert </tspan><tspan sqf:length="13" y="32">or </tspan><tspan sqf:length="35" y="32">report, </tspan><tspan sqf:length="13" y="32">all </tspan><tspan sqf:length="56" y="32">QuickFixes </tspan><tspan sqf:length="13" y="32">of </tspan><tspan sqf:length="20" y="32">this </tspan><tspan sqf:length="31" y="32">group </tspan><tspan sqf:length="19" y="32">will </tspan><tspan sqf:length="15" y="32">be </tspan><tspan sqf:length="56" y="48" x="0">accosieted </tspan><tspan sqf:length="24" y="48">with </tspan><tspan sqf:length="18" y="48">the </tspan><tspan sqf:length="66" y="48">assert/report.</tspan></text></svg></g></g></g></svg></g></svg></g></svg></g><g transform="translate(20,0)"><svg width="56" height="30" sqf:cY="15" class="objectPaths" sqf:multiValue="one"><path stroke="#007" stroke-width="1" fill="none" d="M 0 15 L 15 15"/><g transform="translate(15,                                         0)"><svg width="41" height="30" class="element_ref" sqf:cY="15" sqf:displayW="332" sqf:displayH="61" sqf:multiValue="one" sqf:minOccurs="1" sqf:maxOccurs="1"><desc/><g alignment-baseline="baseline" class="svg-element-ref" transform="translate(0, 2.5)"><g id="modeld9e233_elementRef_d9e227"><rect height="25" width="41" rx="10" ry="10" stroke="#007" stoke-width="1" fill="white"><set attributeName="fill" to="#88f" begin="modeld9e233_elementRef_d9e227.mouseover" end="modeld9e233_elementRef_d9e227.mouseout"/></rect><a xlink:href="#sqf_fix" target="_top"><text x="5" y="16" fill="black" font-family="arial, helvetica, sans-serif" font-size="11"><set attributeName="fill" to="#fff" begin="modeld9e233_elementRef_d9e227.mouseover" end="modeld9e233_elementRef_d9e227.mouseout"/>sqf:fix</text></a></g></g><g transform="translate(41, 0)" sqf:z-index="0"><svg width="332" height="91" class="annotation"><g visibility="hidden" style="z-index:1000"><set attributeName="visibility" to="visible" begin="modeld9e233_elementRef_d9e227.mouseover" end="modeld9e233_elementRef_d9e227.mouseout" sqf:dokuViewer="modeld9e233_elementRef_d9e227"/><g transform="translate(1,1)"><path d="M 20 0 Q 10 0 10 10 L 10 10 L 0 15 L 10 20 L 10 74 Q 10 84 20 84 L 320 84 Q 330 84 330 74 L 330 10 Q 330 0 320 0 Z" fill="white" opacity="1" stroke="#007" stroke-width="1"/><path d="M 20 0 Q 10 0 10 10 L 10 10 L 0 15 L 10 20 L 10 74 Q 10 84 20 84 L 320 84 Q 330 84 330 74 L 330 10 Q 330 0 320 0 Z" fill="#007" opacity="0.1" stroke="#007" stroke-width="1"/><path d="M 20 0 Q 10 0 10 10 L 10 10 L 0 15 L 10 20 L 10 74 Q 10 84 20 84 L 320 84 Q 330 84 330 74 L 330 10 Q 330 0 320 0 Z" fill="none" opacity="1" stroke="#007" stroke-width="1"/><g transform="translate(20,5)"><svg width="300" height="18" class="text_box"><text fill="black" font-family="arial, helvetica, sans-serif" font-size="11" font-weight="bold"><tspan sqf:length="83" y="16" x="0">Documentation</tspan></text></svg></g><g transform="translate(20,23)"><svg width="300" height="56" class="text_box"><text fill="black" font-family="arial, helvetica, sans-serif" font-size="11"><tspan sqf:length="40" y="16" x="0">Defines </tspan><tspan sqf:length="9" y="16">a </tspan><tspan sqf:length="61" y="16">Schematron </tspan><tspan sqf:length="44" y="16">QuickFix </tspan><tspan sqf:length="24" y="16">with </tspan><tspan sqf:length="14" y="16">its </tspan><tspan sqf:length="42" y="16">content. </tspan><tspan sqf:length="15" y="16">All </tspan><tspan sqf:length="55" y="32" x="0">commands </tspan><tspan sqf:length="19" y="32">will </tspan><tspan sqf:length="15" y="32">be </tspan><tspan sqf:length="55" y="32">processed </tspan><tspan sqf:length="9" y="32">if </tspan><tspan sqf:length="18" y="32">the </tspan><tspan sqf:length="44" y="32">QuickFix </tspan><tspan sqf:length="11" y="32">is </tspan><tspan sqf:length="47" y="32">activated </tspan><tspan sqf:length="15" y="32">by </tspan><tspan sqf:length="18" y="48" x="0">the </tspan><tspan sqf:length="25" y="48">user.</tspan></text></svg></g></g></g></svg></g></svg></g></svg></g><path fill="none" stroke-width="1" stroke="#007" d="M 10 20 L 10 22 Q 10 15 17 15 L 20 15"/><path fill="none" stroke-width="1" stroke="#007" d="M 10 40 L 10 38 Q 10 45 17 45 L 20 45"/></svg></g></svg></g></g><g transform="translate(0, 62.5)"/></svg></g></svg></g></svg></g><path stroke="#F5844C" stroke-width="1" fill="none" d="M 50 90 L 32 90 Q 25 90 25 97 L 25 183"/><g transform="translate(50,                                         0)"><svg width="258.5" height="213.5" class="attribute_box" sqf:cY="90" sqf:multiValue="one" sqf:stroke="#F5844C"><g transform="translate(0, 2.5)"><rect height="208.5" width="258.5" rx="10" ry="10" stroke="#F5844C" stoke-width="1" fill="white"/><g transform="translate(0, 2.5)"><svg width="256" height="203.5" sqf:cY="85" class="objectPaths" sqf:multiValue="one"><path stroke="#F5844C" stroke-width="1" fill="none" d="M 0 85 L 25 85"/><path stroke="#F5844C" stroke-width="1" fill="none" d="M 50 155 L 32 155 Q 25 155 25 148 L 25 85"/><g transform="translate(50,                                         60)"><svg width="206" height="143.5" sqf:cY="95" sqf:displayW="0" sqf:displayH="0" class="element_group" sqf:multiValue="one"><g transform="translate(0, 5)" id="modeld9e233_group_d9e252"><rect width="201" height="133.5" rx="7" ry="7" fill="white" stroke="#007" stroke-width="1"/><rect width="201" height="133.5" rx="7" ry="7" fill="white" stroke="#007" stroke-width="1"/><a xlink:href="#sch_foreign" target="_top"><svg width="90" height="25"><g transform="translate(3,3)"><rect width="5" height="5" x="6" y="3" fill="#007" opacity="0.5"/><rect width="5" height="5" x="6" y="11" fill="#007" opacity="0.5"/><rect width="5" height="5" x="14" y="11" fill="#007" opacity="0.5"/><rect width="5" height="5" x="6" y="3" fill="none" stroke="#007" stroke-width="0.75" opacity="1"/><rect width="5" height="5" x="6" y="11" fill="none" stroke="#007" stroke-width="0.75" opacity="1"/><rect width="5" height="5" x="14" y="11" fill="none" stroke="#007" stroke-width="0.75" opacity="1"/><text x="26" y="13" fill="black" font-family="arial, helvetica, sans-serif" font-size="11">sch:foreign</text></g></svg><path d="M 2.5 25 L 198.5 25" fill="none" stroke="#007" stroke-width="0.25"/></a><g transform="translate(199.5, 0)" sqf:z-index="0"/><g transform="translate(0, 27.5)"><svg width="198.5" height="103.5" sqf:cY="62.5" class="objectPaths" sqf:multiValue="one"><path stroke="#007" stroke-width="1" fill="none" d="M 0 62.5 L 25 62.5"/><g transform="translate(25,                                         0)"><svg width="173.5" height="103.5" class="sequence" sqf:cY="62.5" sqf:multiValue="one" sqf:minOccurs="1" sqf:maxOccurs="1"><g transform="translate(0,52.5)"><svg width="20" height="20" sqf:cY="10"><g><circle r="9.5" stroke="#007" stroke-width="1" cx="10" cy="10" fill="white"/><g><path d="M 0 10                          L 3 10                         M 8.5 10                         L 11.5 10                         M 17 10                         L 20 10" stroke="#007" fill="none" stroke-width="0.75"/><g transform="translate(3, 8)"><rect width="5.5" height="4" fill="#88f" stroke-width="1" stroke="#007"/></g><g transform="translate(11.5, 8)"><rect width="5.5" height="4" fill="#88f" stroke-width="1" stroke="#007"/></g></g></g></svg></g><g transform="translate(20,0)"><svg width="153.5" height="103.5" sqf:cY="62.5" class="objectPaths" sqf:multiValue="zeroOrMore"><path stroke="#007" stroke-width="1" fill="none" d="M 0 61 L 15 61" stroke-dasharray="3,3"/><path stroke="#007" stroke-width="1" fill="none" d="M 0 64 L 15 64" stroke-dasharray="3,3"/><g transform="translate(15,                                         0)"><svg width="138.5" height="103.5" sqf:cY="62.5" sqf:displayW="0" sqf:displayH="0" class="element_group" sqf:multiValue="zeroOrMore"><g transform="translate(0, 5)" id="modeld9e233_group_d5e538"><rect width="133.5" height="90" rx="7" ry="7" fill="white" stroke="#007" stroke-width="0.33" stroke-dashoffset="2" stroke-dasharray="2" y="3.5"/><rect width="133.5" height="90" rx="7" ry="7" fill="white" stroke="#007" stroke-width="0.66" stroke-dashoffset="2" stroke-dasharray="2" y="2"/><rect width="133.5" height="90" rx="7" ry="7" fill="white" stroke="#007" stroke-width="1" stroke-dashoffset="2" stroke-dasharray="2"/><rect width="133.5" height="90" rx="7" ry="7" fill="white" stroke="#007" stroke-width="1"/><a xlink:href="#sch_foreign-element" target="_top"><svg width="131" height="25"><g transform="translate(3,3)"><rect width="5" height="5" x="6" y="3" fill="#007" opacity="0.5"/><rect width="5" height="5" x="6" y="11" fill="#007" opacity="0.5"/><rect width="5" height="5" x="14" y="11" fill="#007" opacity="0.5"/><rect width="5" height="5" x="6" y="3" fill="none" stroke="#007" stroke-width="0.75" opacity="1"/><rect width="5" height="5" x="6" y="11" fill="none" stroke="#007" stroke-width="0.75" opacity="1"/><rect width="5" height="5" x="14" y="11" fill="none" stroke="#007" stroke-width="0.75" opacity="1"/><text x="26" y="13" fill="black" font-family="arial, helvetica, sans-serif" font-size="11">sch:foreign-element</text></g></svg><path d="M 2.5 25 L 131 25" fill="none" stroke="#007" stroke-width="0.25"/></a><g transform="translate(132, 0)" sqf:z-index="0"/><g transform="translate(0, 27.5)"><svg width="107" height="60" sqf:cY="30" class="objectPaths" sqf:multiValue="one"><path stroke="#007" stroke-width="1" fill="none" d="M 0 30 L 25 30"/><g transform="translate(25,                                         0)"><svg width="82" height="60" class="choice" sqf:cY="30" sqf:multiValue="one"><g transform="translate(0,20)"><svg width="20" height="20" sqf:cYTop="0" sqf:cXTop="10" sqf:cYRight="10" sqf:cXRight="20" sqf:cYBottom="20" sqf:cXBottom="10"><g><circle r="9.5" stroke="#007" stroke-width="1" cx="10" cy="10" fill="white"/><g><path d="M 0 10                          L 3 10                          L 3 6                          L 6 6                         M 3 10                         L 3 14                         L 6 14" stroke="#007" fill="none" stroke-width="0.75"/><g transform="translate(6, 4)"><rect width="8" height="4" fill="#88f" stroke-width="1" stroke="#007"/></g><g transform="translate(6, 12)"><rect width="8" height="4" fill="#88f" stroke-width="1" stroke="#007"/></g><path d="M 10 0                                  L 10 4" stroke="#007" fill="none" stroke-width="0.75"/><path d="M 10 16                                  L 10 20" stroke="#007" fill="none" stroke-width="0.75"/></g></g></svg></g><g transform="translate(20,30)"><svg width="59" height="30" sqf:cY="15" class="objectPaths" sqf:multiValue="one"><path stroke="#007" stroke-width="1" fill="none" d="M 0 15 L 15 15"/><g transform="translate(15,                                         0)"><svg width="44" height="30" class="element_ref" sqf:cY="15" sqf:displayW="0" sqf:displayH="0" sqf:multiValue="one" sqf:minOccurs="1" sqf:maxOccurs="1"><desc/><g alignment-baseline="baseline" class="svg-element-ref" transform="translate(0, 2.5)"><g id="modeld9e233_elementRef_d5e567"><rect height="25" width="44" rx="10" ry="10" stroke="#007" stoke-width="1" fill="white"/><text x="5" y="16" fill="black" font-family="arial, helvetica, sans-serif" font-size="11">##local</text></g></g><g transform="translate(44, 0)" sqf:z-index="0"/></svg></g></svg></g><g transform="translate(20,0)"><svg width="62" height="30" sqf:cY="15" class="objectPaths" sqf:multiValue="one"><path stroke="#007" stroke-width="1" fill="none" d="M 0 15 L 15 15"/><g transform="translate(15,                                         0)"><svg width="47" height="30" class="element_ref" sqf:cY="15" sqf:displayW="0" sqf:displayH="0" sqf:multiValue="one" sqf:minOccurs="1" sqf:maxOccurs="1"><desc/><g alignment-baseline="baseline" class="svg-element-ref" transform="translate(0, 2.5)"><g id="modeld9e233_elementRef_d5e563"><rect height="25" width="47" rx="10" ry="10" stroke="#007" stoke-width="1" fill="white"/><text x="5" y="16" fill="black" font-family="arial, helvetica, sans-serif" font-size="11">##other</text></g></g><g transform="translate(47, 0)" sqf:z-index="0"/></svg></g></svg></g><path fill="none" stroke-width="1" stroke="#007" d="M 10 20 L 10 22 Q 10 15 17 15 L 20 15"/><path fill="none" stroke-width="1" stroke="#007" d="M 10 40 L 10 38 Q 10 45 17 45 L 20 45"/></svg></g></svg></g></g><g transform="translate(0, 62.5)"/></svg></g></svg></g></svg></g></svg></g></g><g transform="translate(0, 95)"/></svg></g><path stroke="#F5844C" stroke-width="1" fill="none" d="M 25 45 L 50 45" stroke-dasharray="5,5"/><path stroke="#F5844C" stroke-width="1" fill="none" d="M 25 45 L 25 85" stroke-dasharray="5,5"/><g transform="translate(50,                                         30)"><svg width="37" height="30" sqf:cY="15" class="attribute" id="modeld9e233_attribute_sqf_id" sqf:displayW="0" sqf:displayH="0" sqf:multiValue="zeroOrOne"><desc/><g alignment-baseline="baseline" transform="translate(0, 2.5)" id="modeld9e233_attributName_d9e250"><g><rect height="25" width="37" rx="10" ry="10" stroke="#F5844C" stoke-width="1" fill="white" stroke-dasharray="5,5"/></g><text x="5" y="16" fill="black" font-family="arial, helvetica, sans-serif" font-size="11">sqf:id</text></g><g transform="translate(37, 0)" sqf:z-index="0"/></svg></g><path stroke="#F5844C" stroke-width="1" fill="none" d="M 50 15 L 32 15 Q 25 15 25 22 L 25 45" stroke-dasharray="5,5"/><g transform="translate(50,                                         0)"><svg width="49" height="30" sqf:cY="15" class="attribute" id="modeld9e233_attribute_xml_lang" sqf:displayW="332" sqf:displayH="125" sqf:multiValue="zeroOrOne"><desc/><g alignment-baseline="baseline" transform="translate(0, 2.5)" id="modeld9e233_attributName_d8e21"><g><rect height="25" width="49" rx="10" ry="10" stroke="#F5844C" stoke-width="1" fill="white" stroke-dasharray="5,5"/></g><text x="5" y="16" fill="black" font-family="arial, helvetica, sans-serif" font-size="11">xml:lang</text></g><g transform="translate(49, 0)" sqf:z-index="0"><svg width="332" height="155" class="annotation"><g visibility="hidden" style="z-index:1000"><set attributeName="visibility" to="visible" begin="modeld9e233_attributName_d8e21.mouseover" end="modeld9e233_attributName_d8e21.mouseout" sqf:dokuViewer="modeld9e233_attributName_d8e21"/><g transform="translate(1,1)"><path d="M 20 0 Q 10 0 10 10 L 10 10 L 0 15 L 10 20 L 10 138 Q 10 148 20 148 L 320 148 Q 330 148 330 138 L 330 10 Q 330 0 320 0 Z" fill="white" opacity="1" stroke="#F5844C" stroke-width="1"/><path d="M 20 0 Q 10 0 10 10 L 10 10 L 0 15 L 10 20 L 10 138 Q 10 148 20 148 L 320 148 Q 330 148 330 138 L 330 10 Q 330 0 320 0 Z" fill="#F5844C" opacity="0.1" stroke="#F5844C" stroke-width="1"/><path d="M 20 0 Q 10 0 10 10 L 10 10 L 0 15 L 10 20 L 10 138 Q 10 148 20 148 L 320 148 Q 330 148 330 138 L 330 10 Q 330 0 320 0 Z" fill="none" opacity="1" stroke="#F5844C" stroke-width="1"/><g transform="translate(20,5)"><svg width="300" height="18" class="text_box"><text fill="black" font-family="arial, helvetica, sans-serif" font-size="11" font-weight="bold"><tspan sqf:length="83" y="16" x="0">Documentation</tspan></text></svg></g><g transform="translate(20,23)"><svg width="300" height="120" class="text_box"><text fill="black" font-family="arial, helvetica, sans-serif" font-size="11"><tspan sqf:length="54" y="16" x="0">Attempting </tspan><tspan sqf:length="12" y="16">to </tspan><tspan sqf:length="30" y="16">install </tspan><tspan sqf:length="18" y="16">the </tspan><tspan sqf:length="42" y="16">relevant </tspan><tspan sqf:length="20" y="16">ISO </tspan><tspan sqf:length="13" y="16">2- </tspan><tspan sqf:length="21" y="16">and </tspan><tspan sqf:length="10" y="16">3-</tspan><tspan sqf:length="51" y="16">letter
         </tspan><tspan sqf:length="33" y="32" x="0">codes </tspan><tspan sqf:length="15" y="32">as </tspan><tspan sqf:length="18" y="32">the </tspan><tspan sqf:length="60" y="32">enumerated </tspan><tspan sqf:length="43" y="32">possible </tspan><tspan sqf:length="35" y="32">values </tspan><tspan sqf:length="11" y="32">is </tspan><tspan sqf:length="45" y="32">probably </tspan><tspan sqf:length="55" y="48" x="0">never
         </tspan><tspan sqf:length="29" y="48">going </tspan><tspan sqf:length="12" y="48">to </tspan><tspan sqf:length="15" y="48">be </tspan><tspan sqf:length="9" y="48">a </tspan><tspan sqf:length="40" y="48">realistic </tspan><tspan sqf:length="56" y="48">possibility.  </tspan><tspan sqf:length="46" y="48">See
         </tspan><tspan sqf:length="23" y="48">RFC </tspan><tspan sqf:length="27" y="64" x="0">3066 </tspan><tspan sqf:length="12" y="64">at </tspan><tspan sqf:length="170" y="64">http://www.ietf.org/rfc/rfc3066.txt </tspan><tspan sqf:length="21" y="64">and </tspan><tspan sqf:length="18" y="64">the </tspan><tspan sqf:length="28" y="64">IANA </tspan><tspan sqf:length="64" y="80" x="0">registry
         </tspan><tspan sqf:length="12" y="80">at </tspan><tspan sqf:length="190" y="80">http://www.iana.org/assignments/lang-</tspan><tspan sqf:length="19" y="80">tag-</tspan><tspan sqf:length="47" y="96" x="0">apps.htm </tspan><tspan sqf:length="41" y="96">for
         </tspan><tspan sqf:length="36" y="96">further </tspan><tspan sqf:length="83" y="96">information.

         </tspan><tspan sqf:length="21" y="96">The </tspan><tspan sqf:length="29" y="96">union </tspan><tspan sqf:length="35" y="96">allows </tspan><tspan sqf:length="17" y="112" x="0">for </tspan><tspan sqf:length="18" y="112">the </tspan><tspan sqf:length="18" y="112">'un-</tspan><tspan sqf:length="58" y="112">declaration' </tspan><tspan sqf:length="13" y="112">of </tspan><tspan sqf:length="42" y="112">xml:lang </tspan><tspan sqf:length="48" y="112">with
         </tspan><tspan sqf:length="18" y="112">the </tspan><tspan sqf:length="32" y="112">empty </tspan><tspan sqf:length="30" y="112">string.</tspan></text></svg></g></g></g></svg></g></svg></g></svg></g></g></svg></g></svg></g><g transform="translate(53, 168)"><svg width="332" height="75" class="annotation"><g visibility="hidden" style="z-index:1000"><set attributeName="visibility" to="visible" begin="modeld9e233_elementRef_d9e233.mouseover" end="modeld9e233_elementRef_d9e233.mouseout" sqf:dokuViewer="modeld9e233_elementRef_d9e233"/><g transform="translate(1,1)"><path d="M 17.5 0 Q 10 0 10 7.5 L 10 7.5 L 0 12.5 L 10 17.5 L 10 60.5 Q 10 68 17.5 68 L 322.5 68 Q 330 68 330 60.5 L 330 7.5 Q 330 0 322.5 0 Z" fill="white" opacity="1" stroke="#007" stroke-width="1"/><path d="M 17.5 0 Q 10 0 10 7.5 L 10 7.5 L 0 12.5 L 10 17.5 L 10 60.5 Q 10 68 17.5 68 L 322.5 68 Q 330 68 330 60.5 L 330 7.5 Q 330 0 322.5 0 Z" fill="#007" opacity="0.1" stroke="#007" stroke-width="1"/><path d="M 17.5 0 Q 10 0 10 7.5 L 10 7.5 L 0 12.5 L 10 17.5 L 10 60.5 Q 10 68 17.5 68 L 322.5 68 Q 330 68 330 60.5 L 330 7.5 Q 330 0 322.5 0 Z" fill="none" opacity="1" stroke="#007" stroke-width="1"/><g transform="translate(20,5)"><svg xmlns:java="java:java.lang.Math" width="300" height="18" class="text_box"><text fill="black" font-family="arial, helvetica, sans-serif" font-size="11" font-weight="bold"><tspan sqf:length="83" y="16" x="0">Documentation</tspan></text></svg></g><g transform="translate(20,23)"><svg xmlns:java="java:java.lang.Math" width="300" height="40" class="text_box"><text fill="black" font-family="arial, helvetica, sans-serif" font-size="11"><tspan sqf:length="45" y="16" x="0">Contains </tspan><tspan sqf:length="39" y="16">globally </tspan><tspan sqf:length="41" y="16">useable </tspan><tspan sqf:length="61" y="16">Schematron </tspan><tspan sqf:length="56" y="16">QuickFixes </tspan><tspan sqf:length="21" y="16">and </tspan><tspan sqf:length="44" y="32" x="0">QuickFix </tspan><tspan sqf:length="37" y="32">groups.</tspan></text></svg></g></g></g></svg></g><g transform="translate(0,0)"/></svg>