<?xml version="1.0" encoding="UTF-8"?><svg xmlns:saxon="http://saxon.sf.net/" xmlns:sqf="http://www.schematron-quickfix.com/validator/process" xmlns:svg="http://www.w3.org/2000/svg" xmlns:d2t="java:com.d2t.saxon.d2tSaxonExtensions" xmlns:xlink="http://www.w3.org/1999/xlink" xmlns="http://www.w3.org/2000/svg" xmlns:xsi="http://www.w3.org/2001/XMLSchema-instance" width="10" height="40" id="modeld9e1192_sqf_keep" sqf:cY="20" sqf:displayW="332" sqf:displayH="93"><desc/><g alignment-baseline="baseline" transform="translate(0, 7.5)" id="modeld9e1192_elementRef_d9e1192"><g><rect width="52" height="25" rx="10" ry="10" stroke="#007" stoke-width="1" fill="#88f"/></g><text x="5" y="16" fill="white" font-family="arial, helvetica, sans-serif" font-size="11">sqf:keep</text></g><g transform="translate(52, 0)"><svg xmlns:java="java:java.lang.Math" width="110.5" height="40" sqf:cY="20" class="objectPaths" sqf:multiValue="zeroOrOne"><path stroke="#007" stroke-width="1" fill="none" d="M 0 20 L 25 20" stroke-dasharray="5,5"/><g transform="translate(25,                                         0)"><svg width="85.5" height="40" class="attribute_box" sqf:cY="20" sqf:multiValue="zeroOrOne" sqf:stroke="#F5844C"><g transform="translate(0, 2.5)"><rect height="35" width="85.5" rx="10" ry="10" stroke="#F5844C" stoke-width="1" fill="white"/><g transform="translate(0, 2.5)"><svg width="83" height="30" sqf:cY="15" class="objectPaths" sqf:multiValue="zeroOrOne"><path stroke="#F5844C" stroke-width="1" fill="none" d="M 0 15 L 25 15" stroke-dasharray="5,5"/><g transform="translate(25,                                         0)"><svg width="58" height="30" sqf:cY="15" class="attribute" id="modeld9e1192_attribute_sqf_select" sqf:displayW="332" sqf:displayH="71" sqf:multiValue="zeroOrOne"><desc/><g alignment-baseline="baseline" transform="translate(0, 2.5)" id="modeld9e1192_attributName_d9e1205"><g><rect height="25" width="58" rx="10" ry="10" stroke="#F5844C" stoke-width="1" fill="white" stroke-dasharray="5,5"/></g><text x="5" y="16" fill="black" font-family="arial, helvetica, sans-serif" font-size="11">sqf:select</text></g><g transform="translate(58, 0)" sqf:z-index="0"><svg width="332" height="101" class="annotation"><g visibility="hidden" style="z-index:1000"><set attributeName="visibility" to="visible" begin="modeld9e1192_attributName_d9e1205.mouseover" end="modeld9e1192_attributName_d9e1205.mouseout" sqf:dokuViewer="modeld9e1192_attributName_d9e1205"/><g transform="translate(1,1)"><path d="M 20 0 Q 10 0 10 10 L 10 10 L 0 15 L 10 20 L 10 84 Q 10 94 20 94 L 320 94 Q 330 94 330 84 L 330 10 Q 330 0 320 0 Z" fill="white" opacity="1" stroke="#F5844C" stroke-width="1"/><path d="M 20 0 Q 10 0 10 10 L 10 10 L 0 15 L 10 20 L 10 84 Q 10 94 20 94 L 320 94 Q 330 94 330 84 L 330 10 Q 330 0 320 0 Z" fill="#F5844C" opacity="0.1" stroke="#F5844C" stroke-width="1"/><path d="M 20 0 Q 10 0 10 10 L 10 10 L 0 15 L 10 20 L 10 84 Q 10 94 20 94 L 320 94 Q 330 94 330 84 L 330 10 Q 330 0 320 0 Z" fill="none" opacity="1" stroke="#F5844C" stroke-width="1"/><g transform="translate(20,5)"><svg width="300" height="18" class="text_box"><text fill="black" font-family="arial, helvetica, sans-serif" font-size="11" font-weight="bold"><tspan sqf:length="83" y="16" x="0">Documentation</tspan></text></svg></g><g transform="translate(20,23)"><svg width="300" height="24" class="text_box"><text fill="black" font-family="arial, helvetica, sans-serif" font-size="11"><tspan sqf:length="21" y="16" x="0">The </tspan><tspan sqf:length="42" y="16">attribute </tspan><tspan sqf:length="38" y="16">selects </tspan><tspan sqf:length="33" y="16">nodes </tspan><tspan sqf:length="12" y="16">to </tspan><tspan sqf:length="15" y="16">be </tspan><tspan sqf:length="35" y="16">copied.</tspan></text></svg></g><g transform="translate(20,47)"><svg width="300" height="18" class="text_box"><text fill="black" font-family="arial, helvetica, sans-serif" font-size="11" font-weight="bold"><tspan sqf:length="31" y="16" x="0">Value</tspan></text></svg></g><g transform="translate(20,65)"><svg width="300" height="24" class="text_box"><text fill="black" font-family="arial, helvetica, sans-serif" font-size="11"><tspan sqf:length="31" y="16" x="0">XPath </tspan><tspan sqf:length="57" y="16">expression.</tspan></text></svg></g></g></g></svg></g></svg></g></svg></g></g></svg></g></svg></g><g transform="translate(52, 5)"><svg width="332" height="123" class="annotation"><g visibility="hidden" style="z-index:1000"><set attributeName="visibility" to="visible" begin="modeld9e1192_elementRef_d9e1192.mouseover" end="modeld9e1192_elementRef_d9e1192.mouseout" sqf:dokuViewer="modeld9e1192_elementRef_d9e1192"/><g transform="translate(1,1)"><path d="M 17.5 0 Q 10 0 10 7.5 L 10 7.5 L 0 12.5 L 10 17.5 L 10 108.5 Q 10 116 17.5 116 L 322.5 116 Q 330 116 330 108.5 L 330 7.5 Q 330 0 322.5 0 Z" fill="white" opacity="1" stroke="#007" stroke-width="1"/><path d="M 17.5 0 Q 10 0 10 7.5 L 10 7.5 L 0 12.5 L 10 17.5 L 10 108.5 Q 10 116 17.5 116 L 322.5 116 Q 330 116 330 108.5 L 330 7.5 Q 330 0 322.5 0 Z" fill="#007" opacity="0.1" stroke="#007" stroke-width="1"/><path d="M 17.5 0 Q 10 0 10 7.5 L 10 7.5 L 0 12.5 L 10 17.5 L 10 108.5 Q 10 116 17.5 116 L 322.5 116 Q 330 116 330 108.5 L 330 7.5 Q 330 0 322.5 0 Z" fill="none" opacity="1" stroke="#007" stroke-width="1"/><g transform="translate(20,5)"><svg xmlns:java="java:java.lang.Math" width="300" height="18" class="text_box"><text fill="black" font-family="arial, helvetica, sans-serif" font-size="11" font-weight="bold"><tspan sqf:length="83" y="16" x="0">Documentation</tspan></text></svg></g><g transform="translate(20,23)"><svg xmlns:java="java:java.lang.Math" width="300" height="88" class="text_box"><text fill="black" font-family="arial, helvetica, sans-serif" font-size="11"><tspan sqf:length="23" y="16" x="0">This </tspan><tspan sqf:length="40" y="16">element </tspan><tspan sqf:length="11" y="16">is </tspan><tspan sqf:length="45" y="16">available </tspan><tspan sqf:length="32" y="16">within </tspan><tspan sqf:length="37" y="16">activity </tspan><tspan sqf:length="49" y="16">elements. </tspan><tspan sqf:length="21" y="16">The </tspan><tspan sqf:length="42" y="32" x="0">function </tspan><tspan sqf:length="11" y="32">is </tspan><tspan sqf:length="12" y="32">to </tspan><tspan sqf:length="27" y="32">copy </tspan><tspan sqf:length="33" y="32">nodes </tspan><tspan sqf:length="44" y="32">selected </tspan><tspan sqf:length="15" y="32">by </tspan><tspan sqf:length="18" y="32">the </tspan><tspan sqf:length="32" y="32">select </tspan><tspan sqf:length="45" y="32">attribute. </tspan><tspan sqf:length="31" y="48" x="0">Unlike </tspan><tspan sqf:length="9" y="48">a </tspan><tspan sqf:length="27" y="48">deep </tspan><tspan sqf:length="27" y="48">copy </tspan><tspan sqf:length="45" y="48">function, </tspan><tspan sqf:length="24" y="48">with </tspan><tspan sqf:length="20" y="48">this </tspan><tspan sqf:length="42" y="48">function </tspan><tspan sqf:length="18" y="48">the </tspan><tspan sqf:length="35" y="48">copied </tspan><tspan sqf:length="33" y="64" x="0">nodes </tspan><tspan sqf:length="21" y="64">can </tspan><tspan sqf:length="15" y="64">be </tspan><tspan sqf:length="60" y="64">manipulated </tspan><tspan sqf:length="15" y="64">by </tspan><tspan sqf:length="18" y="64">the </tspan><tspan sqf:length="38" y="64">current </tspan><tspan sqf:length="13" y="64">or </tspan><tspan sqf:length="28" y="64">other </tspan><tspan sqf:length="37" y="64">activity </tspan><tspan sqf:length="46" y="80" x="0">elements.</tspan></text></svg></g></g></g></svg></g><g transform="translate(0,0)"/></svg>