<?xml version="1.0" encoding="UTF-8"?><svg xmlns:saxon="http://saxon.sf.net/" xmlns:sqf="http://www.schematron-quickfix.com/validator/process" xmlns:svg="http://www.w3.org/2000/svg" xmlns:d2t="java:com.d2t.saxon.d2tSaxonExtensions" xmlns:xlink="http://www.w3.org/1999/xlink" xmlns="http://www.w3.org/2000/svg" xmlns:xsi="http://www.w3.org/2001/XMLSchema-instance" width="10" height="373.5" id="modeld9e556_sqf_param" sqf:cY="256.75" sqf:displayW="532" sqf:displayH="175"><desc/><g alignment-baseline="baseline" transform="translate(66, 244.25)" id="modeld9e556_elementRef_d9e556"><g><rect width="59" height="25" rx="10" ry="10" stroke="#007" stoke-width="1" fill="#88f"/></g><text x="5" y="16" fill="white" font-family="arial, helvetica, sans-serif" font-size="11">sqf:param</text></g><g transform="translate(125, 0)"><svg xmlns:java="java:java.lang.Math" width="308.5" height="373.5" sqf:cY="256.75" class="objectPaths" sqf:multiValue="one"><path stroke="#007" stroke-width="1" fill="none" d="M 0 256.75 L 25 256.75"/><path stroke="#007" stroke-width="1" fill="none" d="M 50 357 L 32 357 Q 26.5 357 26.5 351.5 L 26.5 256.75" stroke-dasharray="5,5"/><path stroke="#007" stroke-width="1" fill="none" d="M 50 360 L 32 360 Q 23.5 360 23.5 351.5 L 23.5 256.75" stroke-dasharray="5,5"/><g transform="translate(50,                                         343.5)"><svg width="75" height="30" class="choice" sqf:cY="15" sqf:multiValue="zeroOrMore"><g transform="translate(0,5)"><svg width="20" height="23.5" sqf:cYTop="0" sqf:cXTop="10" sqf:cYRight="10" sqf:cXRight="20" sqf:cYBottom="20" sqf:cXBottom="10" sqf:cY="10"><g><circle r="9.5" stroke="#007" stroke-width="0.33" cx="10" cy="13.5" fill="white" stroke-dashoffset="2" stroke-dasharray="2"/><circle r="9.5" stroke="#007" stroke-width="0.66" cx="10" cy="12" fill="white" stroke-dashoffset="2" stroke-dasharray="2"/><circle r="9.5" stroke="#007" stroke-width="1" cx="10" cy="10" fill="white" stroke-dashoffset="2" stroke-dasharray="2"/><g><path d="M 0 10                          L 3 10                          L 3 6                          L 6 6                         M 3 10                         L 3 14                         L 6 14" stroke="#007" fill="none" stroke-width="0.75"/><g transform="translate(6, 4)"><rect width="8" height="4" fill="#88f" stroke-width="1" stroke="#007"/></g><g transform="translate(6, 12)"><rect width="8" height="4" fill="#88f" stroke-width="1" stroke="#007"/></g><path d="M 20 10                                  L 17 10                                  L 17 6                                  L 14 6                                 M 17 10                                 L 17 14                                 L 14 14" stroke="#007" fill="none" stroke-width="0.75"/></g></g></svg></g><g transform="translate(20,0)"><svg width="55" height="30" sqf:cY="15" class="objectPaths" sqf:multiValue="one"><path stroke="#007" stroke-width="1" fill="none" d="M 0 15 L 15 15"/><g transform="translate(15,                                         0)"><svg width="40" height="30" class="element_ref" sqf:cY="15" sqf:displayW="0" sqf:displayH="0" sqf:multiValue="one" sqf:minOccurs="1" sqf:maxOccurs="1"><desc/><g alignment-baseline="baseline" class="svg-element-ref" transform="translate(0, 2.5)"><g id="modeld9e556_elementRef_d9e581"><rect height="25" width="40" rx="10" ry="10" stroke="#007" stoke-width="1" fill="white"/><text x="5" y="16" fill="black" font-family="arial, helvetica, sans-serif" font-size="11">##any</text></g></g><g transform="translate(40, 0)" sqf:z-index="0"/></svg></g></svg></g></svg></g><path stroke="#F5844C" stroke-width="1" fill="none" d="M 50 155 L 32 155 Q 25 155 25 162 L 25 256.75"/><g transform="translate(50,                                         0)"><svg width="258.5" height="343.5" class="attribute_box" sqf:cY="155" sqf:multiValue="one" sqf:stroke="#F5844C"><g transform="translate(0, 2.5)"><rect height="338.5" width="258.5" rx="10" ry="10" stroke="#F5844C" stoke-width="1" fill="white"/><g transform="translate(0, 2.5)"><svg width="256" height="333.5" sqf:cY="150" class="objectPaths" sqf:multiValue="one"><path stroke="#F5844C" stroke-width="1" fill="none" d="M 0 150 L 25 150"/><path stroke="#F5844C" stroke-width="1" fill="none" d="M 50 285 L 32 285 Q 25 285 25 278 L 25 150"/><g transform="translate(50,                                         190)"><svg width="206" height="143.5" sqf:cY="95" sqf:displayW="0" sqf:displayH="0" class="element_group" sqf:multiValue="one"><g transform="translate(0, 5)" id="modeld9e556_group_d9e653"><rect width="201" height="133.5" rx="7" ry="7" fill="white" stroke="#007" stroke-width="1"/><rect width="201" height="133.5" rx="7" ry="7" fill="white" stroke="#007" stroke-width="1"/><a xlink:href="#sch_foreign" target="_top"><svg width="90" height="25"><g transform="translate(3,3)"><rect width="5" height="5" x="6" y="3" fill="#007" opacity="0.5"/><rect width="5" height="5" x="6" y="11" fill="#007" opacity="0.5"/><rect width="5" height="5" x="14" y="11" fill="#007" opacity="0.5"/><rect width="5" height="5" x="6" y="3" fill="none" stroke="#007" stroke-width="0.75" opacity="1"/><rect width="5" height="5" x="6" y="11" fill="none" stroke="#007" stroke-width="0.75" opacity="1"/><rect width="5" height="5" x="14" y="11" fill="none" stroke="#007" stroke-width="0.75" opacity="1"/><text x="26" y="13" fill="black" font-family="arial, helvetica, sans-serif" font-size="11">sch:foreign</text></g></svg><path d="M 2.5 25 L 198.5 25" fill="none" stroke="#007" stroke-width="0.25"/></a><g transform="translate(199.5, 0)" sqf:z-index="0"/><g transform="translate(0, 27.5)"><svg width="198.5" height="103.5" sqf:cY="62.5" class="objectPaths" sqf:multiValue="one"><path stroke="#007" stroke-width="1" fill="none" d="M 0 62.5 L 25 62.5"/><g transform="translate(25,                                         0)"><svg width="173.5" height="103.5" class="sequence" sqf:cY="62.5" sqf:multiValue="one" sqf:minOccurs="1" sqf:maxOccurs="1"><g transform="translate(0,52.5)"><svg width="20" height="20" sqf:cY="10"><g><circle r="9.5" stroke="#007" stroke-width="1" cx="10" cy="10" fill="white"/><g><path d="M 0 10                          L 3 10                         M 8.5 10                         L 11.5 10                         M 17 10                         L 20 10" stroke="#007" fill="none" stroke-width="0.75"/><g transform="translate(3, 8)"><rect width="5.5" height="4" fill="#88f" stroke-width="1" stroke="#007"/></g><g transform="translate(11.5, 8)"><rect width="5.5" height="4" fill="#88f" stroke-width="1" stroke="#007"/></g></g></g></svg></g><g transform="translate(20,0)"><svg width="153.5" height="103.5" sqf:cY="62.5" class="objectPaths" sqf:multiValue="zeroOrMore"><path stroke="#007" stroke-width="1" fill="none" d="M 0 61 L 15 61" stroke-dasharray="3,3"/><path stroke="#007" stroke-width="1" fill="none" d="M 0 64 L 15 64" stroke-dasharray="3,3"/><g transform="translate(15,                                         0)"><svg width="138.5" height="103.5" sqf:cY="62.5" sqf:displayW="0" sqf:displayH="0" class="element_group" sqf:multiValue="zeroOrMore"><g transform="translate(0, 5)" id="modeld9e556_group_d5e538"><rect width="133.5" height="90" rx="7" ry="7" fill="white" stroke="#007" stroke-width="0.33" stroke-dashoffset="2" stroke-dasharray="2" y="3.5"/><rect width="133.5" height="90" rx="7" ry="7" fill="white" stroke="#007" stroke-width="0.66" stroke-dashoffset="2" stroke-dasharray="2" y="2"/><rect width="133.5" height="90" rx="7" ry="7" fill="white" stroke="#007" stroke-width="1" stroke-dashoffset="2" stroke-dasharray="2"/><rect width="133.5" height="90" rx="7" ry="7" fill="white" stroke="#007" stroke-width="1"/><a xlink:href="#sch_foreign-element" target="_top"><svg width="131" height="25"><g transform="translate(3,3)"><rect width="5" height="5" x="6" y="3" fill="#007" opacity="0.5"/><rect width="5" height="5" x="6" y="11" fill="#007" opacity="0.5"/><rect width="5" height="5" x="14" y="11" fill="#007" opacity="0.5"/><rect width="5" height="5" x="6" y="3" fill="none" stroke="#007" stroke-width="0.75" opacity="1"/><rect width="5" height="5" x="6" y="11" fill="none" stroke="#007" stroke-width="0.75" opacity="1"/><rect width="5" height="5" x="14" y="11" fill="none" stroke="#007" stroke-width="0.75" opacity="1"/><text x="26" y="13" fill="black" font-family="arial, helvetica, sans-serif" font-size="11">sch:foreign-element</text></g></svg><path d="M 2.5 25 L 131 25" fill="none" stroke="#007" stroke-width="0.25"/></a><g transform="translate(132, 0)" sqf:z-index="0"/><g transform="translate(0, 27.5)"><svg width="107" height="60" sqf:cY="30" class="objectPaths" sqf:multiValue="one"><path stroke="#007" stroke-width="1" fill="none" d="M 0 30 L 25 30"/><g transform="translate(25,                                         0)"><svg width="82" height="60" class="choice" sqf:cY="30" sqf:multiValue="one"><g transform="translate(0,20)"><svg width="20" height="20" sqf:cYTop="0" sqf:cXTop="10" sqf:cYRight="10" sqf:cXRight="20" sqf:cYBottom="20" sqf:cXBottom="10"><g><circle r="9.5" stroke="#007" stroke-width="1" cx="10" cy="10" fill="white"/><g><path d="M 0 10                          L 3 10                          L 3 6                          L 6 6                         M 3 10                         L 3 14                         L 6 14" stroke="#007" fill="none" stroke-width="0.75"/><g transform="translate(6, 4)"><rect width="8" height="4" fill="#88f" stroke-width="1" stroke="#007"/></g><g transform="translate(6, 12)"><rect width="8" height="4" fill="#88f" stroke-width="1" stroke="#007"/></g><path d="M 10 0                                  L 10 4" stroke="#007" fill="none" stroke-width="0.75"/><path d="M 10 16                                  L 10 20" stroke="#007" fill="none" stroke-width="0.75"/></g></g></svg></g><g transform="translate(20,30)"><svg width="59" height="30" sqf:cY="15" class="objectPaths" sqf:multiValue="one"><path stroke="#007" stroke-width="1" fill="none" d="M 0 15 L 15 15"/><g transform="translate(15,                                         0)"><svg width="44" height="30" class="element_ref" sqf:cY="15" sqf:displayW="0" sqf:displayH="0" sqf:multiValue="one" sqf:minOccurs="1" sqf:maxOccurs="1"><desc/><g alignment-baseline="baseline" class="svg-element-ref" transform="translate(0, 2.5)"><g id="modeld9e556_elementRef_d5e567"><rect height="25" width="44" rx="10" ry="10" stroke="#007" stoke-width="1" fill="white"/><text x="5" y="16" fill="black" font-family="arial, helvetica, sans-serif" font-size="11">##local</text></g></g><g transform="translate(44, 0)" sqf:z-index="0"/></svg></g></svg></g><g transform="translate(20,0)"><svg width="62" height="30" sqf:cY="15" class="objectPaths" sqf:multiValue="one"><path stroke="#007" stroke-width="1" fill="none" d="M 0 15 L 15 15"/><g transform="translate(15,                                         0)"><svg width="47" height="30" class="element_ref" sqf:cY="15" sqf:displayW="0" sqf:displayH="0" sqf:multiValue="one" sqf:minOccurs="1" sqf:maxOccurs="1"><desc/><g alignment-baseline="baseline" class="svg-element-ref" transform="translate(0, 2.5)"><g id="modeld9e556_elementRef_d5e563"><rect height="25" width="47" rx="10" ry="10" stroke="#007" stoke-width="1" fill="white"/><text x="5" y="16" fill="black" font-family="arial, helvetica, sans-serif" font-size="11">##other</text></g></g><g transform="translate(47, 0)" sqf:z-index="0"/></svg></g></svg></g><path fill="none" stroke-width="1" stroke="#007" d="M 10 20 L 10 22 Q 10 15 17 15 L 20 15"/><path fill="none" stroke-width="1" stroke="#007" d="M 10 40 L 10 38 Q 10 45 17 45 L 20 45"/></svg></g></svg></g></g><g transform="translate(0, 62.5)"/></svg></g></svg></g></svg></g></svg></g></g><g transform="translate(0, 95)"/></svg></g><path stroke="#F5844C" stroke-width="1" fill="none" d="M 25 137.5 L 50 137.5"/><path stroke="#F5844C" stroke-width="1" fill="none" d="M 25 137.5 L 25 150"/><g transform="translate(50,                                         60)"><svg width="157.5" height="130" sqf:cY="77.5" sqf:displayW="0" sqf:displayH="0" class="element_group" sqf:multiValue="one"><g transform="translate(0, 5)" id="modeld9e556_group_d9e651"><rect width="152.5" height="120" rx="7" ry="7" fill="white" stroke="#F5844C" stroke-width="1"/><rect width="152.5" height="120" rx="7" ry="7" fill="white" stroke="#F5844C" stroke-width="1"/><a xlink:href="#sqf_parameterAttributes" target="_top"><svg width="150" height="25"><g transform="translate(3,3)"><rect width="5" height="5" x="6" y="3" fill="#F5844C" opacity="0.5"/><rect width="5" height="5" x="6" y="11" fill="#F5844C" opacity="0.5"/><rect width="5" height="5" x="14" y="11" fill="#F5844C" opacity="0.5"/><rect width="5" height="5" x="6" y="3" fill="none" stroke="#F5844C" stroke-width="0.75" opacity="1"/><rect width="5" height="5" x="6" y="11" fill="none" stroke="#F5844C" stroke-width="0.75" opacity="1"/><rect width="5" height="5" x="14" y="11" fill="none" stroke="#F5844C" stroke-width="0.75" opacity="1"/><text x="26" y="13" fill="black" font-family="arial, helvetica, sans-serif" font-size="11">sqf:parameterAttributes</text></g></svg><path d="M 2.5 25 L 150 25" fill="none" stroke="#F5844C" stroke-width="0.25"/></a><g transform="translate(151, 0)" sqf:z-index="0"/><g transform="translate(0, 27.5)"><svg width="112" height="90" sqf:cY="45" class="objectPaths" sqf:multiValue="one"><path stroke="#F5844C" stroke-width="1" fill="none" d="M 0 45 L 25 45"/><path stroke="#F5844C" stroke-width="1" fill="none" d="M 50 75 L 32 75 Q 25 75 25 68 L 25 45" stroke-dasharray="5,5"/><g transform="translate(50,                                         60)"><svg width="50" height="30" sqf:cY="15" class="attribute" id="modeld9e556_attribute_sqf_type" sqf:displayW="332" sqf:displayH="71" sqf:multiValue="zeroOrOne"><desc/><g alignment-baseline="baseline" transform="translate(0, 2.5)" id="modeld9e556_attributName_d9e144"><g><rect height="25" width="50" rx="10" ry="10" stroke="#F5844C" stoke-width="1" fill="white" stroke-dasharray="5,5"/></g><text x="5" y="16" fill="black" font-family="arial, helvetica, sans-serif" font-size="11">sqf:type</text></g><g transform="translate(50, 0)" sqf:z-index="0"><svg width="332" height="101" class="annotation"><g visibility="hidden" style="z-index:1000"><set attributeName="visibility" to="visible" begin="modeld9e556_attributName_d9e144.mouseover" end="modeld9e556_attributName_d9e144.mouseout" sqf:dokuViewer="modeld9e556_attributName_d9e144"/><g transform="translate(1,1)"><path d="M 20 0 Q 10 0 10 10 L 10 10 L 0 15 L 10 20 L 10 84 Q 10 94 20 94 L 320 94 Q 330 94 330 84 L 330 10 Q 330 0 320 0 Z" fill="white" opacity="1" stroke="#F5844C" stroke-width="1"/><path d="M 20 0 Q 10 0 10 10 L 10 10 L 0 15 L 10 20 L 10 84 Q 10 94 20 94 L 320 94 Q 330 94 330 84 L 330 10 Q 330 0 320 0 Z" fill="#F5844C" opacity="0.1" stroke="#F5844C" stroke-width="1"/><path d="M 20 0 Q 10 0 10 10 L 10 10 L 0 15 L 10 20 L 10 84 Q 10 94 20 94 L 320 94 Q 330 94 330 84 L 330 10 Q 330 0 320 0 Z" fill="none" opacity="1" stroke="#F5844C" stroke-width="1"/><g transform="translate(20,5)"><svg width="300" height="18" class="text_box"><text fill="black" font-family="arial, helvetica, sans-serif" font-size="11" font-weight="bold"><tspan sqf:length="83" y="16" x="0">Documentation</tspan></text></svg></g><g transform="translate(20,23)"><svg width="300" height="24" class="text_box"><text fill="black" font-family="arial, helvetica, sans-serif" font-size="11"><tspan sqf:length="23" y="16" x="0">This </tspan><tspan sqf:length="42" y="16">attribute </tspan><tspan sqf:length="39" y="16">defines </tspan><tspan sqf:length="18" y="16">the </tspan><tspan sqf:length="24" y="16">type </tspan><tspan sqf:length="13" y="16">of </tspan><tspan sqf:length="18" y="16">the </tspan><tspan sqf:length="52" y="16">parameter </tspan><tspan sqf:length="13" y="16">or </tspan><tspan sqf:length="26" y="16">User </tspan><tspan sqf:length="28" y="16">Entry.</tspan></text></svg></g><g transform="translate(20,47)"><svg width="300" height="18" class="text_box"><text fill="black" font-family="arial, helvetica, sans-serif" font-size="11" font-weight="bold"><tspan sqf:length="31" y="16" x="0">Value</tspan></text></svg></g><g transform="translate(20,65)"><svg width="300" height="24" class="text_box"><text fill="black" font-family="arial, helvetica, sans-serif" font-size="11"><tspan sqf:length="21" y="16" x="0">The </tspan><tspan sqf:length="29" y="16">value </tspan><tspan sqf:length="35" y="16">should </tspan><tspan sqf:length="15" y="16">be </tspan><tspan sqf:length="9" y="16">a </tspan><tspan sqf:length="25" y="16">valid </tspan><tspan sqf:length="24" y="16">XML </tspan><tspan sqf:length="42" y="16">Schema </tspan><tspan sqf:length="24" y="16">type.</tspan></text></svg></g></g></g></svg></g></svg></g><path stroke="#F5844C" stroke-width="1" fill="none" d="M 25 45 L 50 45" stroke-dasharray="5,5"/><path stroke="#F5844C" stroke-width="1" fill="none" d="M 25 45 L 25 45" stroke-dasharray="5,5"/><g transform="translate(50,                                         30)"><svg width="62" height="30" sqf:cY="15" class="attribute" id="modeld9e556_attribute_sqf_default" sqf:displayW="332" sqf:displayH="103" sqf:multiValue="zeroOrOne"><desc/><g alignment-baseline="baseline" transform="translate(0, 2.5)" id="modeld9e556_attributName_d9e129"><g><rect height="25" width="62" rx="10" ry="10" stroke="#F5844C" stoke-width="1" fill="white" stroke-dasharray="5,5"/></g><text x="5" y="16" fill="black" font-family="arial, helvetica, sans-serif" font-size="11">sqf:default</text></g><g transform="translate(62, 0)" sqf:z-index="0"><svg width="332" height="133" class="annotation"><g visibility="hidden" style="z-index:1000"><set attributeName="visibility" to="visible" begin="modeld9e556_attributName_d9e129.mouseover" end="modeld9e556_attributName_d9e129.mouseout" sqf:dokuViewer="modeld9e556_attributName_d9e129"/><g transform="translate(1,1)"><path d="M 20 0 Q 10 0 10 10 L 10 10 L 0 15 L 10 20 L 10 116 Q 10 126 20 126 L 320 126 Q 330 126 330 116 L 330 10 Q 330 0 320 0 Z" fill="white" opacity="1" stroke="#F5844C" stroke-width="1"/><path d="M 20 0 Q 10 0 10 10 L 10 10 L 0 15 L 10 20 L 10 116 Q 10 126 20 126 L 320 126 Q 330 126 330 116 L 330 10 Q 330 0 320 0 Z" fill="#F5844C" opacity="0.1" stroke="#F5844C" stroke-width="1"/><path d="M 20 0 Q 10 0 10 10 L 10 10 L 0 15 L 10 20 L 10 116 Q 10 126 20 126 L 320 126 Q 330 126 330 116 L 330 10 Q 330 0 320 0 Z" fill="none" opacity="1" stroke="#F5844C" stroke-width="1"/><g transform="translate(20,5)"><svg width="300" height="18" class="text_box"><text fill="black" font-family="arial, helvetica, sans-serif" font-size="11" font-weight="bold"><tspan sqf:length="83" y="16" x="0">Documentation</tspan></text></svg></g><g transform="translate(20,23)"><svg width="300" height="56" class="text_box"><text fill="black" font-family="arial, helvetica, sans-serif" font-size="11"><tspan sqf:length="23" y="16" x="0">This </tspan><tspan sqf:length="42" y="16">attribute </tspan><tspan sqf:length="39" y="16">defines </tspan><tspan sqf:length="9" y="16">a </tspan><tspan sqf:length="36" y="16">default </tspan><tspan sqf:length="29" y="16">value </tspan><tspan sqf:length="17" y="16">for </tspan><tspan sqf:length="9" y="16">a </tspan><tspan sqf:length="52" y="16">parameter </tspan><tspan sqf:length="13" y="16">or </tspan><tspan sqf:length="26" y="16">User </tspan><tspan sqf:length="28" y="32" x="0">Entry </tspan><tspan sqf:length="15" y="32">by </tspan><tspan sqf:length="29" y="32">using </tspan><tspan sqf:length="9" y="32">a </tspan><tspan sqf:length="31" y="32">XPath </tspan><tspan sqf:length="60" y="32">expression. </tspan><tspan sqf:length="9" y="32">If </tspan><tspan sqf:length="18" y="32">the </tspan><tspan sqf:length="42" y="32">attribute </tspan><tspan sqf:length="11" y="32">is </tspan><tspan sqf:length="18" y="32">set </tspan><tspan sqf:length="12" y="32">to </tspan><tspan sqf:length="9" y="32">a </tspan><tspan sqf:length="52" y="48" x="0">sqf:param </tspan><tspan sqf:length="43" y="48">element, </tspan><tspan sqf:length="18" y="48">the </tspan><tspan sqf:length="40" y="48">element </tspan><tspan sqf:length="26" y="48">must </tspan><tspan sqf:length="15" y="48">be </tspan><tspan sqf:length="32" y="48">empty.</tspan></text></svg></g><g transform="translate(20,79)"><svg width="300" height="18" class="text_box"><text fill="black" font-family="arial, helvetica, sans-serif" font-size="11" font-weight="bold"><tspan sqf:length="31" y="16" x="0">Value</tspan></text></svg></g><g transform="translate(20,97)"><svg width="300" height="24" class="text_box"><text fill="black" font-family="arial, helvetica, sans-serif" font-size="11"><tspan sqf:length="26" y="16" x="0">Must </tspan><tspan sqf:length="15" y="16">be </tspan><tspan sqf:length="9" y="16">a </tspan><tspan sqf:length="25" y="16">valid </tspan><tspan sqf:length="31" y="16">XPath </tspan><tspan sqf:length="57" y="16">expression.</tspan></text></svg></g></g></g></svg></g></svg></g><path stroke="#F5844C" stroke-width="1" fill="none" d="M 50 15 L 32 15 Q 25 15 25 22 L 25 45"/><g transform="translate(50,                                         0)"><svg width="55" height="30" sqf:cY="15" class="attribute" id="modeld9e556_attribute_sqf_name" sqf:displayW="332" sqf:displayH="87" sqf:multiValue="one"><desc/><g alignment-baseline="baseline" transform="translate(0, 2.5)" id="modeld9e556_attributName_d9e117"><g><rect height="25" width="55" rx="10" ry="10" stroke="#F5844C" stoke-width="1" fill="white"/></g><text x="5" y="16" fill="black" font-family="arial, helvetica, sans-serif" font-size="11">sqf:name</text></g><g transform="translate(55, 0)" sqf:z-index="0"><svg width="332" height="117" class="annotation"><g visibility="hidden" style="z-index:1000"><set attributeName="visibility" to="visible" begin="modeld9e556_attributName_d9e117.mouseover" end="modeld9e556_attributName_d9e117.mouseout" sqf:dokuViewer="modeld9e556_attributName_d9e117"/><g transform="translate(1,1)"><path d="M 20 0 Q 10 0 10 10 L 10 10 L 0 15 L 10 20 L 10 100 Q 10 110 20 110 L 320 110 Q 330 110 330 100 L 330 10 Q 330 0 320 0 Z" fill="white" opacity="1" stroke="#F5844C" stroke-width="1"/><path d="M 20 0 Q 10 0 10 10 L 10 10 L 0 15 L 10 20 L 10 100 Q 10 110 20 110 L 320 110 Q 330 110 330 100 L 330 10 Q 330 0 320 0 Z" fill="#F5844C" opacity="0.1" stroke="#F5844C" stroke-width="1"/><path d="M 20 0 Q 10 0 10 10 L 10 10 L 0 15 L 10 20 L 10 100 Q 10 110 20 110 L 320 110 Q 330 110 330 100 L 330 10 Q 330 0 320 0 Z" fill="none" opacity="1" stroke="#F5844C" stroke-width="1"/><g transform="translate(20,5)"><svg width="300" height="18" class="text_box"><text fill="black" font-family="arial, helvetica, sans-serif" font-size="11" font-weight="bold"><tspan sqf:length="83" y="16" x="0">Documentation</tspan></text></svg></g><g transform="translate(20,23)"><svg width="300" height="40" class="text_box"><text fill="black" font-family="arial, helvetica, sans-serif" font-size="11"><tspan sqf:length="23" y="16" x="0">This </tspan><tspan sqf:length="42" y="16">attribute </tspan><tspan sqf:length="39" y="16">defines </tspan><tspan sqf:length="18" y="16">the </tspan><tspan sqf:length="29" y="16">name </tspan><tspan sqf:length="13" y="16">of </tspan><tspan sqf:length="18" y="16">the </tspan><tspan sqf:length="52" y="16">parameter </tspan><tspan sqf:length="13" y="16">or </tspan><tspan sqf:length="26" y="16">User </tspan><tspan sqf:length="28" y="32" x="0">Entry.</tspan></text></svg></g><g transform="translate(20,63)"><svg width="300" height="18" class="text_box"><text fill="black" font-family="arial, helvetica, sans-serif" font-size="11" font-weight="bold"><tspan sqf:length="31" y="16" x="0">Value</tspan></text></svg></g><g transform="translate(20,81)"><svg width="300" height="24" class="text_box"><text fill="black" font-family="arial, helvetica, sans-serif" font-size="11"><tspan sqf:length="26" y="16" x="0">Must </tspan><tspan sqf:length="15" y="16">be </tspan><tspan sqf:length="35" y="16">unique </tspan><tspan sqf:length="32" y="16">within </tspan><tspan sqf:length="9" y="16">a </tspan><tspan sqf:length="44" y="16">QuickFix.</tspan></text></svg></g></g></g></svg></g></svg></g></svg></g></g><g transform="translate(0, 77.5)"/></svg></g><path stroke="#F5844C" stroke-width="1" fill="none" d="M 25 45 L 50 45" stroke-dasharray="5,5"/><path stroke="#F5844C" stroke-width="1" fill="none" d="M 25 45 L 25 137.5" stroke-dasharray="5,5"/><g transform="translate(50,                                         30)"><svg width="69" height="30" sqf:cY="15" class="attribute" id="modeld9e556_attribute_sqf_abstract" sqf:displayW="532" sqf:displayH="167" sqf:multiValue="zeroOrOne"><desc/><g alignment-baseline="baseline" transform="translate(0, 2.5)" id="modeld9e556_attributName_d9e618"><g><rect height="25" width="69" rx="10" ry="10" stroke="#F5844C" stoke-width="1" fill="white" stroke-dasharray="5,5"/></g><text x="5" y="16" fill="black" font-family="arial, helvetica, sans-serif" font-size="11">sqf:abstract</text></g><g transform="translate(69, 0)" sqf:z-index="0"><svg width="532" height="197" class="annotation"><g visibility="hidden" style="z-index:1000"><set attributeName="visibility" to="visible" begin="modeld9e556_attributName_d9e618.mouseover" end="modeld9e556_attributName_d9e618.mouseout" sqf:dokuViewer="modeld9e556_attributName_d9e618"/><g transform="translate(1,1)"><path d="M 20 0 Q 10 0 10 10 L 10 10 L 0 15 L 10 20 L 10 180 Q 10 190 20 190 L 520 190 Q 530 190 530 180 L 530 10 Q 530 0 520 0 Z" fill="white" opacity="1" stroke="#F5844C" stroke-width="1"/><path d="M 20 0 Q 10 0 10 10 L 10 10 L 0 15 L 10 20 L 10 180 Q 10 190 20 190 L 520 190 Q 530 190 530 180 L 530 10 Q 530 0 520 0 Z" fill="#F5844C" opacity="0.1" stroke="#F5844C" stroke-width="1"/><path d="M 20 0 Q 10 0 10 10 L 10 10 L 0 15 L 10 20 L 10 180 Q 10 190 20 190 L 520 190 Q 530 190 530 180 L 530 10 Q 530 0 520 0 Z" fill="none" opacity="1" stroke="#F5844C" stroke-width="1"/><g transform="translate(20,5)"><svg width="500" height="18" class="text_box"><text fill="black" font-family="arial, helvetica, sans-serif" font-size="11" font-weight="bold"><tspan sqf:length="83" y="16" x="0">Documentation</tspan></text></svg></g><g transform="translate(20,23)"><svg width="500" height="24" class="text_box"><text fill="black" font-family="arial, helvetica, sans-serif" font-size="11"><tspan sqf:length="23" y="16" x="0">This </tspan><tspan sqf:length="42" y="16">attribute </tspan><tspan sqf:length="24" y="16">sets </tspan><tspan sqf:length="17" y="16">for </tspan><tspan sqf:length="18" y="16">the </tspan><tspan sqf:length="52" y="16">parameter </tspan><tspan sqf:length="44" y="16">whether </tspan><tspan sqf:length="8" y="16">it </tspan><tspan sqf:length="11" y="16">is </tspan><tspan sqf:length="43" y="16">abstract </tspan><tspan sqf:length="13" y="16">or </tspan><tspan sqf:length="18" y="16">not.</tspan></text></svg></g><g transform="translate(20,47)"><svg width="500" height="56" class="text_box"><text fill="black" font-family="arial, helvetica, sans-serif" font-size="11"><tspan sqf:length="21" y="16" x="0">The </tspan><tspan sqf:length="38" y="16">current </tspan><tspan sqf:length="28" y="16">quick </tspan><tspan sqf:length="15" y="16">fix </tspan><tspan sqf:length="21" y="16">can </tspan><tspan sqf:length="15" y="16">be </tspan><tspan sqf:length="52" y="16">instantiate </tspan><tspan sqf:length="23" y="16">only </tspan><tspan sqf:length="25" y="16">from </tspan><tspan sqf:length="15" y="16">an </tspan><tspan sqf:length="43" y="16">abstract </tspan><tspan sqf:length="37" y="16">pattern </tspan><tspan sqf:length="21" y="16">that </tspan><tspan sqf:length="39" y="16">defines </tspan><tspan sqf:length="20" y="16">this </tspan><tspan sqf:length="43" y="16">abstract </tspan><tspan sqf:length="55" y="32" x="0">parameter. </tspan><tspan sqf:length="31" y="32">Inside </tspan><tspan sqf:length="13" y="32">of </tspan><tspan sqf:length="9" y="32">a </tspan><tspan sqf:length="31" y="32">global </tspan><tspan sqf:length="44" y="32">QuickFix </tspan><tspan sqf:length="31" y="32">every </tspan><tspan sqf:length="27" y="32">used </tspan><tspan sqf:length="52" y="32">parameter </tspan><tspan sqf:length="13" y="32">of </tspan><tspan sqf:length="15" y="32">an </tspan><tspan sqf:length="43" y="32">abstract </tspan><tspan sqf:length="37" y="32">pattern </tspan><tspan sqf:length="26" y="32">must </tspan><tspan sqf:length="15" y="32">be </tspan><tspan sqf:length="45" y="32">declared </tspan><tspan sqf:length="15" y="48" x="0">by </tspan><tspan sqf:length="15" y="48">an </tspan><tspan sqf:length="43" y="48">abstract </tspan><tspan sqf:length="52" y="48">parameter.</tspan></text></svg></g><g transform="translate(20,103)"><svg width="500" height="40" class="text_box"><text fill="black" font-family="arial, helvetica, sans-serif" font-size="11"><tspan sqf:length="9" y="16" x="0">If </tspan><tspan sqf:length="9" y="16">a </tspan><tspan sqf:length="52" y="16">parameter </tspan><tspan sqf:length="11" y="16">is </tspan><tspan sqf:length="39" y="16">defined </tspan><tspan sqf:length="15" y="16">as </tspan><tspan sqf:length="46" y="16">abstract, </tspan><tspan sqf:length="8" y="16">it </tspan><tspan sqf:length="21" y="16">can </tspan><tspan sqf:length="18" y="16">not </tspan><tspan sqf:length="27" y="16">have </tspan><tspan sqf:length="9" y="16">a </tspan><tspan sqf:length="27" y="16">type, </tspan><tspan sqf:length="43" y="16">required </tspan><tspan sqf:length="13" y="16">or </tspan><tspan sqf:length="36" y="16">default </tspan><tspan sqf:length="45" y="16">attribute. </tspan><tspan sqf:length="14" y="16">Its </tspan><tspan sqf:length="29" y="16">value </tspan><tspan sqf:length="19" y="16">will </tspan><tspan sqf:length="15" y="32" x="0">be </tspan><tspan sqf:length="23" y="32">only </tspan><tspan sqf:length="25" y="32">form </tspan><tspan sqf:length="18" y="32">the </tspan><tspan sqf:length="43" y="32">abstract </tspan><tspan sqf:length="37" y="32">pattern </tspan><tspan sqf:length="60" y="32">instantiation.</tspan></text></svg></g><g transform="translate(20,143)"><svg width="500" height="18" class="text_box"><text fill="black" font-family="arial, helvetica, sans-serif" font-size="11" font-weight="bold"><tspan sqf:length="31" y="16" x="0">Value</tspan></text></svg></g><g transform="translate(20,161)"><svg width="500" height="24" class="text_box"><text fill="black" font-family="arial, helvetica, sans-serif" font-size="11"><tspan sqf:length="21" y="16" x="0">The </tspan><tspan sqf:length="29" y="16">value </tspan><tspan sqf:length="22" y="16">true </tspan><tspan sqf:length="11" y="16">is </tspan><tspan sqf:length="27" y="16">used </tspan><tspan sqf:length="17" y="16">for </tspan><tspan sqf:length="43" y="16">abstract </tspan><tspan sqf:length="55" y="16">parameter, </tspan><tspan sqf:length="27" y="16">false </tspan><tspan sqf:length="17" y="16">for </tspan><tspan sqf:length="37" y="16">regular </tspan><tspan sqf:length="52" y="16">parameter.</tspan></text></svg></g></g></g></svg></g></svg></g><path stroke="#F5844C" stroke-width="1" fill="none" d="M 50 15 L 32 15 Q 25 15 25 22 L 25 45" stroke-dasharray="5,5"/><g transform="translate(50,                                         0)"><svg width="69" height="30" sqf:cY="15" class="attribute" id="modeld9e556_attribute_sqf_required" sqf:displayW="332" sqf:displayH="127" sqf:multiValue="zeroOrOne"><desc/><g alignment-baseline="baseline" transform="translate(0, 2.5)" id="modeld9e556_attributName_d9e584"><g><rect height="25" width="69" rx="10" ry="10" stroke="#F5844C" stoke-width="1" fill="white" stroke-dasharray="5,5"/></g><text x="5" y="16" fill="black" font-family="arial, helvetica, sans-serif" font-size="11">sqf:required</text></g><g transform="translate(69, 0)" sqf:z-index="0"><svg width="332" height="157" class="annotation"><g visibility="hidden" style="z-index:1000"><set attributeName="visibility" to="visible" begin="modeld9e556_attributName_d9e584.mouseover" end="modeld9e556_attributName_d9e584.mouseout" sqf:dokuViewer="modeld9e556_attributName_d9e584"/><g transform="translate(1,1)"><path d="M 20 0 Q 10 0 10 10 L 10 10 L 0 15 L 10 20 L 10 140 Q 10 150 20 150 L 320 150 Q 330 150 330 140 L 330 10 Q 330 0 320 0 Z" fill="white" opacity="1" stroke="#F5844C" stroke-width="1"/><path d="M 20 0 Q 10 0 10 10 L 10 10 L 0 15 L 10 20 L 10 140 Q 10 150 20 150 L 320 150 Q 330 150 330 140 L 330 10 Q 330 0 320 0 Z" fill="#F5844C" opacity="0.1" stroke="#F5844C" stroke-width="1"/><path d="M 20 0 Q 10 0 10 10 L 10 10 L 0 15 L 10 20 L 10 140 Q 10 150 20 150 L 320 150 Q 330 150 330 140 L 330 10 Q 330 0 320 0 Z" fill="none" opacity="1" stroke="#F5844C" stroke-width="1"/><g transform="translate(20,5)"><svg width="300" height="18" class="text_box"><text fill="black" font-family="arial, helvetica, sans-serif" font-size="11" font-weight="bold"><tspan sqf:length="83" y="16" x="0">Documentation</tspan></text></svg></g><g transform="translate(20,23)"><svg width="300" height="40" class="text_box"><text fill="black" font-family="arial, helvetica, sans-serif" font-size="11"><tspan sqf:length="23" y="16" x="0">This </tspan><tspan sqf:length="42" y="16">attribute </tspan><tspan sqf:length="24" y="16">sets </tspan><tspan sqf:length="17" y="16">for </tspan><tspan sqf:length="18" y="16">the </tspan><tspan sqf:length="52" y="16">parameter </tspan><tspan sqf:length="44" y="16">whether </tspan><tspan sqf:length="8" y="16">it </tspan><tspan sqf:length="11" y="16">is </tspan><tspan sqf:length="40" y="16">optional </tspan><tspan sqf:length="13" y="16">or </tspan><tspan sqf:length="43" y="32" x="0">required.</tspan></text></svg></g><g transform="translate(20,63)"><svg width="300" height="40" class="text_box"><text fill="black" font-family="arial, helvetica, sans-serif" font-size="11"><tspan sqf:length="9" y="16" x="0">If </tspan><tspan sqf:length="18" y="16">the </tspan><tspan sqf:length="52" y="16">parameter </tspan><tspan sqf:length="11" y="16">is </tspan><tspan sqf:length="46" y="16">required, </tspan><tspan sqf:length="8" y="16">it </tspan><tspan sqf:length="36" y="16">cannot </tspan><tspan sqf:length="27" y="16">have </tspan><tspan sqf:length="9" y="16">a </tspan><tspan sqf:length="36" y="16">default </tspan><tspan sqf:length="42" y="16">attribute </tspan><tspan sqf:length="13" y="32" x="0">or </tspan><tspan sqf:length="21" y="32">any </tspan><tspan sqf:length="39" y="32">content.</tspan></text></svg></g><g transform="translate(20,103)"><svg width="300" height="18" class="text_box"><text fill="black" font-family="arial, helvetica, sans-serif" font-size="11" font-weight="bold"><tspan sqf:length="31" y="16" x="0">Value</tspan></text></svg></g><g transform="translate(20,121)"><svg width="300" height="24" class="text_box"><text fill="black" font-family="arial, helvetica, sans-serif" font-size="11"><tspan sqf:length="21" y="16" x="0">The </tspan><tspan sqf:length="29" y="16">value </tspan><tspan sqf:length="21" y="16">yes </tspan><tspan sqf:length="11" y="16">is </tspan><tspan sqf:length="27" y="16">used </tspan><tspan sqf:length="17" y="16">for </tspan><tspan sqf:length="46" y="16">required, </tspan><tspan sqf:length="15" y="16">no </tspan><tspan sqf:length="17" y="16">for </tspan><tspan sqf:length="40" y="16">optional.</tspan></text></svg></g></g></g></svg></g></svg></g></svg></g></g></svg></g></svg></g><g transform="translate(125, 241.75)"><svg width="532" height="205" class="annotation"><g visibility="hidden" style="z-index:1000"><set attributeName="visibility" to="visible" begin="modeld9e556_elementRef_d9e556.mouseover" end="modeld9e556_elementRef_d9e556.mouseout" sqf:dokuViewer="modeld9e556_elementRef_d9e556"/><g transform="translate(1,1)"><path d="M 17.5 0 Q 10 0 10 7.5 L 10 7.5 L 0 12.5 L 10 17.5 L 10 190.5 Q 10 198 17.5 198 L 522.5 198 Q 530 198 530 190.5 L 530 7.5 Q 530 0 522.5 0 Z" fill="white" opacity="1" stroke="#007" stroke-width="1"/><path d="M 17.5 0 Q 10 0 10 7.5 L 10 7.5 L 0 12.5 L 10 17.5 L 10 190.5 Q 10 198 17.5 198 L 522.5 198 Q 530 198 530 190.5 L 530 7.5 Q 530 0 522.5 0 Z" fill="#007" opacity="0.1" stroke="#007" stroke-width="1"/><path d="M 17.5 0 Q 10 0 10 7.5 L 10 7.5 L 0 12.5 L 10 17.5 L 10 190.5 Q 10 198 17.5 198 L 522.5 198 Q 530 198 530 190.5 L 530 7.5 Q 530 0 522.5 0 Z" fill="none" opacity="1" stroke="#007" stroke-width="1"/><g transform="translate(20,5)"><svg xmlns:java="java:java.lang.Math" width="500" height="18" class="text_box"><text fill="black" font-family="arial, helvetica, sans-serif" font-size="11" font-weight="bold"><tspan sqf:length="83" y="16" x="0">Documentation</tspan></text></svg></g><g transform="translate(20,23)"><svg xmlns:java="java:java.lang.Math" width="500" height="40" class="text_box"><text fill="black" font-family="arial, helvetica, sans-serif" font-size="11"><tspan sqf:length="23" y="16" x="0">This </tspan><tspan sqf:length="40" y="16">element </tspan><tspan sqf:length="39" y="16">defines </tspan><tspan sqf:length="9" y="16">a </tspan><tspan sqf:length="52" y="16">parameter </tspan><tspan sqf:length="17" y="16">for </tspan><tspan sqf:length="9" y="16">a </tspan><tspan sqf:length="47" y="16">QuickFix. </tspan><tspan sqf:length="21" y="16">The </tspan><tspan sqf:length="52" y="16">parameter </tspan><tspan sqf:length="21" y="16">can </tspan><tspan sqf:length="15" y="16">be </tspan><tspan sqf:length="27" y="16">used </tspan><tspan sqf:length="18" y="16">like </tspan><tspan sqf:length="9" y="16">a </tspan><tspan sqf:length="41" y="16">variable </tspan><tspan sqf:length="32" y="16">within </tspan><tspan sqf:length="18" y="16">the </tspan><tspan sqf:length="47" y="32" x="0">QuickFix. </tspan><tspan sqf:length="21" y="32">The </tspan><tspan sqf:length="29" y="32">value </tspan><tspan sqf:length="21" y="32">can </tspan><tspan sqf:length="15" y="32">be </tspan><tspan sqf:length="18" y="32">set </tspan><tspan sqf:length="15" y="32">by </tspan><tspan sqf:length="18" y="32">the </tspan><tspan sqf:length="44" y="32">sqf:with-</tspan><tspan sqf:length="33" y="32">param </tspan><tspan sqf:length="40" y="32">element.</tspan></text></svg></g><g transform="translate(20,63)"><svg xmlns:java="java:java.lang.Math" width="500" height="24" class="text_box"><text fill="black" font-family="arial, helvetica, sans-serif" font-size="11"><tspan sqf:length="21" y="16" x="0">The </tspan><tspan sqf:length="39" y="16">content </tspan><tspan sqf:length="39" y="16">defines </tspan><tspan sqf:length="9" y="16">a </tspan><tspan sqf:length="36" y="16">default </tspan><tspan sqf:length="29" y="16">value </tspan><tspan sqf:length="17" y="16">for </tspan><tspan sqf:length="18" y="16">the </tspan><tspan sqf:length="52" y="16">parameter.</tspan></text></svg></g><g transform="translate(20,87)"><svg xmlns:java="java:java.lang.Math" width="500" height="18" class="text_box"><text fill="black" font-family="arial, helvetica, sans-serif" font-size="11" font-weight="bold"><tspan sqf:length="53" y="16" x="0">Exception</tspan></text></svg></g><g transform="translate(20,105)"><svg xmlns:java="java:java.lang.Math" width="500" height="88" class="text_box"><text fill="black" font-family="arial, helvetica, sans-serif" font-size="11"><tspan sqf:length="45" y="16" x="0">Abstract </tspan><tspan sqf:length="58" y="16">parameters </tspan><tspan sqf:length="25" y="16">(see </tspan><tspan sqf:length="42" y="16">attribute </tspan><tspan sqf:length="47" y="16">abstract) </tspan><tspan sqf:length="21" y="16">can </tspan><tspan sqf:length="18" y="16">not </tspan><tspan sqf:length="27" y="16">used </tspan><tspan sqf:length="15" y="16">as </tspan><tspan sqf:length="35" y="16">normal </tspan><tspan sqf:length="31" y="16">XPath </tspan><tspan sqf:length="50" y="16">variables. </tspan><tspan sqf:length="17" y="16">An </tspan><tspan sqf:length="43" y="16">abstract </tspan><tspan sqf:length="52" y="32" x="0">parameter </tspan><tspan sqf:length="48" y="32">declares, </tspan><tspan sqf:length="21" y="32">that </tspan><tspan sqf:length="18" y="32">the </tspan><tspan sqf:length="38" y="32">current </tspan><tspan sqf:length="44" y="32">QuickFix </tspan><tspan sqf:length="27" y="32">uses </tspan><tspan sqf:length="9" y="32">a </tspan><tspan sqf:length="52" y="32">parameter </tspan><tspan sqf:length="13" y="32">of </tspan><tspan sqf:length="15" y="32">an </tspan><tspan sqf:length="43" y="32">abstract </tspan><tspan sqf:length="40" y="32">pattern. </tspan><tspan sqf:length="11" y="32">A </tspan><tspan sqf:length="44" y="32">QuickFix </tspan><tspan sqf:length="24" y="32">with </tspan><tspan sqf:length="21" y="48" x="0">one </tspan><tspan sqf:length="13" y="48">or </tspan><tspan sqf:length="27" y="48">more </tspan><tspan sqf:length="43" y="48">abstract </tspan><tspan sqf:length="58" y="48">parameters </tspan><tspan sqf:length="21" y="48">can </tspan><tspan sqf:length="20" y="48">just </tspan><tspan sqf:length="27" y="48">used </tspan><tspan sqf:length="15" y="48">by </tspan><tspan sqf:length="43" y="48">abstract </tspan><tspan sqf:length="46" y="48">patterns. </tspan><tspan sqf:length="21" y="48">The </tspan><tspan sqf:length="29" y="48">value </tspan><tspan sqf:length="13" y="48">of </tspan><tspan sqf:length="18" y="48">the </tspan><tspan sqf:length="52" y="48">parameter </tspan><tspan sqf:length="19" y="48">will </tspan><tspan sqf:length="15" y="64" x="0">be </tspan><tspan sqf:length="18" y="64">set </tspan><tspan sqf:length="15" y="64">by </tspan><tspan sqf:length="18" y="64">the </tspan><tspan sqf:length="60" y="64">instantiation </tspan><tspan sqf:length="13" y="64">of </tspan><tspan sqf:length="18" y="64">the </tspan><tspan sqf:length="43" y="64">abstract </tspan><tspan sqf:length="37" y="64">pattern </tspan><tspan sqf:length="51" y="64">according </tspan><tspan sqf:length="12" y="64">to </tspan><tspan sqf:length="18" y="64">the </tspan><tspan sqf:length="61" y="64">Schematron </tspan><tspan sqf:length="67" y="64">specification. </tspan><tspan sqf:length="21" y="64">The </tspan><tspan sqf:length="60" y="80" x="0">instantiation </tspan><tspan sqf:length="13" y="80">of </tspan><tspan sqf:length="18" y="80">the </tspan><tspan sqf:length="43" y="80">abstract </tspan><tspan sqf:length="37" y="80">pattern </tspan><tspan sqf:length="26" y="80">must </tspan><tspan sqf:length="39" y="80">specify </tspan><tspan sqf:length="9" y="80">a </tspan><tspan sqf:length="29" y="80">value </tspan><tspan sqf:length="17" y="80">for </tspan><tspan sqf:length="31" y="80">every </tspan><tspan sqf:length="43" y="80">abstract </tspan><tspan sqf:length="52" y="80">parameter </tspan><tspan sqf:length="13" y="80">of </tspan><tspan sqf:length="18" y="80">the </tspan><tspan sqf:length="44" y="80">QuickFix.</tspan></text></svg></g></g></g></svg></g><g transform="translate(0,241.75)"><svg xmlns:java="java:java.lang.Math" width="66" height="30" sqf:cY="15" class="objectPaths" sqf:multiValue="one"><path stroke="#007" stroke-width="1" fill="none" d="M 66 15 L 41 15"/><g transform="translate(0,                                         0)"><svg width="41" height="30" sqf:cY="15"><g alignment-baseline="baseline" id="modeld9e556_d9e302_parentOf_" transform="translate( 0, 2.5)"><a xlink:href="#sqf_fix" target="_top"><g><rect width="41" height="25" rx="10" ry="10" stroke="#007" stoke-width="1" fill="white"/></g><text x="5" y="16" fill="black" font-family="arial, helvetica, sans-serif" font-size="11">sqf:fix</text></a></g><g transform="translate(41, 2.5)"><svg width="332" height="91" class="annotation"><g visibility="hidden" style="z-index:1000"><set attributeName="visibility" to="visible" begin="modeld9e556_d9e302_parentOf_.mouseover" end="modeld9e556_d9e302_parentOf_.mouseout" sqf:dokuViewer="modeld9e556_d9e302_parentOf_"/><g transform="translate(1,1)"><path d="M 17.5 0 Q 10 0 10 7.5 L 10 7.5 L 0 12.5 L 10 17.5 L 10 76.5 Q 10 84 17.5 84 L 322.5 84 Q 330 84 330 76.5 L 330 7.5 Q 330 0 322.5 0 Z" fill="white" opacity="1" stroke="#007" stroke-width="1"/><path d="M 17.5 0 Q 10 0 10 7.5 L 10 7.5 L 0 12.5 L 10 17.5 L 10 76.5 Q 10 84 17.5 84 L 322.5 84 Q 330 84 330 76.5 L 330 7.5 Q 330 0 322.5 0 Z" fill="#007" opacity="0.1" stroke="#007" stroke-width="1"/><path d="M 17.5 0 Q 10 0 10 7.5 L 10 7.5 L 0 12.5 L 10 17.5 L 10 76.5 Q 10 84 17.5 84 L 322.5 84 Q 330 84 330 76.5 L 330 7.5 Q 330 0 322.5 0 Z" fill="none" opacity="1" stroke="#007" stroke-width="1"/><g transform="translate(20,5)"><svg width="300" height="18" class="text_box"><text fill="black" font-family="arial, helvetica, sans-serif" font-size="11" font-weight="bold"><tspan sqf:length="83" y="16" x="0">Documentation</tspan></text></svg></g><g transform="translate(20,23)"><svg width="300" height="56" class="text_box"><text fill="black" font-family="arial, helvetica, sans-serif" font-size="11"><tspan sqf:length="40" y="16" x="0">Defines </tspan><tspan sqf:length="9" y="16">a </tspan><tspan sqf:length="61" y="16">Schematron </tspan><tspan sqf:length="44" y="16">QuickFix </tspan><tspan sqf:length="24" y="16">with </tspan><tspan sqf:length="14" y="16">its </tspan><tspan sqf:length="42" y="16">content. </tspan><tspan sqf:length="15" y="16">All </tspan><tspan sqf:length="55" y="32" x="0">commands </tspan><tspan sqf:length="19" y="32">will </tspan><tspan sqf:length="15" y="32">be </tspan><tspan sqf:length="55" y="32">processed </tspan><tspan sqf:length="9" y="32">if </tspan><tspan sqf:length="18" y="32">the </tspan><tspan sqf:length="44" y="32">QuickFix </tspan><tspan sqf:length="11" y="32">is </tspan><tspan sqf:length="47" y="32">activated </tspan><tspan sqf:length="15" y="32">by </tspan><tspan sqf:length="18" y="48" x="0">the </tspan><tspan sqf:length="25" y="48">user.</tspan></text></svg></g></g></g></svg></g></svg></g></svg></g></svg>