<?xml version="1.0" encoding="UTF-8"?>
                  <svg xmlns="http://www.w3.org/2000/svg" xmlns:sqf="http://www.schematron-quickfix.com/validator/process" xmlns:xsi="http://www.w3.org/2001/XMLSchema-instance" width="420.18994140625" height="123.5" class="element_group" sqf:width="420.18994140625" sqf:height="123.5">
                     <g transform="translate(0, 5)" id="modeld12e104_group_d12e104" sqf:width="420.18994140625" sqf:height="123.5">
                        <rect width="120.64990234375" height="60" rx="7" ry="7" fill="white" stroke="#F5844C" stroke-width="1"/>
                        <rect width="120.64990234375" height="60" rx="7" ry="7" fill="white" stroke="#F5844C" stroke-width="1"/>
                        <path fill="#F5844C" opacity="0.1" d="M 0 25 L 0 7 Q 0 0 7 0 L 113.64990234375 0 Q 120.64990234375 0 120.64990234375 7 L 120.64990234375 25 Z"/>
                        <svg width="118.14990234375" height="25" sqf:width="118.14990234375" sqf:height="25">
                           <g transform="translate(3,3)" sqf:width="3" sqf:height="3">
                              <rect width="5" height="5" x="6" y="3" fill="#F5844C" opacity="0.5"/>
                              <rect width="5" height="5" x="6" y="11" fill="#F5844C" opacity="0.5"/>
                              <rect width="5" height="5" x="14" y="11" fill="#F5844C" opacity="0.5"/>
                              <rect width="5" height="5" x="6" y="3" fill="none" stroke="#F5844C" stroke-width="0.75" opacity="1"/>
                              <rect width="5" height="5" x="6" y="11" fill="none" stroke="#F5844C" stroke-width="0.75" opacity="1"/>
                              <rect width="5" height="5" x="14" y="11" fill="none" stroke="#F5844C" stroke-width="0.75" opacity="1"/>
                              <text x="26" y="13" fill="black" font-family="arial, helvetica, sans-serif" font-size="11">sqf:rootAttributes</text>
                           </g>
                        </svg>
                        <path d="M 2.5 25 L 118.14990234375 25" fill="none" stroke="#F5844C" stroke-width="0.25"/>
                        <g transform="translate(119.14990234375, 0)" sqf:width="119.14990234375" sqf:height="0"/>
                        <g transform="translate(0, 27.5)" sqf:width="420.18994140625" sqf:height="118.5">
                           <svg width="420.18994140625" height="91" class="objectPaths" sqf:width="420.18994140625" sqf:height="91">
                              <path stroke="#F5844C" stroke-width="1" fill="none" d="M 0 15 L 25 15" stroke-dasharray="5,5"/>
                              <g transform="translate(25,                                         0)" sqf:width="420.18994140625" sqf:height="91">
                                 <svg width="395.18994140625" height="91" class="attribute" id="modeld12e104_attribute_sqf_version" sqf:width="395.18994140625" sqf:height="91">
                                    <desc/>
                                    <g alignment-baseline="baseline" transform="translate(0, 2.5)" id="modeld12e104_attributName_d12e106" sqf:width="0" sqf:height="2.5">
                                       <g>
                                          <rect height="25" width="63.18994140625" rx="10" ry="10" stroke="#F5844C" stoke-width="1" fill="white" stroke-dasharray="5,5"/>
                                       </g>
                                       <text x="5" y="16" fill="black" font-family="arial, helvetica, sans-serif" font-size="11">sqf:version</text>
                                    </g>
                                    <g transform="translate(63.18994140625, 0)" sqf:width="395.18994140625" sqf:height="91">
                                       <svg width="332" height="91" class="annotation" sqf:width="332" sqf:height="91">
                                          <g visibility="hidden" style="z-index:1000">
                                             <set attributeName="visibility" to="visible" begin="modeld12e104_attributName_d12e106.mouseover" end="modeld12e104_attributName_d12e106.mouseout"/>
                                             <g transform="translate(1,1)" sqf:width="321" sqf:height="80">
                                                <path d="M 20 0 Q 10 0 10 10 L 10 10 L 0 15 L 10 20 L 10 74 Q 10 84 20 84 L 320 84 Q 330 84 330 74 L 330 10 Q 330 0 320 0 Z" fill="white" opacity="1" stroke="#F5844C" stroke-width="1"/>
                                                <path d="M 20 0 Q 10 0 10 10 L 10 10 L 0 15 L 10 20 L 10 74 Q 10 84 20 84 L 320 84 Q 330 84 330 74 L 330 10 Q 330 0 320 0 Z" fill="#F5844C" opacity="0.1" stroke="#F5844C" stroke-width="1"/>
                                                <path d="M 20 0 Q 10 0 10 10 L 10 10 L 0 15 L 10 20 L 10 74 Q 10 84 20 84 L 320 84 Q 330 84 330 74 L 330 10 Q 330 0 320 0 Z" fill="none" opacity="1" stroke="#F5844C" stroke-width="1"/>
                                                <g transform="translate(20,5)" sqf:width="320" sqf:height="23">
                                                   <svg width="300" height="18" class="text_box" sqf:width="300" sqf:height="18">
                                                      <text fill="black" font-family="arial, helvetica, sans-serif" font-size="11" font-weight="bold">
                                                         <tspan y="16" x="0">Documentation</tspan>
                                                      </text>
                                                   </svg>
                                                </g>
                                                <g transform="translate(20,23)" sqf:width="320" sqf:height="79">
                                                   <svg width="300" height="56" class="text_box" sqf:width="300" sqf:height="56">
                                                      <text fill="black" font-family="arial, helvetica, sans-serif" font-size="11">
                                                         <tspan y="16" x="0">The </tspan>
                                                         <tspan y="16">attribute </tspan>
                                                         <tspan y="16">defines </tspan>
                                                         <tspan y="16">the </tspan>
                                                         <tspan y="16">used </tspan>
                                                         <tspan y="16">Schematron </tspan>
                                                         <tspan y="16">QuickFix </tspan>
                                                         <tspan y="16">version. </tspan>
                                                         <tspan y="32" x="0">The </tspan>
                                                         <tspan y="32">attribute </tspan>
                                                         <tspan y="32">should </tspan>
                                                         <tspan y="32">be </tspan>
                                                         <tspan y="32">set, </tspan>
                                                         <tspan y="32">if </tspan>
                                                         <tspan y="32">the </tspan>
                                                         <tspan y="32">Schematron </tspan>
                                                         <tspan y="32">schema </tspan>
                                                         <tspan y="32">uses </tspan>
                                                         <tspan y="48" x="0">the </tspan>
                                                         <tspan y="48">Schematron </tspan>
                                                         <tspan y="48">QuickFix </tspan>
                                                         <tspan y="48">extensions.</tspan>
                                                      </text>
                                                   </svg>
                                                </g>
                                             </g>
                                          </g>
                                       </svg>
                                    </g>
                                 </svg>
                              </g>
                           </svg>
                        </g>
                     </g>
                     <g transform="translate(0, 47.5)" sqf:width="0" sqf:height="47.5"/>
                  </svg>
               